<?xml version="1.0" encoding="UTF-8" standalone="no"?>
<svg
   xmlns:dc="http://purl.org/dc/elements/1.1/"
   xmlns:cc="http://creativecommons.org/ns#"
   xmlns:rdf="http://www.w3.org/1999/02/22-rdf-syntax-ns#"
   xmlns:svg="http://www.w3.org/2000/svg"
   xmlns="http://www.w3.org/2000/svg"
   xmlns:sodipodi="http://sodipodi.sourceforge.net/DTD/sodipodi-0.dtd"
   xmlns:inkscape="http://www.inkscape.org/namespaces/inkscape"
   version="1.1"
   id="svg2"
   xml:space="preserve"
   width="489.60001"
   height="247.02667"
   viewBox="0 0 489.60001 247.02667"
   sodipodi:docname="FlipMouse_color.svg"
   inkscape:version="1.0.1 (3bc2e813f5, 2020-09-07)"><metadata
     id="metadata8"><rdf:RDF><cc:Work
         rdf:about=""><dc:format>image/svg+xml</dc:format><dc:type
           rdf:resource="http://purl.org/dc/dcmitype/StillImage" /></cc:Work></rdf:RDF></metadata><defs
     id="defs6" /><sodipodi:namedview
     pagecolor="#ffffff"
     bordercolor="#666666"
     borderopacity="1"
     objecttolerance="10"
     gridtolerance="10"
     guidetolerance="10"
     inkscape:pageopacity="0"
     inkscape:pageshadow="2"
     inkscape:window-width="1920"
     inkscape:window-height="1017"
     id="namedview4"
     inkscape:document-rotation="0"
     showgrid="false"
     inkscape:zoom="2.1425653"
     inkscape:cx="202.46757"
     inkscape:cy="65.969723"
     inkscape:window-x="1912"
     inkscape:window-y="-8"
     inkscape:window-maximized="1"
     inkscape:current-layer="g10" /><g
     id="g10"
     inkscape:groupmode="layer"
     inkscape:label="ink_ext_XXXXXX"
     transform="matrix(1.3333333,0,0,-1.3333333,0,247.02667)"><path
       d="M 91.0633,100.082 H 215.303 c -1.798,3.5 -3.746,11.999 -3.746,11.999 0,-0.5 -120.6433,0 -120.6433,0 l 0.1496,-11.999"
       style="fill:#ce6727;fill-opacity:1;fill-rule:nonzero;stroke:none;stroke-width:0.1"
       id="path14" /><path
       d="M 0.39680754,72.332721 H 226.60276 c -3.275,3.4988 -26.47776,11.822379 -26.47776,11.822379 0,-0.5 -200.00123946,0.175221 -200.00123946,0.175221 l 0.273047,-11.9976"
       style="fill:#dedede;fill-opacity:1;fill-rule:nonzero;stroke:none;stroke-width:0.1"
       id="path16"
       sodipodi:nodetypes="ccccc" /><path
       d="m 149.026,25.032 v 36.411 h 6.908 V 41.5969 c 0,-1.5821 -0.044,-3.377 -0.133,-5.3879 l -0.133,-2.7211 -0.134,-2.6938 h 0.214 l 0.827,2.534 0.8,2.534 c 0.747,2.2777 1.326,3.959 1.734,5.0418 l 8.002,20.5391 h 6.295 l 8.083,-20.3789 c 0.445,-1.1211 1.032,-2.8012 1.76,-5.0422 l 0.827,-2.534 0.827,-2.507 h 0.213 l -0.133,2.641 -0.133,2.6672 c -0.107,2.0648 -0.161,3.8328 -0.161,5.3078 V 61.443 h 6.909 V 25.032 h -11.256 l -6.509,16.859 c -0.444,1.1731 -1.031,2.8539 -1.761,5.041 l -0.8,2.534 -0.827,2.5078 h -0.24 l -0.773,-2.5078 -0.801,-2.507 c -0.657,-2.1149 -1.227,-3.7879 -1.707,-5.0149 L 160.522,25.032 h -11.496"
       style="fill:#ce6727;fill-opacity:1;fill-rule:nonzero;stroke:none;stroke-width:0.1"
       id="path18" /><path
       d="m 129.093,40.477 c 2.544,0 4.161,0.4589 4.855,1.3742 0.694,0.9168 1.04,3.0539 1.04,6.4148 0,3.841 -0.329,6.2422 -0.987,7.202 -0.657,0.9601 -2.303,1.4398 -4.934,1.4398 -2.544,0 -4.148,-0.5058 -4.815,-1.5199 -0.667,-1.0141 -1,-3.4488 -1,-7.309 0,-3.2539 0.346,-5.3348 1.04,-6.2418 0.693,-0.907 2.294,-1.3601 4.801,-1.3601 z m -0.053,-4.8282 c -4.926,0 -8.153,0.7871 -9.683,2.3614 -1.53,1.5726 -2.294,4.8937 -2.294,9.9617 0,5.6551 0.747,9.3633 2.241,11.1242 1.493,1.7598 4.641,2.6398 9.442,2.6398 5.211,0 8.586,-0.816 10.123,-2.4539 1.538,-1.6351 2.308,-5.2359 2.308,-10.8031 0,-5.3508 -0.756,-8.8289 -2.268,-10.4289 -1.511,-1.6012 -4.801,-2.4012 -9.869,-2.4012"
       style="fill:#ce6727;fill-opacity:1;fill-rule:nonzero;stroke:none;stroke-width:0.1"
       id="path20" /><path
       d="M 86.7543,35.9422 V 61.443 h 6.1082 l -0.3465,-4.375 0.1067,-0.0258 c 1.1921,3.1308 3.9304,4.6937 8.2153,4.6937 5.781,0 8.669,-2.8879 8.669,-8.6687 v -17.125 h -6.108 V 51.6 c 0,2.1711 -0.301,3.5988 -0.907,4.2809 -0.604,0.6863 -1.858,1.0269 -3.7611,1.0269 -3.9118,0 -5.8684,-2.3469 -5.8684,-7.0418 V 35.9422 h -6.1082"
       style="fill:#ce6727;fill-opacity:1;fill-rule:nonzero;stroke:none;stroke-width:0.1"
       id="path22" /><path
       d="m 56.7113,42.9578 h 5.975 c 0.0364,-0.2137 0.0629,-0.3738 0.0801,-0.4808 0.1246,-1.227 0.4762,-1.9891 1.0535,-2.2938 0.5785,-0.3012 1.9789,-0.4531 4.2016,-0.4531 3.1836,0 4.7746,1.032 4.7746,3.0937 0,1.4063 -0.2801,2.241 -0.8402,2.5082 -0.5602,0.266 -2.4582,0.4801 -5.695,0.6399 -4.3566,0.2133 -7.1929,0.7922 -8.5093,1.734 -1.3157,0.9441 -1.9739,2.873 -1.9739,5.7882 0,3.1129 0.8762,5.268 2.6274,6.4688 1.7519,1.2 4.8949,1.8 9.4297,1.8 4.357,0 7.3351,-0.541 8.9359,-1.627 1.6004,-1.0828 2.4008,-3.1097 2.4008,-6.082 v -0.6398 h -6.3488 c 0.0894,0.357 0.1429,0.6398 0.1601,0.8539 0.2492,2.259 -1.4937,3.3871 -5.2281,3.3871 -3.8586,0 -5.7883,-1.1199 -5.7883,-3.361 0,-2.15 1.2094,-3.2269 3.6277,-3.2269 5.4594,0 9.0559,-0.5152 10.7899,-1.5473 1.7336,-1.0301 2.6008,-3.175 2.6008,-6.4289 0,-2.916 -0.791,-4.889 -2.3743,-5.9219 -1.5824,-1.0293 -4.6234,-1.5472 -9.1226,-1.5472 -4.25,0 -7.1086,0.4992 -8.5758,1.4941 -1.4672,0.9981 -2.2008,2.9449 -2.2008,5.8418"
       style="fill:#ce6727;fill-opacity:1;fill-rule:nonzero;stroke:none;stroke-width:0.1"
       id="path24" /><path
       d="m 31.9242,46.052 0.0266,-1.0141 c 0,-2.027 0.3515,-3.3418 1.0535,-3.9481 0.7031,-0.6019 2.2273,-0.9066 4.575,-0.9066 2.2766,0 3.757,0.3656 4.441,1.0938 0.6852,0.7312 1.027,2.321 1.027,4.775 z m 0.0531,7.2289 h -6.1351 v 0.9871 c 0,4.98 3.7348,7.4679 11.2035,7.4679 5.068,0 8.3852,-0.8609 9.9496,-2.5871 1.5649,-1.7226 2.3473,-5.3777 2.3473,-10.9629 0,-4.9621 -0.8176,-8.2961 -2.4539,-10.0027 -1.636,-1.707 -4.8282,-2.5613 -9.5762,-2.5613 -4.552,0 -7.6023,0.832 -9.1496,2.4941 -1.5469,1.6649 -2.3207,4.932 -2.3207,9.8031 v 1.8668 h 17.2586 c 0.0359,0.5711 0.0531,0.945 0.0531,1.1211 0,2.5071 -0.3867,4.1801 -1.1601,5.0141 -0.7735,0.8379 -2.3161,1.2539 -4.6282,1.2539 -2.2406,0 -3.6984,-0.243 -4.3746,-0.7328 C 32.3156,55.9531 31.9773,54.9 31.9773,53.2809"
       style="fill:#ce6727;fill-opacity:1;fill-rule:nonzero;stroke:none;stroke-width:0.1"
       id="path26" /><path
       d="m 200.125,100.154 c 16.844,0 154.328,0 167.075,0 0,0 -47.801,75.115 -103.341,73.294 -55.539,-1.821 -63.734,-73.294 -63.734,-73.294"
       style="fill:#ce6727;fill-opacity:1;fill-rule:nonzero;stroke:none;stroke-width:0.1"
       id="path28" /><path
       d="m 200.125,84.1551 c 16.844,0 154.328,0 167.075,0 0,0 -47.801,-75.11526 -103.341,-73.2942 -55.539,1.8211 -63.734,73.2942 -63.734,73.2942"
       style="fill:#dedede;fill-opacity:1;fill-rule:nonzero;stroke:none;stroke-width:0.1"
       id="path30" /><path
       d="m 339.651,27.0121 c 0,14.918 -11.945,27.0109 -26.68,27.0109 -14.734,0 -26.679,-12.0929 -26.679,-27.0109 C 286.292,12.0941 298.237,0 312.971,0 c 14.735,0 26.68,12.0941 26.68,27.0121"
       style="fill:#ce6727;fill-opacity:1;fill-rule:nonzero;stroke:none;stroke-width:0.1"
       id="path32" /><path
       d="m 339.651,158.264 c 0,14.918 -11.945,27.011 -26.68,27.011 -14.734,0 -26.679,-12.093 -26.679,-27.011 0,-14.919 11.945,-27.012 26.679,-27.012 14.735,0 26.68,12.093 26.68,27.012"
       style="fill:#dedede;fill-opacity:1;fill-rule:nonzero;stroke:none;stroke-width:0.1"
       id="path34" /><path
       d="m 335.553,118.567 c 0,3.654 -2.925,6.616 -6.534,6.616 -3.609,0 -6.535,-2.962 -6.535,-6.616 0,-3.654 2.926,-6.617 6.535,-6.617 3.609,0 6.534,2.963 6.534,6.617"
       style="fill:#dedede;fill-opacity:1;fill-rule:nonzero;stroke:none;stroke-width:0.1"
       id="path36" /><path
       d="m 335.553,67.832 c 0,3.6539 -2.925,6.616 -6.534,6.616 -3.609,0 -6.535,-2.9621 -6.535,-6.616 0,-3.6539 2.926,-6.6172 6.535,-6.6172 3.609,0 6.534,2.9633 6.534,6.6172"
       style="fill:#ce6727;fill-opacity:1;fill-rule:nonzero;stroke:none;stroke-width:0.1"
       id="path38" /><path
       d="m 101.62,158.045 v -9.816 h 16.325 v -5.816 H 101.62 v -14.964 h -6.9087 v 36.411 h 24.1137 v -5.815 H 101.62"
       style="fill:#ce6727;fill-opacity:1;fill-rule:nonzero;stroke:none;stroke-width:0.1"
       id="path40" /><path
       d="m 132.57,163.86 v -30.222 h 17.072 v -6.189 h -23.98 v 36.411 h 6.908"
       style="fill:#ce6727;fill-opacity:1;fill-rule:nonzero;stroke:none;stroke-width:0.1"
       id="path42" /><path
       d="m 161.68,152.95 v -25.501 h -6.108 v 25.501 z m 0,10.91 v -5.095 h -6.108 v 5.095 h 6.108"
       style="fill:#ce6727;fill-opacity:1;fill-rule:nonzero;stroke:none;stroke-width:0.1"
       id="path44" /><path
       d="m 182.334,148.442 c -2.33,0 -3.85,-0.525 -4.561,-1.574 -0.711,-1.05 -1.067,-3.272 -1.067,-6.669 0,-3.307 0.383,-5.504 1.147,-6.588 0.764,-1.085 2.321,-1.627 4.668,-1.627 2.383,0 3.93,0.515 4.641,1.547 0.711,1.031 1.067,3.245 1.067,6.642 0,3.485 -0.36,5.735 -1.08,6.748 -0.72,1.014 -2.325,1.521 -4.815,1.521 z m -12.03,4.508 h 6.215 l -0.24,-3.788 0.133,-0.026 c 1.477,2.755 4.224,4.134 8.243,4.134 3.717,0 6.272,-0.92 7.669,-2.761 1.396,-1.84 2.094,-5.197 2.094,-10.07 0,-5.086 -0.694,-8.571 -2.081,-10.456 -1.387,-1.885 -3.957,-2.828 -7.709,-2.828 -4.001,0 -6.615,1.334 -7.842,4.002 h -0.107 v -14.644 h -6.375 v 36.437"
       style="fill:#ce6727;fill-opacity:1;fill-rule:nonzero;stroke:none;stroke-width:0.1"
       id="path46" /></g></svg>
