  0
SECTION
  2
HEADER
  9
$ACADVER
  1
AC1021
  9
$ACADMAINTVER
 70
    25
  9
$DWGCODEPAGE
  3
ANSI_1252
  9
$INSBASE
 10
0.0
 20
0.0
 30
0.0
  9
$EXTMIN
 10
4.1563
 20
55.2671
 30
0.0
  9
$EXTMAX
 10
41.4436
 20
74.1329
 30
0.0
  9
$LIMMIN
 10
0.0
 20
0.0
  9
$LIMMAX
 10
12.0
 20
9.0
  9
$ORTHOMODE
 70
     0
  9
$REGENMODE
 70
     1
  9
$FILLMODE
 70
     1
  9
$QTEXTMODE
 70
     0
  9
$MIRRTEXT
 70
     1
  9
$LTSCALE
 40
1.0
  9
$ATTMODE
 70
     1
  9
$TEXTSIZE
 40
0.2
  9
$TRACEWID
 40
0.05
  9
$TEXTSTYLE
  7
Standard
  9
$CLAYER
  8
0
  9
$CELTYPE
  6
ByLayer
  9
$CECOLOR
 62
   256
  9
$CELTSCALE
 40
1.0
  9
$DISPSILH
 70
     0
  9
$DIMSCALE
 40
1.0
  9
$DIMASZ
 40
0.18
  9
$DIMEXO
 40
0.0625
  9
$DIMDLI
 40
0.38
  9
$DIMRND
 40
0.0
  9
$DIMDLE
 40
0.0
  9
$DIMEXE
 40
0.18
  9
$DIMTP
 40
0.0
  9
$DIMTM
 40
0.0
  9
$DIMTXT
 40
0.18
  9
$DIMCEN
 40
0.09
  9
$DIMTSZ
 40
0.0
  9
$DIMTOL
 70
     0
  9
$DIMLIM
 70
     0
  9
$DIMTIH
 70
     1
  9
$DIMTOH
 70
     1
  9
$DIMSE1
 70
     0
  9
$DIMSE2
 70
     0
  9
$DIMTAD
 70
     0
  9
$DIMZIN
 70
     0
  9
$DIMBLK
  1

  9
$DIMASO
 70
     1
  9
$DIMSHO
 70
     1
  9
$DIMPOST
  1

  9
$DIMAPOST
  1

  9
$DIMALT
 70
     0
  9
$DIMALTD
 70
     2
  9
$DIMALTF
 40
25.4
  9
$DIMLFAC
 40
1.0
  9
$DIMTOFL
 70
     0
  9
$DIMTVP
 40
0.0
  9
$DIMTIX
 70
     0
  9
$DIMSOXD
 70
     0
  9
$DIMSAH
 70
     0
  9
$DIMBLK1
  1

  9
$DIMBLK2
  1

  9
$DIMSTYLE
  2
Standard
  9
$DIMCLRD
 70
     0
  9
$DIMCLRE
 70
     0
  9
$DIMCLRT
 70
     0
  9
$DIMTFAC
 40
1.0
  9
$DIMGAP
 40
0.09
  9
$DIMJUST
 70
     0
  9
$DIMSD1
 70
     0
  9
$DIMSD2
 70
     0
  9
$DIMTOLJ
 70
     1
  9
$DIMTZIN
 70
     0
  9
$DIMALTZ
 70
     0
  9
$DIMALTTZ
 70
     0
  9
$DIMUPT
 70
     0
  9
$DIMDEC
 70
     4
  9
$DIMTDEC
 70
     4
  9
$DIMALTU
 70
     2
  9
$DIMALTTD
 70
     2
  9
$DIMTXSTY
  7
Standard
  9
$DIMAUNIT
 70
     0
  9
$DIMADEC
 70
     0
  9
$DIMALTRND
 40
0.0
  9
$DIMAZIN
 70
     0
  9
$DIMDSEP
 70
    46
  9
$DIMATFIT
 70
     3
  9
$DIMFRAC
 70
     0
  9
$DIMLDRBLK
  1

  9
$DIMLUNIT
 70
     2
  9
$DIMLWD
 70
    -2
  9
$DIMLWE
 70
    -2
  9
$DIMTMOVE
 70
     0
  9
$DIMFXL
 40
1.0
  9
$DIMFXLON
 70
     0
  9
$DIMJOGANG
 40
0.7853981633974483
  9
$DIMTFILL
 70
     0
  9
$DIMTFILLCLR
 70
     0
  9
$DIMARCSYM
 70
     0
  9
$DIMLTYPE
  6

  9
$DIMLTEX1
  6

  9
$DIMLTEX2
  6

  9
$LUNITS
 70
     2
  9
$LUPREC
 70
     4
  9
$SKETCHINC
 40
0.1
  9
$FILLETRAD
 40
0.5
  9
$AUNITS
 70
     0
  9
$AUPREC
 70
     0
  9
$MENU
  1
.
  9
$ELEVATION
 40
0.0
  9
$PELEVATION
 40
0.0
  9
$THICKNESS
 40
0.0
  9
$LIMCHECK
 70
     0
  9
$CHAMFERA
 40
0.5
  9
$CHAMFERB
 40
0.5
  9
$CHAMFERC
 40
1.0
  9
$CHAMFERD
 40
0.0
  9
$SKPOLY
 70
     0
  9
$TDCREATE
 40
2457676.668878727
  9
$TDUCREATE
 40
2457676.585545394
  9
$TDUPDATE
 40
2457676.668878727
  9
$TDUUPDATE
 40
2457676.585545394
  9
$TDINDWG
 40
0.0000000116
  9
$TDUSRTIMER
 40
0.0000000116
  9
$USRTIMER
 70
     1
  9
$ANGBASE
 50
0.0
  9
$ANGDIR
 70
     0
  9
$PDMODE
 70
     0
  9
$PDSIZE
 40
0.0
  9
$PLINEWID
 40
0.0
  9
$SPLFRAME
 70
     0
  9
$SPLINETYPE
 70
     6
  9
$SPLINESEGS
 70
     8
  9
$HANDSEED
  5
74
  9
$SURFTAB1
 70
     6
  9
$SURFTAB2
 70
     6
  9
$SURFTYPE
 70
     6
  9
$SURFU
 70
     6
  9
$SURFV
 70
     6
  9
$UCSBASE
  2

  9
$UCSNAME
  2

  9
$UCSORG
 10
0.0
 20
0.0
 30
0.0
  9
$UCSXDIR
 10
1.0
 20
0.0
 30
0.0
  9
$UCSYDIR
 10
0.0
 20
1.0
 30
0.0
  9
$UCSORTHOREF
  2

  9
$UCSORTHOVIEW
 70
     0
  9
$UCSORGTOP
 10
0.0
 20
0.0
 30
0.0
  9
$UCSORGBOTTOM
 10
0.0
 20
0.0
 30
0.0
  9
$UCSORGLEFT
 10
0.0
 20
0.0
 30
0.0
  9
$UCSORGRIGHT
 10
0.0
 20
0.0
 30
0.0
  9
$UCSORGFRONT
 10
0.0
 20
0.0
 30
0.0
  9
$UCSORGBACK
 10
0.0
 20
0.0
 30
0.0
  9
$PUCSBASE
  2

  9
$PUCSNAME
  2

  9
$PUCSORG
 10
0.0
 20
0.0
 30
0.0
  9
$PUCSXDIR
 10
1.0
 20
0.0
 30
0.0
  9
$PUCSYDIR
 10
0.0
 20
1.0
 30
0.0
  9
$PUCSORTHOREF
  2

  9
$PUCSORTHOVIEW
 70
     0
  9
$PUCSORGTOP
 10
0.0
 20
0.0
 30
0.0
  9
$PUCSORGBOTTOM
 10
0.0
 20
0.0
 30
0.0
  9
$PUCSORGLEFT
 10
0.0
 20
0.0
 30
0.0
  9
$PUCSORGRIGHT
 10
0.0
 20
0.0
 30
0.0
  9
$PUCSORGFRONT
 10
0.0
 20
0.0
 30
0.0
  9
$PUCSORGBACK
 10
0.0
 20
0.0
 30
0.0
  9
$USERI1
 70
     0
  9
$USERI2
 70
     0
  9
$USERI3
 70
     0
  9
$USERI4
 70
     0
  9
$USERI5
 70
     0
  9
$USERR1
 40
0.0
  9
$USERR2
 40
0.0
  9
$USERR3
 40
0.0
  9
$USERR4
 40
0.0
  9
$USERR5
 40
0.0
  9
$WORLDVIEW
 70
     1
  9
$SHADEDGE
 70
     3
  9
$SHADEDIF
 70
    70
  9
$TILEMODE
 70
     1
  9
$MAXACTVP
 70
    64
  9
$PINSBASE
 10
0.0
 20
0.0
 30
0.0
  9
$PLIMCHECK
 70
     0
  9
$PEXTMIN
 10
1.000000000000000E+20
 20
1.000000000000000E+20
 30
1.000000000000000E+20
  9
$PEXTMAX
 10
-1.000000000000000E+20
 20
-1.000000000000000E+20
 30
-1.000000000000000E+20
  9
$PLIMMIN
 10
0.0
 20
0.0
  9
$PLIMMAX
 10
12.0
 20
9.0
  9
$UNITMODE
 70
     0
  9
$VISRETAIN
 70
     1
  9
$PLINEGEN
 70
     0
  9
$PSLTSCALE
 70
     1
  9
$TREEDEPTH
 70
  3020
  9
$CMLSTYLE
  2
Standard
  9
$CMLJUST
 70
     0
  9
$CMLSCALE
 40
1.0
  9
$PROXYGRAPHICS
 70
     1
  9
$MEASUREMENT
 70
     0
  9
$CELWEIGHT
370
    -1
  9
$ENDCAPS
280
     0
  9
$JOINSTYLE
280
     0
  9
$LWDISPLAY
290
     0
  9
$INSUNITS
 70
     4
  9
$HYPERLINKBASE
  1

  9
$STYLESHEET
  1

  9
$XEDIT
290
     1
  9
$CEPSNTYPE
380
     0
  9
$PSTYLEMODE
290
     1
  9
$FINGERPRINTGUID
  2
{EE3238E5-D82B-410E-A3E1-BEF6D16CA296}
  9
$VERSIONGUID
  2
{FAEB1C32-E019-11D5-929B-00C0DF256EC4}
  9
$EXTNAMES
290
     1
  9
$PSVPSCALE
 40
0.0
  9
$OLESTARTUP
290
     0
  9
$SORTENTS
280
   127
  9
$INDEXCTL
280
     0
  9
$HIDETEXT
280
     1
  9
$XCLIPFRAME
290
     0
  9
$HALOGAP
280
     0
  9
$OBSCOLOR
 70
   257
  9
$OBSLTYPE
280
     0
  9
$INTERSECTIONDISPLAY
280
     0
  9
$INTERSECTIONCOLOR
 70
   257
  9
$DIMASSOC
280
     2
  9
$PROJECTNAME
  1

  9
$CAMERADISPLAY
290
     0
  9
$LENSLENGTH
 40
50.0
  9
$CAMERAHEIGHT
 40
0.0
  9
$STEPSPERSEC
 40
2.0
  9
$STEPSIZE
 40
6.0
  9
$3DDWFPREC
 40
2.0
  9
$PSOLWIDTH
 40
0.25
  9
$PSOLHEIGHT
 40
4.0
  9
$LOFTANG1
 40
1.570796326794897
  9
$LOFTANG2
 40
1.570796326794897
  9
$LOFTMAG1
 40
0.0
  9
$LOFTMAG2
 40
0.0
  9
$LOFTPARAM
 70
     7
  9
$LOFTNORMALS
280
     1
  9
$LATITUDE
 40
37.795
  9
$LONGITUDE
 40
-122.394
  9
$NORTHDIRECTION
 40
0.0
  9
$TIMEZONE
 70
 -8000
  9
$LIGHTGLYPHDISPLAY
280
     1
  9
$TILEMODELIGHTSYNCH
280
     1
  9
$SOLIDHIST
280
     1
  9
$SHOWHIST
280
     1
  9
$DWFFRAME
280
     2
  9
$DGNFRAME
280
     2
  9
$REALWORLDSCALE
290
     1
  9
$INTERFERECOLOR
 62
   256
  9
$CSHADOW
280
     0
  9
$SHADOWPLANELOCATION
 40
0.0
  0
ENDSEC
  0
SECTION
  2
CLASSES
  0
CLASS
  1
ACDBDICTIONARYWDFLT
  2
AcDbDictionaryWithDefault
  3
ObjectDBX Classes
 90
        0
 91
        4
280
     0
281
     0
  0
CLASS
  1
VISUALSTYLE
  2
AcDbVisualStyle
  3
ObjectDBX Classes
 90
     4095
 91
        4
280
     0
281
     0
  0
CLASS
  1
MATERIAL
  2
AcDbMaterial
  3
ObjectDBX Classes
 90
     1153
 91
        4
280
     0
281
     0
  0
ENDSEC
  0
SECTION
  2
TABLES
  0
TABLE
  2
VPORT
  5
8
330
0
100
AcDbSymbolTable
 70
     1
  0
VPORT
  5
29
330
8
100
AcDbSymbolTableRecord
100
AcDbViewportTableRecord
  2
*Active
 70
     0
 10
0.0
 20
0.0
 11
1.0
 21
1.0
 12
10.42990654205607
 22
4.5
 13
0.0
 23
0.0
 14
0.5
 24
0.5
 15
0.5
 25
0.5
 16
0.0
 26
0.0
 36
1.0
 17
0.0
 27
0.0
 37
0.0
 40
9.0
 41
1.972972972850329
 42
50.0
 43
0.0
 44
0.0
 50
0.0
 51
0.0
 71
     0
 72
   100
 73
     1
 74
     3
 75
     0
 76
     0
 77
     0
 78
     0
281
     0
 65
     1
110
0.0
120
0.0
130
0.0
111
1.0
121
0.0
131
0.0
112
0.0
122
1.0
132
0.0
 79
     0
146
0.0
 60
     3
 61
     5
292
     1
282
     1
141
0.0
142
0.0
 63
   250
  0
ENDTAB
  0
TABLE
  2
LTYPE
  5
5
330
0
100
AcDbSymbolTable
 70
     1
  0
LTYPE
  5
14
330
5
100
AcDbSymbolTableRecord
100
AcDbLinetypeTableRecord
  2
ByBlock
 70
     0
  3

 72
    65
 73
     0
 40
0.0
  0
LTYPE
  5
15
330
5
100
AcDbSymbolTableRecord
100
AcDbLinetypeTableRecord
  2
ByLayer
 70
     0
  3

 72
    65
 73
     0
 40
0.0
  0
LTYPE
  5
16
330
5
100
AcDbSymbolTableRecord
100
AcDbLinetypeTableRecord
  2
Continuous
 70
     0
  3
Solid line
 72
    65
 73
     0
 40
0.0
  0
ENDTAB
  0
TABLE
  2
LAYER
  5
2
330
0
100
AcDbSymbolTable
 70
     2
  0
LAYER
  5
10
330
2
100
AcDbSymbolTableRecord
100
AcDbLayerTableRecord
  2
0
 70
     0
 62
     7
  6
Continuous
370
    -3
390
F
347
3E
  0
LAYER
  5
40
330
2
100
AcDbSymbolTableRecord
100
AcDbLayerTableRecord
  2
Ebene 1
 70
     0
 62
     7
  6
Continuous
370
    -3
390
F
347
3E
  0
ENDTAB
  0
TABLE
  2
STYLE
  5
3
330
0
100
AcDbSymbolTable
 70
     1
  0
STYLE
  5
11
330
3
100
AcDbSymbolTableRecord
100
AcDbTextStyleTableRecord
  2
Standard
 70
     0
 40
0.0
 41
1.0
 50
0.0
 71
     0
 42
0.2
  3
txt
  4

  0
ENDTAB
  0
TABLE
  2
VIEW
  5
6
330
0
100
AcDbSymbolTable
 70
     0
  0
ENDTAB
  0
TABLE
  2
UCS
  5
7
330
0
100
AcDbSymbolTable
 70
     0
  0
ENDTAB
  0
TABLE
  2
APPID
  5
9
330
0
100
AcDbSymbolTable
 70
     2
  0
APPID
  5
12
330
9
100
AcDbSymbolTableRecord
100
AcDbRegAppTableRecord
  2
ACAD
 70
     0
  0
APPID
  5
3F
330
9
100
AcDbSymbolTableRecord
100
AcDbRegAppTableRecord
  2
ODA
 70
     0
  0
ENDTAB
  0
TABLE
  2
DIMSTYLE
  5
A
330
0
100
AcDbSymbolTable
 70
     1
100
AcDbDimStyleTable
  0
DIMSTYLE
105
27
330
A
100
AcDbSymbolTableRecord
100
AcDbDimStyleTableRecord
  2
Standard
 70
     0
178
     0
340
11
  0
ENDTAB
  0
TABLE
  2
BLOCK_RECORD
  5
1
330
0
100
AcDbSymbolTable
 70
     1
  0
BLOCK_RECORD
  5
1F
330
1
100
AcDbSymbolTableRecord
100
AcDbBlockTableRecord
  2
*Model_Space
340
22
 70
     0
280
     1
281
     0
  0
BLOCK_RECORD
  5
1B
330
1
100
AcDbSymbolTableRecord
100
AcDbBlockTableRecord
  2
*Paper_Space
340
1E
 70
     0
280
     1
281
     0
  0
BLOCK_RECORD
  5
23
330
1
100
AcDbSymbolTableRecord
100
AcDbBlockTableRecord
  2
*Paper_Space0
340
26
 70
     0
280
     1
281
     0
  0
ENDTAB
  0
ENDSEC
  0
SECTION
  2
BLOCKS
  0
BLOCK
  5
20
330
1F
100
AcDbEntity
  8
0
100
AcDbBlockBegin
  2
*Model_Space
 70
     0
 10
0.0
 20
0.0
 30
0.0
  3
*Model_Space
  1

  0
ENDBLK
  5
21
330
1F
100
AcDbEntity
  8
0
100
AcDbBlockEnd
  0
BLOCK
  5
1C
330
1B
100
AcDbEntity
 67
     1
  8
0
100
AcDbBlockBegin
  2
*Paper_Space
 70
     0
 10
0.0
 20
0.0
 30
0.0
  3
*Paper_Space
  1

  0
ENDBLK
  5
1D
330
1B
100
AcDbEntity
 67
     1
  8
0
100
AcDbBlockEnd
  0
BLOCK
  5
24
330
23
100
AcDbEntity
  8
0
100
AcDbBlockBegin
  2
*Paper_Space0
 70
     0
 10
0.0
 20
0.0
 30
0.0
  3
*Paper_Space0
  1

  0
ENDBLK
  5
25
330
23
100
AcDbEntity
  8
0
100
AcDbBlockEnd
  0
ENDSEC
  0
SECTION
  2
ENTITIES
  0
SPLINE
  5
41
330
1F
100
AcDbEntity
  8
Ebene 1
 62
   242
370
     9
100
AcDbSpline
210
0.0
220
0.0
230
1.0
 70
    11
 71
     3
 72
    20
 73
    16
 74
     0
 42
0.0000000001
 43
0.0000000001
 12
1.0
 22
0.0
 32
0.0
 13
1.0
 23
0.0
 33
0.0
 40
0.0
 40
0.0
 40
0.0
 40
0.0
 40
0.2
 40
0.2
 40
0.2
 40
0.2
 40
0.4
 40
0.4
 40
0.4
 40
0.4
 40
0.6
 40
0.6
 40
0.6
 40
0.6
 40
1.0
 40
1.0
 40
1.0
 40
1.0
 10
38.375
 20
62.0906
 30
0.0
 10
38.375
 20
61.7049
 30
0.0
 10
38.0444
 20
61.3743
 30
0.0
 10
37.6587
 20
61.3743
 30
0.0
 10
37.6587
 20
61.3743
 30
0.0
 10
37.273
 20
61.3743
 30
0.0
 10
36.9424
 20
61.7049
 30
0.0
 10
36.9424
 20
62.0906
 30
0.0
 10
36.9424
 20
62.0906
 30
0.0
 10
36.9424
 20
62.4946
 30
0.0
 10
37.273
 20
62.8069
 30
0.0
 10
37.6587
 20
62.8069
 30
0.0
 10
37.6587
 20
62.8069
 30
0.0
 10
38.0444
 20
62.8069
 30
0.0
 10
38.375
 20
62.4946
 30
0.0
 10
38.375
 20
62.0906
 30
0.0
  0
SPLINE
  5
42
330
1F
100
AcDbEntity
  8
Ebene 1
 62
   242
370
     9
100
AcDbSpline
210
0.0
220
0.0
230
1.0
 70
    11
 71
     3
 72
    20
 73
    16
 74
     0
 42
0.0000000001
 43
0.0000000001
 12
1.0
 22
0.0
 32
0.0
 13
1.0
 23
0.0
 33
0.0
 40
0.0
 40
0.0
 40
0.0
 40
0.0
 40
0.2
 40
0.2
 40
0.2
 40
0.2
 40
0.4
 40
0.4
 40
0.4
 40
0.4
 40
0.6
 40
0.6
 40
0.6
 40
0.6
 40
1.0
 40
1.0
 40
1.0
 40
1.0
 10
38.375
 20
67.4537
 30
0.0
 10
38.375
 20
67.0496
 30
0.0
 10
38.0627
 20
66.7374
 30
0.0
 10
37.677
 20
66.7374
 30
0.0
 10
37.677
 20
66.7374
 30
0.0
 10
37.273
 20
66.7374
 30
0.0
 10
36.9607
 20
67.0496
 30
0.0
 10
36.9607
 20
67.4537
 30
0.0
 10
36.9607
 20
67.4537
 30
0.0
 10
36.9607
 20
67.8394
 30
0.0
 10
37.273
 20
68.1516
 30
0.0
 10
37.677
 20
68.1516
 30
0.0
 10
37.677
 20
68.1516
 30
0.0
 10
38.0627
 20
68.1516
 30
0.0
 10
38.375
 20
67.8394
 30
0.0
 10
38.375
 20
67.4537
 30
0.0
  0
SPLINE
  5
43
330
1F
100
AcDbEntity
  8
Ebene 1
 62
   242
370
     9
100
AcDbSpline
210
0.0
220
0.0
230
1.0
 70
    11
 71
     3
 72
    92
 73
    88
 74
     0
 42
0.0000000001
 43
0.0000000001
 12
1.0
 22
0.0
 32
0.0
 13
1.0
 23
0.0
 33
0.0
 40
0.0
 40
0.0
 40
0.0
 40
0.0
 40
0.0434782608695652
 40
0.0434782608695652
 40
0.0434782608695652
 40
0.0434782608695652
 40
0.0869565217391304
 40
0.0869565217391304
 40
0.0869565217391304
 40
0.0869565217391304
 40
0.1304347826086956
 40
0.1304347826086956
 40
0.1304347826086956
 40
0.1304347826086956
 40
0.1739130434782609
 40
0.1739130434782609
 40
0.1739130434782609
 40
0.1739130434782609
 40
0.2173913043478261
 40
0.2173913043478261
 40
0.2173913043478261
 40
0.2173913043478261
 40
0.2608695652173913
 40
0.2608695652173913
 40
0.2608695652173913
 40
0.2608695652173913
 40
0.3043478260869565
 40
0.3043478260869565
 40
0.3043478260869565
 40
0.3043478260869565
 40
0.3478260869565217
 40
0.3478260869565217
 40
0.3478260869565217
 40
0.3478260869565217
 40
0.391304347826087
 40
0.391304347826087
 40
0.391304347826087
 40
0.391304347826087
 40
0.4347826086956522
 40
0.4347826086956522
 40
0.4347826086956522
 40
0.4347826086956522
 40
0.4782608695652174
 40
0.4782608695652174
 40
0.4782608695652174
 40
0.4782608695652174
 40
0.5217391304347826
 40
0.5217391304347826
 40
0.5217391304347826
 40
0.5217391304347826
 40
0.5652173913043478
 40
0.5652173913043478
 40
0.5652173913043478
 40
0.5652173913043478
 40
0.6086956521739131
 40
0.6086956521739131
 40
0.6086956521739131
 40
0.6086956521739131
 40
0.6521739130434783
 40
0.6521739130434783
 40
0.6521739130434783
 40
0.6521739130434783
 40
0.6956521739130435
 40
0.6956521739130435
 40
0.6956521739130435
 40
0.6956521739130435
 40
0.7391304347826086
 40
0.7391304347826086
 40
0.7391304347826086
 40
0.7391304347826086
 40
0.782608695652174
 40
0.782608695652174
 40
0.782608695652174
 40
0.782608695652174
 40
0.8260869565217391
 40
0.8260869565217391
 40
0.8260869565217391
 40
0.8260869565217391
 40
0.8695652173913043
 40
0.8695652173913043
 40
0.8695652173913043
 40
0.8695652173913043
 40
0.9130434782608695
 40
0.9130434782608695
 40
0.9130434782608695
 40
0.9130434782608695
 40
1.0
 40
1.0
 40
1.0
 40
1.0
 10
34.0221
 20
73.3127
 30
0.0
 10
34.7567
 20
74.0657
 30
0.0
 10
35.9322
 20
74.3045
 30
0.0
 10
36.9056
 20
73.9004
 30
0.0
 10
36.9056
 20
73.9004
 30
0.0
 10
37.3464
 20
73.7351
 30
0.0
 10
37.6403
 20
73.5147
 30
0.0
 10
37.9525
 20
73.1657
 30
0.0
 10
37.9525
 20
73.1657
 30
0.0
 10
38.5954
 20
72.4862
 30
0.0
 10
38.7607
 20
71.4209
 30
0.0
 10
38.5035
 20
70.5393
 30
0.0
 10
38.5035
 20
70.5393
 30
0.0
 10
38.4484
 20
70.3189
 30
0.0
 10
38.3015
 20
70.025
 30
0.0
 10
38.1729
 20
69.8414
 30
0.0
 10
38.1729
 20
69.8414
 30
0.0
 10
38.1362
 20
69.7679
 30
0.0
 10
38.0076
 20
69.621
 30
0.0
 10
38.026
 20
69.5475
 30
0.0
 10
38.026
 20
69.5475
 30
0.0
 10
38.0627
 20
69.474
 30
0.0
 10
38.3015
 20
69.2352
 30
0.0
 10
38.375
 20
69.1801
 30
0.0
 10
38.375
 20
69.1801
 30
0.0
 10
38.375
 20
69.1801
 30
0.0
 10
39.128
 20
68.3904
 30
0.0
 10
39.128
 20
68.3904
 30
0.0
 10
39.128
 20
68.3904
 30
0.0
 10
39.6056
 20
67.8945
 30
0.0
 10
40.3402
 20
66.9761
 30
0.0
 10
40.7627
 20
66.4068
 30
0.0
 10
40.7627
 20
66.4068
 30
0.0
 10
40.928
 20
66.1864
 30
0.0
 10
41.3137
 20
65.6905
 30
0.0
 10
41.4055
 20
65.4517
 30
0.0
 10
41.4055
 20
65.4517
 30
0.0
 10
41.4055
 20
65.4517
 30
0.0
 10
13.4145
 20
65.4517
 30
0.0
 10
13.4145
 20
65.4517
 30
0.0
 10
13.4145
 20
65.4517
 30
0.0
 10
13.4145
 20
65.4517
 30
0.0
 10
13.4145
 20
66.6639
 30
0.0
 10
13.4145
 20
66.6639
 30
0.0
 10
13.4145
 20
66.6639
 30
0.0
 10
13.4145
 20
66.6639
 30
0.0
 10
19.2919
 20
66.6639
 30
0.0
 10
19.2919
 20
66.6639
 30
0.0
 10
19.2919
 20
66.6639
 30
0.0
 10
19.2919
 20
66.6639
 30
0.0
 10
19.6592
 20
66.6455
 30
0.0
 10
19.6592
 20
66.6455
 30
0.0
 10
19.6592
 20
66.6455
 30
0.0
 10
19.6592
 20
66.6455
 30
0.0
 10
24.2877
 20
66.6455
 30
0.0
 10
24.2877
 20
66.6455
 30
0.0
 10
24.2877
 20
66.6455
 30
0.0
 10
24.3795
 20
66.6455
 30
0.0
 10
24.6183
 20
66.6455
 30
0.0
 10
24.6917
 20
66.7006
 30
0.0
 10
24.6917
 20
66.7006
 30
0.0
 10
24.7468
 20
66.7557
 30
0.0
 10
24.7652
 20
66.8843
 30
0.0
 10
24.7836
 20
66.9578
 30
0.0
 10
24.7836
 20
66.9578
 30
0.0
 10
24.7836
 20
66.9578
 30
0.0
 10
24.9489
 20
67.5271
 30
0.0
 10
24.9489
 20
67.5271
 30
0.0
 10
24.9489
 20
67.5271
 30
0.0
 10
25.2611
 20
68.4271
 30
0.0
 10
25.5733
 20
69.2169
 30
0.0
 10
26.106
 20
70.025
 30
0.0
 10
26.106
 20
70.025
 30
0.0
 10
26.9508
 20
71.3474
 30
0.0
 10
28.1447
 20
72.3392
 30
0.0
 10
29.6875
 20
72.7249
 30
0.0
 10
29.6875
 20
72.7249
 30
0.0
 10
30.2752
 20
72.8719
 30
0.0
 10
30.7711
 20
72.9086
 30
0.0
 10
31.3589
 20
72.8902
 30
0.0
 10
31.3589
 20
72.8902
 30
0.0
 10
31.8915
 20
72.8902
 30
0.0
 10
32.9751
 20
72.6882
 30
0.0
 10
33.4527
 20
72.4862
 30
0.0
 10
33.4527
 20
72.4862
 30
0.0
 10
33.5445
 20
72.78
 30
0.0
 10
33.8017
 20
73.1106
 30
0.0
 10
34.0221
 20
73.3127
 30
0.0
  0
SPLINE
  5
44
330
1F
100
AcDbEntity
  8
Ebene 1
 62
   242
370
     9
100
AcDbSpline
210
0.0
220
0.0
230
1.0
 70
    11
 71
     3
 72
    52
 73
    48
 74
     0
 42
0.0000000001
 43
0.0000000001
 12
1.0
 22
0.0
 32
0.0
 13
1.0
 23
0.0
 33
0.0
 40
0.0
 40
0.0
 40
0.0
 40
0.0
 40
0.0769230769230769
 40
0.0769230769230769
 40
0.0769230769230769
 40
0.0769230769230769
 40
0.1538461538461539
 40
0.1538461538461539
 40
0.1538461538461539
 40
0.1538461538461539
 40
0.2307692307692308
 40
0.2307692307692308
 40
0.2307692307692308
 40
0.2307692307692308
 40
0.3076923076923077
 40
0.3076923076923077
 40
0.3076923076923077
 40
0.3076923076923077
 40
0.3846153846153846
 40
0.3846153846153846
 40
0.3846153846153846
 40
0.3846153846153846
 40
0.4615384615384616
 40
0.4615384615384616
 40
0.4615384615384616
 40
0.4615384615384616
 40
0.5384615384615384
 40
0.5384615384615384
 40
0.5384615384615384
 40
0.5384615384615384
 40
0.6153846153846154
 40
0.6153846153846154
 40
0.6153846153846154
 40
0.6153846153846154
 40
0.6923076923076923
 40
0.6923076923076923
 40
0.6923076923076923
 40
0.6923076923076923
 40
0.7692307692307693
 40
0.7692307692307693
 40
0.7692307692307693
 40
0.7692307692307693
 40
0.8461538461538461
 40
0.8461538461538461
 40
0.8461538461538461
 40
0.8461538461538461
 40
1.0
 40
1.0
 40
1.0
 40
1.0
 10
16.2246
 20
71.9168
 30
0.0
 10
16.2246
 20
71.9168
 30
0.0
 10
16.2246
 20
71.3107
 30
0.0
 10
16.2246
 20
71.3107
 30
0.0
 10
16.2246
 20
71.3107
 30
0.0
 10
16.2246
 20
71.3107
 30
0.0
 10
14.4982
 20
71.3107
 30
0.0
 10
14.4982
 20
71.3107
 30
0.0
 10
14.4982
 20
71.3107
 30
0.0
 10
14.4982
 20
71.3107
 30
0.0
 10
14.4982
 20
70.3373
 30
0.0
 10
14.4982
 20
70.3373
 30
0.0
 10
14.4982
 20
70.3373
 30
0.0
 10
14.4982
 20
70.3373
 30
0.0
 10
15.7471
 20
70.3373
 30
0.0
 10
15.7471
 20
70.3373
 30
0.0
 10
15.7471
 20
70.3373
 30
0.0
 10
16.1328
 20
70.3373
 30
0.0
 10
16.1512
 20
70.374
 30
0.0
 10
16.1512
 20
70.1536
 30
0.0
 10
16.1512
 20
70.1536
 30
0.0
 10
16.1512
 20
70.0618
 30
0.0
 10
16.1879
 20
69.8046
 30
0.0
 10
16.1144
 20
69.7679
 30
0.0
 10
16.1144
 20
69.7679
 30
0.0
 10
16.0777
 20
69.7312
 30
0.0
 10
15.9859
 20
69.7312
 30
0.0
 10
15.9308
 20
69.7312
 30
0.0
 10
15.9308
 20
69.7312
 30
0.0
 10
15.9308
 20
69.7312
 30
0.0
 10
14.4982
 20
69.7312
 30
0.0
 10
14.4982
 20
69.7312
 30
0.0
 10
14.4982
 20
69.7312
 30
0.0
 10
14.4982
 20
69.7312
 30
0.0
 10
14.4982
 20
68.2251
 30
0.0
 10
14.4982
 20
68.2251
 30
0.0
 10
14.4982
 20
68.2251
 30
0.0
 10
14.4982
 20
68.2251
 30
0.0
 10
13.7819
 20
68.2251
 30
0.0
 10
13.7819
 20
68.2251
 30
0.0
 10
13.7819
 20
68.2251
 30
0.0
 10
13.7819
 20
68.2251
 30
0.0
 10
13.7819
 20
71.9168
 30
0.0
 10
13.7819
 20
71.9168
 30
0.0
 10
13.7819
 20
71.9168
 30
0.0
 10
13.7819
 20
71.9168
 30
0.0
 10
16.2246
 20
71.9168
 30
0.0
 10
16.2246
 20
71.9168
 30
0.0
  0
SPLINE
  5
45
330
1F
100
AcDbEntity
  8
Ebene 1
 62
   242
370
     9
100
AcDbSpline
210
0.0
220
0.0
230
1.0
 70
    11
 71
     3
 72
    28
 73
    24
 74
     0
 42
0.0000000001
 43
0.0000000001
 12
1.0
 22
0.0
 32
0.0
 13
1.0
 23
0.0
 33
0.0
 40
0.0
 40
0.0
 40
0.0
 40
0.0
 40
0.1428571428571428
 40
0.1428571428571428
 40
0.1428571428571428
 40
0.1428571428571428
 40
0.2857142857142857
 40
0.2857142857142857
 40
0.2857142857142857
 40
0.2857142857142857
 40
0.4285714285714285
 40
0.4285714285714285
 40
0.4285714285714285
 40
0.4285714285714285
 40
0.5714285714285714
 40
0.5714285714285714
 40
0.5714285714285714
 40
0.5714285714285714
 40
0.7142857142857143
 40
0.7142857142857143
 40
0.7142857142857143
 40
0.7142857142857143
 40
1.0
 40
1.0
 40
1.0
 40
1.0
 10
17.6389
 20
71.9168
 30
0.0
 10
17.6389
 20
71.9168
 30
0.0
 10
17.6389
 20
68.8679
 30
0.0
 10
17.6389
 20
68.8679
 30
0.0
 10
17.6389
 20
68.8679
 30
0.0
 10
17.6389
 20
68.8679
 30
0.0
 10
19.3654
 20
68.8679
 30
0.0
 10
19.3654
 20
68.8679
 30
0.0
 10
19.3654
 20
68.8679
 30
0.0
 10
19.3654
 20
68.8679
 30
0.0
 10
19.3654
 20
68.2251
 30
0.0
 10
19.3654
 20
68.2251
 30
0.0
 10
19.3654
 20
68.2251
 30
0.0
 10
19.3654
 20
68.2251
 30
0.0
 10
16.9226
 20
68.2251
 30
0.0
 10
16.9226
 20
68.2251
 30
0.0
 10
16.9226
 20
68.2251
 30
0.0
 10
16.9226
 20
68.2251
 30
0.0
 10
16.9226
 20
71.9168
 30
0.0
 10
16.9226
 20
71.9168
 30
0.0
 10
16.9226
 20
71.9168
 30
0.0
 10
16.9226
 20
71.9168
 30
0.0
 10
17.6389
 20
71.9168
 30
0.0
 10
17.6389
 20
71.9168
 30
0.0
  0
SPLINE
  5
46
330
1F
100
AcDbEntity
  8
Ebene 1
 62
   242
370
     9
100
AcDbSpline
210
0.0
220
0.0
230
1.0
 70
    11
 71
     3
 72
    24
 73
    20
 74
     0
 42
0.0000000001
 43
0.0000000001
 12
1.0
 22
0.0
 32
0.0
 13
1.0
 23
0.0
 33
0.0
 40
0.0
 40
0.0
 40
0.0
 40
0.0
 40
0.1666666666666667
 40
0.1666666666666667
 40
0.1666666666666667
 40
0.1666666666666667
 40
0.3333333333333333
 40
0.3333333333333333
 40
0.3333333333333333
 40
0.3333333333333333
 40
0.5
 40
0.5
 40
0.5
 40
0.5
 40
0.6666666666666666
 40
0.6666666666666666
 40
0.6666666666666666
 40
0.6666666666666666
 40
1.0
 40
1.0
 40
1.0
 40
1.0
 10
20.5959
 20
71.9168
 30
0.0
 10
20.5959
 20
71.9168
 30
0.0
 10
20.5592
 20
71.4209
 30
0.0
 10
20.5592
 20
71.4209
 30
0.0
 10
20.5592
 20
71.4209
 30
0.0
 10
20.5592
 20
71.4209
 30
0.0
 10
20.3755
 20
71.3842
 30
0.0
 10
20.3755
 20
71.3842
 30
0.0
 10
20.3755
 20
71.3842
 30
0.0
 10
20.3755
 20
71.3842
 30
0.0
 10
19.9531
 20
71.3842
 30
0.0
 10
19.9531
 20
71.3842
 30
0.0
 10
19.9531
 20
71.3842
 30
0.0
 10
19.9531
 20
71.3842
 30
0.0
 10
19.9531
 20
71.9168
 30
0.0
 10
19.9531
 20
71.9168
 30
0.0
 10
19.9531
 20
71.9168
 30
0.0
 10
19.9531
 20
71.9168
 30
0.0
 10
20.5959
 20
71.9168
 30
0.0
 10
20.5959
 20
71.9168
 30
0.0
  0
SPLINE
  5
47
330
1F
100
AcDbEntity
  8
Ebene 1
 62
   242
370
     9
100
AcDbSpline
210
0.0
220
0.0
230
1.0
 70
    11
 71
     3
 72
    64
 73
    60
 74
     0
 42
0.0000000001
 43
0.0000000001
 12
1.0
 22
0.0
 32
0.0
 13
1.0
 23
0.0
 33
0.0
 40
0.0
 40
0.0
 40
0.0
 40
0.0
 40
0.0625
 40
0.0625
 40
0.0625
 40
0.0625
 40
0.125
 40
0.125
 40
0.125
 40
0.125
 40
0.1875
 40
0.1875
 40
0.1875
 40
0.1875
 40
0.25
 40
0.25
 40
0.25
 40
0.25
 40
0.3125
 40
0.3125
 40
0.3125
 40
0.3125
 40
0.375
 40
0.375
 40
0.375
 40
0.375
 40
0.4375
 40
0.4375
 40
0.4375
 40
0.4375
 40
0.5
 40
0.5
 40
0.5
 40
0.5
 40
0.5625
 40
0.5625
 40
0.5625
 40
0.5625
 40
0.625
 40
0.625
 40
0.625
 40
0.625
 40
0.6875
 40
0.6875
 40
0.6875
 40
0.6875
 40
0.75
 40
0.75
 40
0.75
 40
0.75
 40
0.8125
 40
0.8125
 40
0.8125
 40
0.8125
 40
0.875
 40
0.875
 40
0.875
 40
0.875
 40
1.0
 40
1.0
 40
1.0
 40
1.0
 10
22.3591
 20
70.7413
 30
0.0
 10
22.7448
 20
70.9434
 30
0.0
 10
23.4979
 20
70.9066
 30
0.0
 10
23.7367
 20
70.4842
 30
0.0
 10
23.7367
 20
70.4842
 30
0.0
 10
23.9387
 20
70.1536
 30
0.0
 10
23.9203
 20
69.4189
 30
0.0
 10
23.8652
 20
69.0332
 30
0.0
 10
23.8652
 20
69.0332
 30
0.0
 10
23.8469
 20
68.8495
 30
0.0
 10
23.7918
 20
68.6108
 30
0.0
 10
23.6816
 20
68.4638
 30
0.0
 10
23.6816
 20
68.4638
 30
0.0
 10
23.4428
 20
68.1516
 30
0.0
 10
22.6897
 20
68.1332
 30
0.0
 10
22.3591
 20
68.3169
 30
0.0
 10
22.3591
 20
68.3169
 30
0.0
 10
22.2306
 20
68.3904
 30
0.0
 10
22.1755
 20
68.4822
 30
0.0
 10
22.102
 20
68.5924
 30
0.0
 10
22.102
 20
68.5924
 30
0.0
 10
22.102
 20
68.5924
 30
0.0
 10
22.102
 20
67.1047
 30
0.0
 10
22.102
 20
67.1047
 30
0.0
 10
22.102
 20
67.1047
 30
0.0
 10
22.102
 20
67.1047
 30
0.0
 10
21.6061
 20
67.1047
 30
0.0
 10
21.6061
 20
67.1047
 30
0.0
 10
21.6061
 20
67.1047
 30
0.0
 10
21.5694
 20
67.1047
 30
0.0
 10
21.4959
 20
67.1047
 30
0.0
 10
21.4592
 20
67.1414
 30
0.0
 10
21.4592
 20
67.1414
 30
0.0
 10
21.4408
 20
67.1782
 30
0.0
 10
21.4408
 20
67.27
 30
0.0
 10
21.4408
 20
67.3251
 30
0.0
 10
21.4408
 20
67.3251
 30
0.0
 10
21.4408
 20
67.3251
 30
0.0
 10
21.4408
 20
70.6128
 30
0.0
 10
21.4408
 20
70.6128
 30
0.0
 10
21.4408
 20
70.6128
 30
0.0
 10
21.4408
 20
70.6679
 30
0.0
 10
21.4408
 20
70.7597
 30
0.0
 10
21.4592
 20
70.7964
 30
0.0
 10
21.4592
 20
70.7964
 30
0.0
 10
21.4959
 20
70.8332
 30
0.0
 10
21.6061
 20
70.8332
 30
0.0
 10
21.6612
 20
70.8332
 30
0.0
 10
21.6612
 20
70.8332
 30
0.0
 10
21.6612
 20
70.8332
 30
0.0
 10
21.9183
 20
70.8332
 30
0.0
 10
21.9183
 20
70.8332
 30
0.0
 10
21.9183
 20
70.8332
 30
0.0
 10
22.1938
 20
70.8332
 30
0.0
 10
22.0285
 20
70.723
 30
0.0
 10
22.102
 20
70.4658
 30
0.0
 10
22.102
 20
70.4658
 30
0.0
 10
22.1571
 20
70.5944
 30
0.0
 10
22.2306
 20
70.6679
 30
0.0
 10
22.3591
 20
70.7413
 30
0.0
  0
SPLINE
  5
48
330
1F
100
AcDbEntity
  8
Ebene 1
 62
   242
370
     9
100
AcDbSpline
210
0.0
220
0.0
230
1.0
 70
    11
 71
     3
 72
    28
 73
    24
 74
     0
 42
0.0000000001
 43
0.0000000001
 12
1.0
 22
0.0
 32
0.0
 13
1.0
 23
0.0
 33
0.0
 40
0.0
 40
0.0
 40
0.0
 40
0.0
 40
0.1428571428571428
 40
0.1428571428571428
 40
0.1428571428571428
 40
0.1428571428571428
 40
0.2857142857142857
 40
0.2857142857142857
 40
0.2857142857142857
 40
0.2857142857142857
 40
0.4285714285714285
 40
0.4285714285714285
 40
0.4285714285714285
 40
0.4285714285714285
 40
0.5714285714285714
 40
0.5714285714285714
 40
0.5714285714285714
 40
0.5714285714285714
 40
0.7142857142857143
 40
0.7142857142857143
 40
0.7142857142857143
 40
0.7142857142857143
 40
1.0
 40
1.0
 40
1.0
 40
1.0
 10
20.4123
 20
70.8332
 30
0.0
 10
20.4123
 20
70.8332
 30
0.0
 10
20.5592
 20
70.7964
 30
0.0
 10
20.5592
 20
70.7964
 30
0.0
 10
20.5592
 20
70.7964
 30
0.0
 10
20.5592
 20
70.7964
 30
0.0
 10
20.5959
 20
70.6128
 30
0.0
 10
20.5959
 20
70.6128
 30
0.0
 10
20.5959
 20
70.6128
 30
0.0
 10
20.5959
 20
70.6128
 30
0.0
 10
20.5959
 20
68.2251
 30
0.0
 10
20.5959
 20
68.2251
 30
0.0
 10
20.5959
 20
68.2251
 30
0.0
 10
20.5959
 20
68.2251
 30
0.0
 10
19.9531
 20
68.2251
 30
0.0
 10
19.9531
 20
68.2251
 30
0.0
 10
19.9531
 20
68.2251
 30
0.0
 10
19.9531
 20
68.2251
 30
0.0
 10
19.9531
 20
70.8332
 30
0.0
 10
19.9531
 20
70.8332
 30
0.0
 10
19.9531
 20
70.8332
 30
0.0
 10
19.9531
 20
70.8332
 30
0.0
 10
20.4123
 20
70.8332
 30
0.0
 10
20.4123
 20
70.8332
 30
0.0
  0
SPLINE
  5
49
330
1F
100
AcDbEntity
  8
Ebene 1
 62
   242
370
     9
100
AcDbSpline
210
0.0
220
0.0
230
1.0
 70
    11
 71
     3
 72
    36
 73
    32
 74
     0
 42
0.0000000001
 43
0.0000000001
 12
1.0
 22
0.0
 32
0.0
 13
1.0
 23
0.0
 33
0.0
 40
0.0
 40
0.0
 40
0.0
 40
0.0
 40
0.1111111111111111
 40
0.1111111111111111
 40
0.1111111111111111
 40
0.1111111111111111
 40
0.2222222222222222
 40
0.2222222222222222
 40
0.2222222222222222
 40
0.2222222222222222
 40
0.3333333333333333
 40
0.3333333333333333
 40
0.3333333333333333
 40
0.3333333333333333
 40
0.4444444444444444
 40
0.4444444444444444
 40
0.4444444444444444
 40
0.4444444444444444
 40
0.5555555555555556
 40
0.5555555555555556
 40
0.5555555555555556
 40
0.5555555555555556
 40
0.6666666666666666
 40
0.6666666666666666
 40
0.6666666666666666
 40
0.6666666666666666
 40
0.7777777777777778
 40
0.7777777777777778
 40
0.7777777777777778
 40
0.7777777777777778
 40
1.0
 40
1.0
 40
1.0
 40
1.0
 10
22.1204
 20
69.7863
 30
0.0
 10
22.1204
 20
69.5291
 30
0.0
 10
22.0653
 20
68.9781
 30
0.0
 10
22.2673
 20
68.7944
 30
0.0
 10
22.2673
 20
68.7944
 30
0.0
 10
22.3591
 20
68.7393
 30
0.0
 10
22.4693
 20
68.7026
 30
0.0
 10
22.5795
 20
68.7026
 30
0.0
 10
22.5795
 20
68.7026
 30
0.0
 10
22.653
 20
68.6842
 30
0.0
 10
22.7448
 20
68.6842
 30
0.0
 10
22.8183
 20
68.7026
 30
0.0
 10
22.8183
 20
68.7026
 30
0.0
 10
22.9285
 20
68.7026
 30
0.0
 10
23.0387
 20
68.7393
 30
0.0
 10
23.1122
 20
68.7944
 30
0.0
 10
23.1122
 20
68.7944
 30
0.0
 10
23.2959
 20
68.9597
 30
0.0
 10
23.2591
 20
69.474
 30
0.0
 10
23.2591
 20
69.7128
 30
0.0
 10
23.2591
 20
69.7128
 30
0.0
 10
23.2591
 20
69.8414
 30
0.0
 10
23.2408
 20
70.0985
 30
0.0
 10
23.1489
 20
70.1903
 30
0.0
 10
23.1489
 20
70.1903
 30
0.0
 10
23.0204
 20
70.374
 30
0.0
 10
22.6897
 20
70.3556
 30
0.0
 10
22.4877
 20
70.3373
 30
0.0
 10
22.4877
 20
70.3373
 30
0.0
 10
22.1755
 20
70.2822
 30
0.0
 10
22.1204
 20
70.0801
 30
0.0
 10
22.1204
 20
69.7863
 30
0.0
  0
SPLINE
  5
4A
330
1F
100
AcDbEntity
  8
Ebene 1
 62
   242
370
     9
100
AcDbSpline
210
0.0
220
0.0
230
1.0
 70
    11
 71
     3
 72
   100
 73
    96
 74
     0
 42
0.0000000001
 43
0.0000000001
 12
1.0
 22
0.0
 32
0.0
 13
1.0
 23
0.0
 33
0.0
 40
0.0
 40
0.0
 40
0.0
 40
0.0
 40
0.04
 40
0.04
 40
0.04
 40
0.04
 40
0.08
 40
0.08
 40
0.08
 40
0.08
 40
0.12
 40
0.12
 40
0.12
 40
0.12
 40
0.16
 40
0.16
 40
0.16
 40
0.16
 40
0.2
 40
0.2
 40
0.2
 40
0.2
 40
0.24
 40
0.24
 40
0.24
 40
0.24
 40
0.28
 40
0.28
 40
0.28
 40
0.28
 40
0.32
 40
0.32
 40
0.32
 40
0.32
 40
0.36
 40
0.36
 40
0.36
 40
0.36
 40
0.4
 40
0.4
 40
0.4
 40
0.4
 40
0.44
 40
0.44
 40
0.44
 40
0.44
 40
0.48
 40
0.48
 40
0.48
 40
0.48
 40
0.52
 40
0.52
 40
0.52
 40
0.52
 40
0.56
 40
0.56
 40
0.56
 40
0.56
 40
0.6
 40
0.6
 40
0.6
 40
0.6
 40
0.64
 40
0.64
 40
0.64
 40
0.64
 40
0.68
 40
0.68
 40
0.68
 40
0.68
 40
0.72
 40
0.72
 40
0.72
 40
0.72
 40
0.76
 40
0.76
 40
0.76
 40
0.76
 40
0.8
 40
0.8
 40
0.8
 40
0.8
 40
0.84
 40
0.84
 40
0.84
 40
0.84
 40
0.88
 40
0.88
 40
0.88
 40
0.88
 40
0.92
 40
0.92
 40
0.92
 40
0.92
 40
1.0
 40
1.0
 40
1.0
 40
1.0
 10
5.3331
 20
63.8538
 30
0.0
 10
5.3331
 20
63.8538
 30
0.0
 10
5.7372
 20
63.817
 30
0.0
 10
5.7372
 20
63.817
 30
0.0
 10
5.7372
 20
63.817
 30
0.0
 10
5.7372
 20
63.817
 30
0.0
 10
24.306
 20
63.817
 30
0.0
 10
24.306
 20
63.817
 30
0.0
 10
24.306
 20
63.817
 30
0.0
 10
24.306
 20
63.817
 30
0.0
 10
24.6734
 20
63.8538
 30
0.0
 10
24.6734
 20
63.8538
 30
0.0
 10
24.6734
 20
63.8538
 30
0.0
 10
24.6734
 20
63.8538
 30
0.0
 10
41.4055
 20
63.8538
 30
0.0
 10
41.4055
 20
63.8538
 30
0.0
 10
41.4055
 20
63.8538
 30
0.0
 10
41.3137
 20
63.6334
 30
0.0
 10
40.9831
 20
63.1926
 30
0.0
 10
40.8178
 20
62.9722
 30
0.0
 10
40.8178
 20
62.9722
 30
0.0
 10
40.3586
 20
62.3293
 30
0.0
 10
39.679
 20
61.5028
 30
0.0
 10
39.1464
 20
60.9335
 30
0.0
 10
39.1464
 20
60.9335
 30
0.0
 10
39.1464
 20
60.9335
 30
0.0
 10
38.4117
 20
60.1804
 30
0.0
 10
38.4117
 20
60.1804
 30
0.0
 10
38.4117
 20
60.1804
 30
0.0
 10
38.3566
 20
60.107
 30
0.0
 10
38.0995
 20
59.8682
 30
0.0
 10
38.0811
 20
59.8131
 30
0.0
 10
38.0811
 20
59.8131
 30
0.0
 10
38.0444
 20
59.7213
 30
0.0
 10
38.1546
 20
59.5927
 30
0.0
 10
38.2097
 20
59.5192
 30
0.0
 10
38.2097
 20
59.5192
 30
0.0
 10
38.3382
 20
59.2988
 30
0.0
 10
38.4668
 20
59.0049
 30
0.0
 10
38.5403
 20
58.7662
 30
0.0
 10
38.5403
 20
58.7662
 30
0.0
 10
38.7607
 20
57.8662
 30
0.0
 10
38.5586
 20
56.856
 30
0.0
 10
37.9158
 20
56.1765
 30
0.0
 10
37.9158
 20
56.1765
 30
0.0
 10
37.6587
 20
55.9377
 30
0.0
 10
37.475
 20
55.7724
 30
0.0
 10
37.1628
 20
55.6071
 30
0.0
 10
37.1628
 20
55.6071
 30
0.0
 10
36.1342
 20
55.0745
 30
0.0
 10
34.8669
 20
55.2581
 30
0.0
 10
34.0404
 20
56.0663
 30
0.0
 10
34.0404
 20
56.0663
 30
0.0
 10
33.8568
 20
56.2499
 30
0.0
 10
33.5813
 20
56.5622
 30
0.0
 10
33.5078
 20
56.8193
 30
0.0
 10
33.5078
 20
56.8193
 30
0.0
 10
33.5078
 20
56.8193
 30
0.0
 10
33.2139
 20
56.7275
 30
0.0
 10
33.2139
 20
56.7275
 30
0.0
 10
33.2139
 20
56.7275
 30
0.0
 10
33.2139
 20
56.7275
 30
0.0
 10
32.3323
 20
56.5071
 30
0.0
 10
32.3323
 20
56.5071
 30
0.0
 10
32.3323
 20
56.5071
 30
0.0
 10
31.4507
 20
56.3418
 30
0.0
 10
30.6242
 20
56.3601
 30
0.0
 10
29.7426
 20
56.5622
 30
0.0
 10
29.7426
 20
56.5622
 30
0.0
 10
27.5753
 20
57.0397
 30
0.0
 10
26.1611
 20
58.8213
 30
0.0
 10
25.3162
 20
60.7498
 30
0.0
 10
25.3162
 20
60.7498
 30
0.0
 10
25.1509
 20
61.1539
 30
0.0
 10
24.7836
 20
62.2008
 30
0.0
 10
24.7285
 20
62.6048
 30
0.0
 10
24.7285
 20
62.6048
 30
0.0
 10
24.7285
 20
62.6048
 30
0.0
 10
4.2128
 20
62.6048
 30
0.0
 10
4.2128
 20
62.6048
 30
0.0
 10
4.2128
 20
62.6048
 30
0.0
 10
4.2128
 20
62.6048
 30
0.0
 10
4.2128
 20
62.9538
 30
0.0
 10
4.2128
 20
62.9538
 30
0.0
 10
4.2128
 20
62.9538
 30
0.0
 10
4.2128
 20
62.9538
 30
0.0
 10
4.1944
 20
63.2477
 30
0.0
 10
4.1944
 20
63.2477
 30
0.0
 10
4.1944
 20
63.2477
 30
0.0
 10
4.1944
 20
63.2477
 30
0.0
 10
4.1944
 20
63.8538
 30
0.0
 10
4.1944
 20
63.8538
 30
0.0
 10
4.1944
 20
63.8538
 30
0.0
 10
4.1944
 20
63.8538
 30
0.0
 10
5.3331
 20
63.8538
 30
0.0
 10
5.3331
 20
63.8538
 30
0.0
  0
SPLINE
  5
4B
330
1F
100
AcDbEntity
  8
Ebene 1
 62
   242
370
     9
100
AcDbSpline
210
0.0
220
0.0
230
1.0
 70
    11
 71
     3
 72
    84
 73
    80
 74
     0
 42
0.0000000001
 43
0.0000000001
 12
1.0
 22
0.0
 32
0.0
 13
1.0
 23
0.0
 33
0.0
 40
0.0
 40
0.0
 40
0.0
 40
0.0
 40
0.0476190476190476
 40
0.0476190476190476
 40
0.0476190476190476
 40
0.0476190476190476
 40
0.0952380952380952
 40
0.0952380952380952
 40
0.0952380952380952
 40
0.0952380952380952
 40
0.1428571428571428
 40
0.1428571428571428
 40
0.1428571428571428
 40
0.1428571428571428
 40
0.1904761904761905
 40
0.1904761904761905
 40
0.1904761904761905
 40
0.1904761904761905
 40
0.2380952380952381
 40
0.2380952380952381
 40
0.2380952380952381
 40
0.2380952380952381
 40
0.2857142857142857
 40
0.2857142857142857
 40
0.2857142857142857
 40
0.2857142857142857
 40
0.3333333333333333
 40
0.3333333333333333
 40
0.3333333333333333
 40
0.3333333333333333
 40
0.3809523809523809
 40
0.3809523809523809
 40
0.3809523809523809
 40
0.3809523809523809
 40
0.4285714285714285
 40
0.4285714285714285
 40
0.4285714285714285
 40
0.4285714285714285
 40
0.4761904761904762
 40
0.4761904761904762
 40
0.4761904761904762
 40
0.4761904761904762
 40
0.5238095238095238
 40
0.5238095238095238
 40
0.5238095238095238
 40
0.5238095238095238
 40
0.5714285714285714
 40
0.5714285714285714
 40
0.5714285714285714
 40
0.5714285714285714
 40
0.6190476190476191
 40
0.6190476190476191
 40
0.6190476190476191
 40
0.6190476190476191
 40
0.6666666666666666
 40
0.6666666666666666
 40
0.6666666666666666
 40
0.6666666666666666
 40
0.7142857142857143
 40
0.7142857142857143
 40
0.7142857142857143
 40
0.7142857142857143
 40
0.7619047619047619
 40
0.7619047619047619
 40
0.7619047619047619
 40
0.7619047619047619
 40
0.8095238095238095
 40
0.8095238095238095
 40
0.8095238095238095
 40
0.8095238095238095
 40
0.8571428571428571
 40
0.8571428571428571
 40
0.8571428571428571
 40
0.8571428571428571
 40
0.9047619047619048
 40
0.9047619047619048
 40
0.9047619047619048
 40
0.9047619047619048
 40
1.0
 40
1.0
 40
1.0
 40
1.0
 10
6.8392
 20
61.0804
 30
0.0
 10
7.0045
 20
61.5212
 30
0.0
 10
7.5188
 20
61.5396
 30
0.0
 10
7.9045
 20
61.5763
 30
0.0
 10
7.9045
 20
61.5763
 30
0.0
 10
7.9045
 20
61.5763
 30
0.0
 10
8.1065
 20
61.5763
 30
0.0
 10
8.1065
 20
61.5763
 30
0.0
 10
8.1065
 20
61.5763
 30
0.0
 10
8.3637
 20
61.5579
 30
0.0
 10
8.6575
 20
61.5396
 30
0.0
 10
8.8779
 20
61.3743
 30
0.0
 10
8.8779
 20
61.3743
 30
0.0
 10
9.1534
 20
61.1906
 30
0.0
 10
9.2085
 20
60.6029
 30
0.0
 10
9.2085
 20
60.2906
 30
0.0
 10
9.2085
 20
60.2906
 30
0.0
 10
9.2085
 20
59.96
 30
0.0
 10
9.1902
 20
59.4641
 30
0.0
 10
8.9698
 20
59.207
 30
0.0
 10
8.9698
 20
59.207
 30
0.0
 10
8.8596
 20
59.0784
 30
0.0
 10
8.731
 20
59.0233
 30
0.0
 10
8.5657
 20
58.9682
 30
0.0
 10
8.5657
 20
58.9682
 30
0.0
 10
8.2718
 20
58.8947
 30
0.0
 10
7.7759
 20
58.8947
 30
0.0
 10
7.4821
 20
58.9498
 30
0.0
 10
7.4821
 20
58.9498
 30
0.0
 10
7.3168
 20
58.9866
 30
0.0
 10
7.1331
 20
59.0601
 30
0.0
 10
7.0229
 20
59.1886
 30
0.0
 10
7.0229
 20
59.1886
 30
0.0
 10
6.8208
 20
59.409
 30
0.0
 10
6.8392
 20
59.7213
 30
0.0
 10
6.8208
 20
59.9968
 30
0.0
 10
6.8208
 20
59.9968
 30
0.0
 10
6.8025
 20
60.0886
 30
0.0
 10
6.7657
 20
60.2723
 30
0.0
 10
6.8208
 20
60.3274
 30
0.0
 10
6.8208
 20
60.3274
 30
0.0
 10
6.8576
 20
60.3825
 30
0.0
 10
6.9494
 20
60.3641
 30
0.0
 10
7.0045
 20
60.3641
 30
0.0
 10
7.0045
 20
60.3641
 30
0.0
 10
7.0045
 20
60.3641
 30
0.0
 10
8.3269
 20
60.3641
 30
0.0
 10
8.3269
 20
60.3641
 30
0.0
 10
8.3269
 20
60.3641
 30
0.0
 10
8.382
 20
60.3641
 30
0.0
 10
8.4739
 20
60.3641
 30
0.0
 10
8.529
 20
60.4008
 30
0.0
 10
8.529
 20
60.4008
 30
0.0
 10
8.6024
 20
60.4927
 30
0.0
 10
8.529
 20
60.8416
 30
0.0
 10
8.4555
 20
60.9335
 30
0.0
 10
8.4555
 20
60.9335
 30
0.0
 10
8.3269
 20
61.0988
 30
0.0
 10
8.1065
 20
61.0988
 30
0.0
 10
7.9045
 20
61.0988
 30
0.0
 10
7.9045
 20
61.0988
 30
0.0
 10
7.7759
 20
61.0988
 30
0.0
 10
7.5739
 20
61.0804
 30
0.0
 10
7.5004
 20
60.9518
 30
0.0
 10
7.5004
 20
60.9518
 30
0.0
 10
7.427
 20
60.86
 30
0.0
 10
7.4637
 20
60.7682
 30
0.0
 10
7.3902
 20
60.7314
 30
0.0
 10
7.3902
 20
60.7314
 30
0.0
 10
7.3535
 20
60.7131
 30
0.0
 10
7.2984
 20
60.7131
 30
0.0
 10
7.2617
 20
60.7131
 30
0.0
 10
7.2617
 20
60.7131
 30
0.0
 10
7.2617
 20
60.7131
 30
0.0
 10
6.7841
 20
60.7131
 30
0.0
 10
6.7841
 20
60.7131
 30
0.0
 10
6.7841
 20
60.7131
 30
0.0
 10
6.7841
 20
60.8049
 30
0.0
 10
6.8208
 20
60.9886
 30
0.0
 10
6.8392
 20
61.0804
 30
0.0
  0
SPLINE
  5
4C
330
1F
100
AcDbEntity
  8
Ebene 1
 62
   242
370
     9
100
AcDbSpline
210
0.0
220
0.0
230
1.0
 70
    11
 71
     3
 72
   100
 73
    96
 74
     0
 42
0.0000000001
 43
0.0000000001
 12
1.0
 22
0.0
 32
0.0
 13
1.0
 23
0.0
 33
0.0
 40
0.0
 40
0.0
 40
0.0
 40
0.0
 40
0.04
 40
0.04
 40
0.04
 40
0.04
 40
0.08
 40
0.08
 40
0.08
 40
0.08
 40
0.12
 40
0.12
 40
0.12
 40
0.12
 40
0.16
 40
0.16
 40
0.16
 40
0.16
 40
0.2
 40
0.2
 40
0.2
 40
0.2
 40
0.24
 40
0.24
 40
0.24
 40
0.24
 40
0.28
 40
0.28
 40
0.28
 40
0.28
 40
0.32
 40
0.32
 40
0.32
 40
0.32
 40
0.36
 40
0.36
 40
0.36
 40
0.36
 40
0.4
 40
0.4
 40
0.4
 40
0.4
 40
0.44
 40
0.44
 40
0.44
 40
0.44
 40
0.48
 40
0.48
 40
0.48
 40
0.48
 40
0.52
 40
0.52
 40
0.52
 40
0.52
 40
0.56
 40
0.56
 40
0.56
 40
0.56
 40
0.6
 40
0.6
 40
0.6
 40
0.6
 40
0.64
 40
0.64
 40
0.64
 40
0.64
 40
0.68
 40
0.68
 40
0.68
 40
0.68
 40
0.72
 40
0.72
 40
0.72
 40
0.72
 40
0.76
 40
0.76
 40
0.76
 40
0.76
 40
0.8
 40
0.8
 40
0.8
 40
0.8
 40
0.84
 40
0.84
 40
0.84
 40
0.84
 40
0.88
 40
0.88
 40
0.88
 40
0.88
 40
0.92
 40
0.92
 40
0.92
 40
0.92
 40
1.0
 40
1.0
 40
1.0
 40
1.0
 10
10.4024
 20
59.6662
 30
0.0
 10
10.6411
 20
59.6662
 30
0.0
 10
10.5126
 20
59.5376
 30
0.0
 10
10.6595
 20
59.409
 30
0.0
 10
10.6595
 20
59.409
 30
0.0
 10
10.7697
 20
59.3356
 30
0.0
 10
10.9534
 20
59.3539
 30
0.0
 10
11.0819
 20
59.3539
 30
0.0
 10
11.0819
 20
59.3539
 30
0.0
 10
11.2656
 20
59.3539
 30
0.0
 10
11.5411
 20
59.3907
 30
0.0
 10
11.5595
 20
59.6478
 30
0.0
 10
11.5595
 20
59.6478
 30
0.0
 10
11.5962
 20
59.9968
 30
0.0
 10
11.1738
 20
59.9417
 30
0.0
 10
10.935
 20
59.96
 30
0.0
 10
10.935
 20
59.96
 30
0.0
 10
10.6962
 20
59.96
 30
0.0
 10
10.1452
 20
60.0151
 30
0.0
 10
9.9983
 20
60.1804
 30
0.0
 10
9.9983
 20
60.1804
 30
0.0
 10
9.8697
 20
60.309
 30
0.0
 10
9.833
 20
60.5294
 30
0.0
 10
9.833
 20
60.6947
 30
0.0
 10
9.833
 20
60.6947
 30
0.0
 10
9.833
 20
60.8967
 30
0.0
 10
9.8697
 20
61.1906
 30
0.0
 10
10.035
 20
61.3375
 30
0.0
 10
10.035
 20
61.3375
 30
0.0
 10
10.2371
 20
61.5396
 30
0.0
 10
10.5677
 20
61.5396
 30
0.0
 10
10.8248
 20
61.5579
 30
0.0
 10
10.8248
 20
61.5579
 30
0.0
 10
10.8248
 20
61.5579
 30
0.0
 10
11.0268
 20
61.5947
 30
0.0
 10
11.0268
 20
61.5947
 30
0.0
 10
11.0268
 20
61.5947
 30
0.0
 10
11.137
 20
61.5947
 30
0.0
 10
11.1921
 20
61.5763
 30
0.0
 10
11.3023
 20
61.5579
 30
0.0
 10
11.3023
 20
61.5579
 30
0.0
 10
11.5411
 20
61.5396
 30
0.0
 10
11.8533
 20
61.5396
 30
0.0
 10
12.037
 20
61.3559
 30
0.0
 10
12.037
 20
61.3559
 30
0.0
 10
12.2207
 20
61.1906
 30
0.0
 10
12.2207
 20
60.9335
 30
0.0
 10
12.2207
 20
60.7131
 30
0.0
 10
12.2207
 20
60.7131
 30
0.0
 10
12.2207
 20
60.7131
 30
0.0
 10
11.5595
 20
60.7314
 30
0.0
 10
11.5595
 20
60.7314
 30
0.0
 10
11.5595
 20
60.7314
 30
0.0
 10
11.6697
 20
61.209
 30
0.0
 10
10.935
 20
61.209
 30
0.0
 10
10.6779
 20
61.0804
 30
0.0
 10
10.6779
 20
61.0804
 30
0.0
 10
10.5677
 20
61.0253
 30
0.0
 10
10.4575
 20
60.8967
 30
0.0
 10
10.4942
 20
60.7498
 30
0.0
 10
10.4942
 20
60.7498
 30
0.0
 10
10.5309
 20
60.4376
 30
0.0
 10
10.8983
 20
60.4927
 30
0.0
 10
11.1187
 20
60.4927
 30
0.0
 10
11.1187
 20
60.4927
 30
0.0
 10
11.1187
 20
60.4927
 30
0.0
 10
11.3391
 20
60.4743
 30
0.0
 10
11.3391
 20
60.4743
 30
0.0
 10
11.3391
 20
60.4743
 30
0.0
 10
11.5962
 20
60.4376
 30
0.0
 10
11.9084
 20
60.4376
 30
0.0
 10
12.0737
 20
60.1988
 30
0.0
 10
12.0737
 20
60.1988
 30
0.0
 10
12.1656
 20
60.0886
 30
0.0
 10
12.2023
 20
59.9233
 30
0.0
 10
12.2023
 20
59.7764
 30
0.0
 10
12.2023
 20
59.7764
 30
0.0
 10
12.2023
 20
59.5743
 30
0.0
 10
12.2023
 20
59.2988
 30
0.0
 10
12.037
 20
59.1335
 30
0.0
 10
12.037
 20
59.1335
 30
0.0
 10
11.8533
 20
58.9498
 30
0.0
 10
11.3942
 20
58.9131
 30
0.0
 10
11.1554
 20
58.9131
 30
0.0
 10
11.1554
 20
58.9131
 30
0.0
 10
10.8615
 20
58.9131
 30
0.0
 10
10.2738
 20
58.9131
 30
0.0
 10
10.0901
 20
59.1335
 30
0.0
 10
10.0901
 20
59.1335
 30
0.0
 10
9.9616
 20
59.2621
 30
0.0
 10
9.9248
 20
59.4825
 30
0.0
 10
9.9248
 20
59.6662
 30
0.0
 10
9.9248
 20
59.6662
 30
0.0
 10
9.9248
 20
59.6662
 30
0.0
 10
10.4024
 20
59.6662
 30
0.0
 10
10.4024
 20
59.6662
 30
0.0
  0
SPLINE
  5
4D
330
1F
100
AcDbEntity
  8
Ebene 1
 62
   242
370
     9
100
AcDbSpline
210
0.0
220
0.0
230
1.0
 70
    11
 71
     3
 72
    60
 73
    56
 74
     0
 42
0.0000000001
 43
0.0000000001
 12
1.0
 22
0.0
 32
0.0
 13
1.0
 23
0.0
 33
0.0
 40
0.0
 40
0.0
 40
0.0
 40
0.0
 40
0.0666666666666667
 40
0.0666666666666667
 40
0.0666666666666667
 40
0.0666666666666667
 40
0.1333333333333333
 40
0.1333333333333333
 40
0.1333333333333333
 40
0.1333333333333333
 40
0.2
 40
0.2
 40
0.2
 40
0.2
 40
0.2666666666666667
 40
0.2666666666666667
 40
0.2666666666666667
 40
0.2666666666666667
 40
0.3333333333333333
 40
0.3333333333333333
 40
0.3333333333333333
 40
0.3333333333333333
 40
0.4
 40
0.4
 40
0.4
 40
0.4
 40
0.4666666666666667
 40
0.4666666666666667
 40
0.4666666666666667
 40
0.4666666666666667
 40
0.5333333333333333
 40
0.5333333333333333
 40
0.5333333333333333
 40
0.5333333333333333
 40
0.6
 40
0.6
 40
0.6
 40
0.6
 40
0.6666666666666666
 40
0.6666666666666666
 40
0.6666666666666666
 40
0.6666666666666666
 40
0.7333333333333333
 40
0.7333333333333333
 40
0.7333333333333333
 40
0.7333333333333333
 40
0.8
 40
0.8
 40
0.8
 40
0.8
 40
0.8666666666666667
 40
0.8666666666666667
 40
0.8666666666666667
 40
0.8666666666666667
 40
1.0
 40
1.0
 40
1.0
 40
1.0
 10
15.1777
 20
61.2273
 30
0.0
 10
15.2696
 20
61.062
 30
0.0
 10
15.3063
 20
60.7682
 30
0.0
 10
15.3063
 20
60.5845
 30
0.0
 10
15.3063
 20
60.5845
 30
0.0
 10
15.3063
 20
60.5845
 30
0.0
 10
15.3063
 20
58.9498
 30
0.0
 10
15.3063
 20
58.9498
 30
0.0
 10
15.3063
 20
58.9498
 30
0.0
 10
15.3063
 20
58.9498
 30
0.0
 10
14.6818
 20
58.9498
 30
0.0
 10
14.6818
 20
58.9498
 30
0.0
 10
14.6818
 20
58.9498
 30
0.0
 10
14.6818
 20
58.9498
 30
0.0
 10
14.6818
 20
60.4743
 30
0.0
 10
14.6818
 20
60.4743
 30
0.0
 10
14.6818
 20
60.4743
 30
0.0
 10
14.6818
 20
60.6029
 30
0.0
 10
14.6635
 20
60.8416
 30
0.0
 10
14.5716
 20
60.9518
 30
0.0
 10
14.5716
 20
60.9518
 30
0.0
 10
14.4247
 20
61.1171
 30
0.0
 10
14.0757
 20
61.0988
 30
0.0
 10
13.8921
 20
60.9886
 30
0.0
 10
13.8921
 20
60.9886
 30
0.0
 10
13.8002
 20
60.9335
 30
0.0
 10
13.7268
 20
60.86
 30
0.0
 10
13.69
 20
60.7498
 30
0.0
 10
13.69
 20
60.7498
 30
0.0
 10
13.5982
 20
60.5478
 30
0.0
 10
13.5982
 20
60.2906
 30
0.0
 10
13.5982
 20
60.0702
 30
0.0
 10
13.5982
 20
60.0702
 30
0.0
 10
13.5982
 20
60.0702
 30
0.0
 10
13.5982
 20
58.9498
 30
0.0
 10
13.5982
 20
58.9498
 30
0.0
 10
13.5982
 20
58.9498
 30
0.0
 10
13.5982
 20
58.9498
 30
0.0
 10
12.9737
 20
58.9498
 30
0.0
 10
12.9737
 20
58.9498
 30
0.0
 10
12.9737
 20
58.9498
 30
0.0
 10
12.9737
 20
58.9498
 30
0.0
 10
12.9737
 20
61.5396
 30
0.0
 10
12.9737
 20
61.5396
 30
0.0
 10
12.9737
 20
61.5396
 30
0.0
 10
12.9737
 20
61.5396
 30
0.0
 10
13.5982
 20
61.5396
 30
0.0
 10
13.5982
 20
61.5396
 30
0.0
 10
13.5982
 20
61.5396
 30
0.0
 10
13.5982
 20
61.5396
 30
0.0
 10
13.5982
 20
61.1539
 30
0.0
 10
13.5982
 20
61.1539
 30
0.0
 10
13.5982
 20
61.1539
 30
0.0
 10
13.8186
 20
61.7049
 30
0.0
 10
14.8839
 20
61.7049
 30
0.0
 10
15.1777
 20
61.2273
 30
0.0
  0
SPLINE
  5
4E
330
1F
100
AcDbEntity
  8
Ebene 1
 62
   242
370
     9
100
AcDbSpline
210
0.0
220
0.0
230
1.0
 70
    11
 71
     3
 72
    44
 73
    40
 74
     0
 42
0.0000000001
 43
0.0000000001
 12
1.0
 22
0.0
 32
0.0
 13
1.0
 23
0.0
 33
0.0
 40
0.0
 40
0.0
 40
0.0
 40
0.0
 40
0.0909090909090909
 40
0.0909090909090909
 40
0.0909090909090909
 40
0.0909090909090909
 40
0.1818181818181818
 40
0.1818181818181818
 40
0.1818181818181818
 40
0.1818181818181818
 40
0.2727272727272727
 40
0.2727272727272727
 40
0.2727272727272727
 40
0.2727272727272727
 40
0.3636363636363636
 40
0.3636363636363636
 40
0.3636363636363636
 40
0.3636363636363636
 40
0.4545454545454545
 40
0.4545454545454545
 40
0.4545454545454545
 40
0.4545454545454545
 40
0.5454545454545454
 40
0.5454545454545454
 40
0.5454545454545454
 40
0.5454545454545454
 40
0.6363636363636364
 40
0.6363636363636364
 40
0.6363636363636364
 40
0.6363636363636364
 40
0.7272727272727273
 40
0.7272727272727273
 40
0.7272727272727273
 40
0.7272727272727273
 40
0.8181818181818182
 40
0.8181818181818182
 40
0.8181818181818182
 40
0.8181818181818182
 40
1.0
 40
1.0
 40
1.0
 40
1.0
 10
18.245
 20
61.3375
 30
0.0
 10
18.3736
 20
61.209
 30
0.0
 10
18.4287
 20
61.0253
 30
0.0
 10
18.4654
 20
60.86
 30
0.0
 10
18.4654
 20
60.86
 30
0.0
 10
18.5205
 20
60.5661
 30
0.0
 10
18.5205
 20
59.9233
 30
0.0
 10
18.4654
 20
59.6478
 30
0.0
 10
18.4654
 20
59.6478
 30
0.0
 10
18.4287
 20
59.4825
 30
0.0
 10
18.3919
 20
59.2805
 30
0.0
 10
18.2634
 20
59.1519
 30
0.0
 10
18.2634
 20
59.1519
 30
0.0
 10
18.0613
 20
58.9498
 30
0.0
 10
17.5103
 20
58.9131
 30
0.0
 10
17.2348
 20
58.9131
 30
0.0
 10
17.2348
 20
58.9131
 30
0.0
 10
16.9593
 20
58.9131
 30
0.0
 10
16.4818
 20
58.9682
 30
0.0
 10
16.2797
 20
59.1519
 30
0.0
 10
16.2797
 20
59.1519
 30
0.0
 10
16.1695
 20
59.2805
 30
0.0
 10
16.1144
 20
59.4825
 30
0.0
 10
16.0961
 20
59.6478
 30
0.0
 10
16.0961
 20
59.6478
 30
0.0
 10
16.041
 20
59.9233
 30
0.0
 10
16.041
 20
60.5845
 30
0.0
 10
16.1144
 20
60.8784
 30
0.0
 10
16.1144
 20
60.8784
 30
0.0
 10
16.1328
 20
61.0437
 30
0.0
 10
16.1879
 20
61.2273
 30
0.0
 10
16.3165
 20
61.3375
 30
0.0
 10
16.3165
 20
61.3375
 30
0.0
 10
16.5369
 20
61.5763
 30
0.0
 10
16.9042
 20
61.5396
 30
0.0
 10
17.1981
 20
61.5763
 30
0.0
 10
17.1981
 20
61.5763
 30
0.0
 10
17.4919
 20
61.5763
 30
0.0
 10
18.0246
 20
61.5579
 30
0.0
 10
18.245
 20
61.3375
 30
0.0
  0
SPLINE
  5
4F
330
1F
100
AcDbEntity
  8
Ebene 1
 62
   242
370
     9
100
AcDbSpline
210
0.0
220
0.0
230
1.0
 70
    11
 71
     3
 72
   136
 73
   132
 74
     0
 42
0.0000000001
 43
0.0000000001
 12
1.0
 22
0.0
 32
0.0
 13
1.0
 23
0.0
 33
0.0
 40
0.0
 40
0.0
 40
0.0
 40
0.0
 40
0.0294117647058824
 40
0.0294117647058824
 40
0.0294117647058824
 40
0.0294117647058824
 40
0.0588235294117647
 40
0.0588235294117647
 40
0.0588235294117647
 40
0.0588235294117647
 40
0.0882352941176471
 40
0.0882352941176471
 40
0.0882352941176471
 40
0.0882352941176471
 40
0.1176470588235294
 40
0.1176470588235294
 40
0.1176470588235294
 40
0.1176470588235294
 40
0.1470588235294118
 40
0.1470588235294118
 40
0.1470588235294118
 40
0.1470588235294118
 40
0.1764705882352941
 40
0.1764705882352941
 40
0.1764705882352941
 40
0.1764705882352941
 40
0.2058823529411765
 40
0.2058823529411765
 40
0.2058823529411765
 40
0.2058823529411765
 40
0.2352941176470588
 40
0.2352941176470588
 40
0.2352941176470588
 40
0.2352941176470588
 40
0.2647058823529412
 40
0.2647058823529412
 40
0.2647058823529412
 40
0.2647058823529412
 40
0.2941176470588235
 40
0.2941176470588235
 40
0.2941176470588235
 40
0.2941176470588235
 40
0.3235294117647059
 40
0.3235294117647059
 40
0.3235294117647059
 40
0.3235294117647059
 40
0.3529411764705883
 40
0.3529411764705883
 40
0.3529411764705883
 40
0.3529411764705883
 40
0.3823529411764706
 40
0.3823529411764706
 40
0.3823529411764706
 40
0.3823529411764706
 40
0.4117647058823529
 40
0.4117647058823529
 40
0.4117647058823529
 40
0.4117647058823529
 40
0.4411764705882353
 40
0.4411764705882353
 40
0.4411764705882353
 40
0.4411764705882353
 40
0.4705882352941176
 40
0.4705882352941176
 40
0.4705882352941176
 40
0.4705882352941176
 40
0.5
 40
0.5
 40
0.5
 40
0.5
 40
0.5294117647058824
 40
0.5294117647058824
 40
0.5294117647058824
 40
0.5294117647058824
 40
0.5588235294117647
 40
0.5588235294117647
 40
0.5588235294117647
 40
0.5588235294117647
 40
0.5882352941176471
 40
0.5882352941176471
 40
0.5882352941176471
 40
0.5882352941176471
 40
0.6176470588235294
 40
0.6176470588235294
 40
0.6176470588235294
 40
0.6176470588235294
 40
0.6470588235294118
 40
0.6470588235294118
 40
0.6470588235294118
 40
0.6470588235294118
 40
0.6764705882352942
 40
0.6764705882352942
 40
0.6764705882352942
 40
0.6764705882352942
 40
0.7058823529411765
 40
0.7058823529411765
 40
0.7058823529411765
 40
0.7058823529411765
 40
0.7352941176470589
 40
0.7352941176470589
 40
0.7352941176470589
 40
0.7352941176470589
 40
0.7647058823529411
 40
0.7647058823529411
 40
0.7647058823529411
 40
0.7647058823529411
 40
0.7941176470588235
 40
0.7941176470588235
 40
0.7941176470588235
 40
0.7941176470588235
 40
0.8235294117647058
 40
0.8235294117647058
 40
0.8235294117647058
 40
0.8235294117647058
 40
0.8529411764705882
 40
0.8529411764705882
 40
0.8529411764705882
 40
0.8529411764705882
 40
0.8823529411764706
 40
0.8823529411764706
 40
0.8823529411764706
 40
0.8823529411764706
 40
0.9117647058823529
 40
0.9117647058823529
 40
0.9117647058823529
 40
0.9117647058823529
 40
0.9411764705882353
 40
0.9411764705882353
 40
0.9411764705882353
 40
0.9411764705882353
 40
1.0
 40
1.0
 40
1.0
 40
1.0
 10
20.0082
 20
61.5396
 30
0.0
 10
20.0082
 20
61.5396
 30
0.0
 10
20.0082
 20
59.1703
 30
0.0
 10
20.0082
 20
59.1703
 30
0.0
 10
20.0082
 20
59.1703
 30
0.0
 10
20.0082
 20
59.1703
 30
0.0
 10
19.9715
 20
58.4539
 30
0.0
 10
19.9715
 20
58.4539
 30
0.0
 10
19.9715
 20
58.4539
 30
0.0
 10
20.0817
 20
58.9131
 30
0.0
 10
20.651
 20
60.3274
 30
0.0
 10
20.8531
 20
60.8233
 30
0.0
 10
20.8531
 20
60.8233
 30
0.0
 10
20.8531
 20
60.8233
 30
0.0
 10
21.0367
 20
61.3192
 30
0.0
 10
21.0367
 20
61.3192
 30
0.0
 10
21.0367
 20
61.3192
 30
0.0
 10
21.0551
 20
61.3743
 30
0.0
 10
21.0918
 20
61.4845
 30
0.0
 10
21.1469
 20
61.5212
 30
0.0
 10
21.1469
 20
61.5212
 30
0.0
 10
21.1653
 20
61.5396
 30
0.0
 10
21.2204
 20
61.5396
 30
0.0
 10
21.2755
 20
61.5396
 30
0.0
 10
21.2755
 20
61.5396
 30
0.0
 10
21.2755
 20
61.5396
 30
0.0
 10
21.5877
 20
61.5396
 30
0.0
 10
21.5877
 20
61.5396
 30
0.0
 10
21.5877
 20
61.5396
 30
0.0
 10
21.6428
 20
61.5396
 30
0.0
 10
21.7163
 20
61.5396
 30
0.0
 10
21.7714
 20
61.5212
 30
0.0
 10
21.7714
 20
61.5212
 30
0.0
 10
21.8081
 20
61.4845
 30
0.0
 10
21.8449
 20
61.3559
 30
0.0
 10
21.8816
 20
61.3008
 30
0.0
 10
21.8816
 20
61.3008
 30
0.0
 10
21.8816
 20
61.3008
 30
0.0
 10
22.0653
 20
60.8049
 30
0.0
 10
22.0653
 20
60.8049
 30
0.0
 10
22.0653
 20
60.8049
 30
0.0
 10
22.0653
 20
60.8049
 30
0.0
 10
22.6714
 20
59.2437
 30
0.0
 10
22.6714
 20
59.2437
 30
0.0
 10
22.6714
 20
59.2437
 30
0.0
 10
22.6714
 20
59.2437
 30
0.0
 10
22.9469
 20
58.4723
 30
0.0
 10
22.9469
 20
58.4723
 30
0.0
 10
22.9469
 20
58.4723
 30
0.0
 10
22.9469
 20
58.4723
 30
0.0
 10
22.9285
 20
59.0601
 30
0.0
 10
22.9285
 20
59.0601
 30
0.0
 10
22.9285
 20
59.0601
 30
0.0
 10
22.9285
 20
59.0601
 30
0.0
 10
22.8918
 20
59.4458
 30
0.0
 10
22.8918
 20
59.4458
 30
0.0
 10
22.8918
 20
59.4458
 30
0.0
 10
22.8918
 20
59.4458
 30
0.0
 10
22.8918
 20
61.5396
 30
0.0
 10
22.8918
 20
61.5396
 30
0.0
 10
22.8918
 20
61.5396
 30
0.0
 10
22.8918
 20
61.5396
 30
0.0
 10
23.6265
 20
61.5396
 30
0.0
 10
23.6265
 20
61.5396
 30
0.0
 10
23.6265
 20
61.5396
 30
0.0
 10
23.6265
 20
61.5396
 30
0.0
 10
23.6265
 20
58.0499
 30
0.0
 10
23.6265
 20
58.0499
 30
0.0
 10
23.6265
 20
58.0499
 30
0.0
 10
23.6265
 20
58.0499
 30
0.0
 10
23.6081
 20
57.8846
 30
0.0
 10
23.6081
 20
57.8846
 30
0.0
 10
23.6081
 20
57.8846
 30
0.0
 10
23.6081
 20
57.8846
 30
0.0
 10
23.4061
 20
57.8478
 30
0.0
 10
23.4061
 20
57.8478
 30
0.0
 10
23.4061
 20
57.8478
 30
0.0
 10
23.4061
 20
57.8478
 30
0.0
 10
22.653
 20
57.8478
 30
0.0
 10
22.653
 20
57.8478
 30
0.0
 10
22.653
 20
57.8478
 30
0.0
 10
22.653
 20
57.8478
 30
0.0
 10
22.4693
 20
57.8662
 30
0.0
 10
22.4693
 20
57.8662
 30
0.0
 10
22.4693
 20
57.8662
 30
0.0
 10
22.4693
 20
57.8662
 30
0.0
 10
22.3775
 20
58.0499
 30
0.0
 10
22.3775
 20
58.0499
 30
0.0
 10
22.3775
 20
58.0499
 30
0.0
 10
22.3775
 20
58.0499
 30
0.0
 10
22.2306
 20
58.4723
 30
0.0
 10
22.2306
 20
58.4723
 30
0.0
 10
22.2306
 20
58.4723
 30
0.0
 10
22.2306
 20
58.4723
 30
0.0
 10
21.7714
 20
59.6478
 30
0.0
 10
21.7714
 20
59.6478
 30
0.0
 10
21.7714
 20
59.6478
 30
0.0
 10
21.7714
 20
59.6478
 30
0.0
 10
21.4592
 20
60.5661
 30
0.0
 10
21.4592
 20
60.5661
 30
0.0
 10
21.4592
 20
60.5661
 30
0.0
 10
21.4592
 20
60.5661
 30
0.0
 10
21.202
 20
59.7764
 30
0.0
 10
21.202
 20
59.7764
 30
0.0
 10
21.202
 20
59.7764
 30
0.0
 10
21.202
 20
59.7764
 30
0.0
 10
20.7245
 20
58.4907
 30
0.0
 10
20.7245
 20
58.4907
 30
0.0
 10
20.7245
 20
58.4907
 30
0.0
 10
20.7245
 20
58.4907
 30
0.0
 10
20.5592
 20
58.0499
 30
0.0
 10
20.5592
 20
58.0499
 30
0.0
 10
20.5592
 20
58.0499
 30
0.0
 10
20.5592
 20
58.0499
 30
0.0
 10
20.449
 20
57.8662
 30
0.0
 10
20.449
 20
57.8662
 30
0.0
 10
20.449
 20
57.8662
 30
0.0
 10
20.449
 20
57.8662
 30
0.0
 10
20.2653
 20
57.8478
 30
0.0
 10
20.2653
 20
57.8478
 30
0.0
 10
20.2653
 20
57.8478
 30
0.0
 10
20.2653
 20
57.8478
 30
0.0
 10
19.2919
 20
57.8478
 30
0.0
 10
19.2919
 20
57.8478
 30
0.0
 10
19.2919
 20
57.8478
 30
0.0
 10
19.2919
 20
57.8478
 30
0.0
 10
19.2919
 20
61.5396
 30
0.0
 10
19.2919
 20
61.5396
 30
0.0
 10
19.2919
 20
61.5396
 30
0.0
 10
19.2919
 20
61.5396
 30
0.0
 10
20.0082
 20
61.5396
 30
0.0
 10
20.0082
 20
61.5396
 30
0.0
  0
SPLINE
  5
50
330
1F
100
AcDbEntity
  8
Ebene 1
 62
   242
370
     9
100
AcDbSpline
210
0.0
220
0.0
230
1.0
 70
    11
 71
     3
 72
    44
 73
    40
 74
     0
 42
0.0000000001
 43
0.0000000001
 12
1.0
 22
0.0
 32
0.0
 13
1.0
 23
0.0
 33
0.0
 40
0.0
 40
0.0
 40
0.0
 40
0.0
 40
0.0909090909090909
 40
0.0909090909090909
 40
0.0909090909090909
 40
0.0909090909090909
 40
0.1818181818181818
 40
0.1818181818181818
 40
0.1818181818181818
 40
0.1818181818181818
 40
0.2727272727272727
 40
0.2727272727272727
 40
0.2727272727272727
 40
0.2727272727272727
 40
0.3636363636363636
 40
0.3636363636363636
 40
0.3636363636363636
 40
0.3636363636363636
 40
0.4545454545454545
 40
0.4545454545454545
 40
0.4545454545454545
 40
0.4545454545454545
 40
0.5454545454545454
 40
0.5454545454545454
 40
0.5454545454545454
 40
0.5454545454545454
 40
0.6363636363636364
 40
0.6363636363636364
 40
0.6363636363636364
 40
0.6363636363636364
 40
0.7272727272727273
 40
0.7272727272727273
 40
0.7272727272727273
 40
0.7272727272727273
 40
0.8181818181818182
 40
0.8181818181818182
 40
0.8181818181818182
 40
0.8181818181818182
 40
1.0
 40
1.0
 40
1.0
 40
1.0
 10
16.8124
 20
60.9518
 30
0.0
 10
16.7389
 20
60.8784
 30
0.0
 10
16.7205
 20
60.7498
 30
0.0
 10
16.7205
 20
60.658
 30
0.0
 10
16.7205
 20
60.658
 30
0.0
 10
16.6838
 20
60.4376
 30
0.0
 10
16.7022
 20
60.1988
 30
0.0
 10
16.7022
 20
59.9784
 30
0.0
 10
16.7022
 20
59.9784
 30
0.0
 10
16.7022
 20
59.8498
 30
0.0
 10
16.7205
 20
59.6478
 30
0.0
 10
16.794
 20
59.556
 30
0.0
 10
16.794
 20
59.556
 30
0.0
 10
16.9042
 20
59.4458
 30
0.0
 10
17.0695
 20
59.4274
 30
0.0
 10
17.1981
 20
59.4274
 30
0.0
 10
17.1981
 20
59.4274
 30
0.0
 10
17.3634
 20
59.4274
 30
0.0
 10
17.6021
 20
59.409
 30
0.0
 10
17.7307
 20
59.5192
 30
0.0
 10
17.7307
 20
59.5192
 30
0.0
 10
17.8226
 20
59.6111
 30
0.0
 10
17.8409
 20
59.7396
 30
0.0
 10
17.8409
 20
59.8315
 30
0.0
 10
17.8409
 20
59.8315
 30
0.0
 10
17.8777
 20
59.9968
 30
0.0
 10
17.8593
 20
60.4927
 30
0.0
 10
17.8409
 20
60.658
 30
0.0
 10
17.8409
 20
60.658
 30
0.0
 10
17.8226
 20
60.7682
 30
0.0
 10
17.8226
 20
60.8784
 30
0.0
 10
17.7307
 20
60.9702
 30
0.0
 10
17.7307
 20
60.9702
 30
0.0
 10
17.6021
 20
61.0804
 30
0.0
 10
17.2715
 20
61.0804
 30
0.0
 10
17.1062
 20
61.062
 30
0.0
 10
17.1062
 20
61.062
 30
0.0
 10
16.996
 20
61.0437
 30
0.0
 10
16.8858
 20
61.0253
 30
0.0
 10
16.8124
 20
60.9518
 30
0.0
  0
SPLINE
  5
51
330
1F
100
AcDbEntity
  8
Ebene 1
 62
   242
370
     9
100
AcDbSpline
210
0.0
220
0.0
230
1.0
 70
    11
 71
     3
 72
    24
 73
    20
 74
     0
 42
0.0000000001
 43
0.0000000001
 12
1.0
 22
0.0
 32
0.0
 13
1.0
 23
0.0
 33
0.0
 40
0.0
 40
0.0
 40
0.0
 40
0.0
 40
0.1666666666666667
 40
0.1666666666666667
 40
0.1666666666666667
 40
0.1666666666666667
 40
0.3333333333333333
 40
0.3333333333333333
 40
0.3333333333333333
 40
0.3333333333333333
 40
0.5
 40
0.5
 40
0.5
 40
0.5
 40
0.6666666666666666
 40
0.6666666666666666
 40
0.6666666666666666
 40
0.6666666666666666
 40
1.0
 40
1.0
 40
1.0
 40
1.0
 10
7.427
 20
59.9784
 30
0.0
 10
7.427
 20
59.8498
 30
0.0
 10
7.427
 20
59.6111
 30
0.0
 10
7.5188
 20
59.5009
 30
0.0
 10
7.5188
 20
59.5009
 30
0.0
 10
7.5739
 20
59.4458
 30
0.0
 10
7.6474
 20
59.4274
 30
0.0
 10
7.7208
 20
59.409
 30
0.0
 10
7.7208
 20
59.409
 30
0.0
 10
7.8861
 20
59.3723
 30
0.0
 10
8.3086
 20
59.3723
 30
0.0
 10
8.4371
 20
59.5009
 30
0.0
 10
8.4371
 20
59.5009
 30
0.0
 10
8.5473
 20
59.6111
 30
0.0
 10
8.5473
 20
59.8315
 30
0.0
 10
8.5473
 20
59.9784
 30
0.0
 10
8.5473
 20
59.9784
 30
0.0
 10
8.5473
 20
59.9784
 30
0.0
 10
7.427
 20
59.9784
 30
0.0
 10
7.427
 20
59.9784
 30
0.0
  0
ENDSEC
  0
SECTION
  2
OBJECTS
  0
DICTIONARY
  5
C
330
0
100
AcDbDictionary
281
     1
  3
ACAD_GROUP
350
D
  3
ACAD_LAYOUT
350
1A
  3
ACAD_MATERIAL
350
3B
  3
ACAD_MLEADERSTYLE
350
73
  3
ACAD_MLINESTYLE
350
17
  3
ACAD_PLOTSETTINGS
350
19
  3
ACAD_PLOTSTYLENAME
350
E
  3
ACAD_TABLESTYLE
350
72
  3
ACAD_VISUALSTYLE
350
2A
  0
DICTIONARY
  5
D
102
{ACAD_REACTORS
330
C
102
}
330
C
100
AcDbDictionary
281
     1
  0
DICTIONARY
  5
1A
102
{ACAD_REACTORS
330
C
102
}
330
C
100
AcDbDictionary
281
     1
  3
Layout1
350
1E
  3
Layout2
350
26
  3
Model
350
22
  0
DICTIONARY
  5
3B
102
{ACAD_REACTORS
330
C
102
}
330
C
100
AcDbDictionary
281
     1
  3
ByBlock
350
3D
  3
ByLayer
350
3C
  3
Global
350
3E
  0
DICTIONARY
  5
73
102
{ACAD_REACTORS
330
C
102
}
330
C
100
AcDbDictionary
281
     1
  0
DICTIONARY
  5
17
102
{ACAD_REACTORS
330
C
102
}
330
C
100
AcDbDictionary
281
     1
  3
Standard
350
18
  0
DICTIONARY
  5
19
102
{ACAD_REACTORS
330
C
102
}
330
C
100
AcDbDictionary
281
     1
  0
ACDBDICTIONARYWDFLT
  5
E
102
{ACAD_REACTORS
330
C
102
}
330
C
100
AcDbDictionary
281
     1
  3
Normal
350
F
100
AcDbDictionaryWithDefault
340
F
  0
DICTIONARY
  5
72
102
{ACAD_REACTORS
330
C
102
}
330
C
100
AcDbDictionary
281
     1
  0
DICTIONARY
  5
2A
102
{ACAD_REACTORS
330
C
102
}
330
C
100
AcDbDictionary
281
     1
  3
2dWireframe
350
2F
  3
3D Hidden
350
31
  3
3dWireframe
350
30
  3
Basic
350
32
  3
Brighten
350
36
  3
ColorChange
350
3A
  3
Conceptual
350
34
  3
Dim
350
35
  3
Facepattern
350
39
  3
Flat
350
2B
  3
FlatWithEdges
350
2C
  3
Gouraud
350
2D
  3
GouraudWithEdges
350
2E
  3
Linepattern
350
38
  3
Realistic
350
33
  3
Thicken
350
37
  0
LAYOUT
  5
1E
102
{ACAD_REACTORS
330
1A
102
}
330
1A
100
AcDbPlotSettings
  1

  2
none_device
  4

  6

 40
0.0
 41
0.0
 42
0.0
 43
0.0
 44
0.0
 45
0.0
 46
0.0
 47
0.0
 48
0.0
 49
0.0
140
0.0
141
0.0
142
1.0
143
1.0
 70
   688
 72
     0
 73
     0
 74
     5
  7

 75
    16
 76
     0
 77
     2
 78
   300
147
1.0
148
0.0
149
0.0
100
AcDbLayout
  1
Layout1
 70
     1
 71
     1
 10
0.0
 20
0.0
 11
12.0
 21
9.0
 12
0.0
 22
0.0
 32
0.0
 14
1.000000000000000E+20
 24
1.000000000000000E+20
 34
1.000000000000000E+20
 15
-1.000000000000000E+20
 25
-1.000000000000000E+20
 35
-1.000000000000000E+20
146
0.0
 13
0.0
 23
0.0
 33
0.0
 16
1.0
 26
0.0
 36
0.0
 17
0.0
 27
1.0
 37
0.0
 76
     0
330
1B
  0
LAYOUT
  5
26
102
{ACAD_REACTORS
330
1A
102
}
330
1A
100
AcDbPlotSettings
  1

  2
none_device
  4

  6

 40
0.0
 41
0.0
 42
0.0
 43
0.0
 44
0.0
 45
0.0
 46
0.0
 47
0.0
 48
0.0
 49
0.0
140
0.0
141
0.0
142
1.0
143
1.0
 70
   688
 72
     0
 73
     0
 74
     5
  7

 75
    16
 76
     0
 77
     2
 78
   300
147
1.0
148
0.0
149
0.0
100
AcDbLayout
  1
Layout2
 70
     1
 71
     2
 10
0.0
 20
0.0
 11
0.0
 21
0.0
 12
0.0
 22
0.0
 32
0.0
 14
0.0
 24
0.0
 34
0.0
 15
0.0
 25
0.0
 35
0.0
146
0.0
 13
0.0
 23
0.0
 33
0.0
 16
1.0
 26
0.0
 36
0.0
 17
0.0
 27
1.0
 37
0.0
 76
     0
330
23
  0
LAYOUT
  5
22
102
{ACAD_REACTORS
330
1A
102
}
330
1A
100
AcDbPlotSettings
  1

  2
none_device
  4

  6

 40
0.0
 41
0.0
 42
0.0
 43
0.0
 44
0.0
 45
0.0
 46
0.0
 47
0.0
 48
0.0
 49
0.0
140
0.0
141
0.0
142
1.0
143
1.0
 70
  1712
 72
     0
 73
     0
 74
     0
  7

 75
     0
 76
     0
 77
     2
 78
   300
147
1.0
148
0.0
149
0.0
100
AcDbLayout
  1
Model
 70
     1
 71
     0
 10
0.0
 20
0.0
 11
12.0
 21
9.0
 12
0.0
 22
0.0
 32
0.0
 14
4.1563
 24
55.2671
 34
0.0
 15
41.4436
 25
74.1329
 35
0.0
146
0.0
 13
0.0
 23
0.0
 33
0.0
 16
1.0
 26
0.0
 36
0.0
 17
0.0
 27
1.0
 37
0.0
 76
     0
330
1F
331
29
  0
MATERIAL
  5
3D
102
{ACAD_REACTORS
330
3B
102
}
330
3B
100
AcDbMaterial
  1
ByBlock
 72
     1
 94
      127
  0
MATERIAL
  5
3C
102
{ACAD_REACTORS
330
3B
102
}
330
3B
100
AcDbMaterial
  1
ByLayer
 72
     1
 94
      127
  0
MATERIAL
  5
3E
102
{ACAD_REACTORS
330
3B
102
}
330
3B
100
AcDbMaterial
  1
Global
 72
     1
 94
      127
  0
MLINESTYLE
  5
18
102
{ACAD_REACTORS
330
17
102
}
330
17
100
AcDbMlineStyle
  2
Standard
 70
     0
  3

 62
   256
 51
90.0
 52
90.0
 71
     2
 49
0.5
 62
   256
  6
BYLAYER
 49
-0.5
 62
   256
  6
BYLAYER
  0
ACDBPLACEHOLDER
  5
F
102
{ACAD_REACTORS
330
E
102
}
330
E
  0
VISUALSTYLE
  5
2F
102
{ACAD_REACTORS
330
2A
102
}
102
{ACAD_XDICTIONARY
360
5A
102
}
330
2A
100
AcDbVisualStyle
  2
2dWireframe
 70
     4
 71
     0
 72
     2
 73
     0
 90
        0
 40
-0.6
 41
-30.0
 62
     5
 63
     7
421
 16777215
 74
     1
 91
        4
 64
     7
 65
   257
 75
     1
175
     1
 42
1.0
 92
        0
 66
   257
 43
1.0
 76
     1
 77
     6
 78
     2
 67
     7
 79
     5
170
     0
171
     0
290
     0
174
     0
 93
        1
 44
0.0
173
     0
291
     0
 45
0.0
  0
VISUALSTYLE
  5
31
102
{ACAD_REACTORS
330
2A
102
}
102
{ACAD_XDICTIONARY
360
5E
102
}
330
2A
100
AcDbVisualStyle
  2
3D Hidden
 70
     6
 71
     1
 72
     2
 73
     2
 90
        0
 40
-0.6
 41
-30.0
 62
     5
 63
     7
421
 16777215
 74
     2
 91
        2
 64
     7
 65
   257
 75
     2
175
     1
 42
40.0
 92
        0
 66
   257
 43
1.0
 76
     1
 77
     6
 78
     2
 67
     7
 79
     3
170
     0
171
     0
290
     0
174
     0
 93
        1
 44
0.0
173
     0
291
     0
 45
0.0
  0
VISUALSTYLE
  5
30
102
{ACAD_REACTORS
330
2A
102
}
102
{ACAD_XDICTIONARY
360
5C
102
}
330
2A
100
AcDbVisualStyle
  2
3dWireframe
 70
     5
 71
     0
 72
     2
 73
     0
 90
        0
 40
-0.6
 41
-30.0
 62
     5
 63
     7
421
 16777215
 74
     1
 91
        4
 64
     7
 65
   257
 75
     1
175
     1
 42
1.0
 92
        0
 66
   257
 43
1.0
 76
     1
 77
     6
 78
     2
 67
     7
 79
     5
170
     0
171
     0
290
     0
174
     0
 93
        1
 44
0.0
173
     0
291
     0
 45
0.0
  0
VISUALSTYLE
  5
32
102
{ACAD_REACTORS
330
2A
102
}
102
{ACAD_XDICTIONARY
360
60
102
}
330
2A
100
AcDbVisualStyle
  2
Basic
 70
     7
 71
     1
 72
     0
 73
     1
 90
        0
 40
-0.6
 41
-30.0
 62
     5
 63
     7
421
 16777215
 74
     0
 91
        4
 64
     7
 65
   257
 75
     1
175
     1
 42
1.0
 92
        8
 66
     7
 43
1.0
 76
     1
 77
     6
 78
     2
 67
     7
 79
     5
170
     0
171
     0
290
     0
174
     0
 93
        1
 44
0.0
173
     0
291
     1
 45
0.0
  0
VISUALSTYLE
  5
36
102
{ACAD_REACTORS
330
2A
102
}
102
{ACAD_XDICTIONARY
360
68
102
}
330
2A
100
AcDbVisualStyle
  2
Brighten
 70
    12
 71
     2
 72
     2
 73
     0
 90
        0
 40
-0.6
 41
-30.0
 62
     5
 63
     7
421
 16777215
 74
     1
 91
        4
 64
     7
 65
   257
 75
     1
175
     1
 42
1.0
 92
        8
 66
     7
 43
1.0
 76
     1
 77
     6
 78
     2
 67
     7
 79
     5
170
     0
171
     0
290
     0
174
     0
 93
        1
 44
50.0
173
     0
291
     1
 45
0.0
  0
VISUALSTYLE
  5
3A
102
{ACAD_REACTORS
330
2A
102
}
102
{ACAD_XDICTIONARY
360
70
102
}
330
2A
100
AcDbVisualStyle
  2
ColorChange
 70
    16
 71
     2
 72
     2
 73
     3
 90
        0
 40
-0.6
 41
-30.0
 62
     5
 63
     8
421
  8421504
 74
     1
 91
        4
 64
     7
 65
   257
 75
     1
175
     1
 42
1.0
 92
        8
 66
     8
424
  8421504
 43
1.0
 76
     1
 77
     6
 78
     2
 67
     7
 79
     5
170
     0
171
     0
290
     0
174
     0
 93
        1
 44
0.0
173
     0
291
     1
 45
0.0
  0
VISUALSTYLE
  5
34
102
{ACAD_REACTORS
330
2A
102
}
102
{ACAD_XDICTIONARY
360
64
102
}
330
2A
100
AcDbVisualStyle
  2
Conceptual
 70
     9
 71
     3
 72
     2
 73
     0
 90
        0
 40
-0.6
 41
-30.0
 62
     5
 63
     7
421
 16777215
 74
     2
 91
        2
 64
     7
 65
   257
 75
     1
175
     1
 42
40.0
 92
        8
 66
     7
 43
1.0
 76
     1
 77
     6
 78
     2
 67
     7
 79
     3
170
     0
171
     0
290
     0
174
     0
 93
        1
 44
0.0
173
     0
291
     0
 45
0.0
  0
VISUALSTYLE
  5
35
102
{ACAD_REACTORS
330
2A
102
}
102
{ACAD_XDICTIONARY
360
66
102
}
330
2A
100
AcDbVisualStyle
  2
Dim
 70
    11
 71
     2
 72
     2
 73
     0
 90
        0
 40
-0.6
 41
-30.0
 62
     5
 63
     7
421
 16777215
 74
     1
 91
        4
 64
     7
 65
   257
 75
     1
175
     1
 42
1.0
 92
        8
 66
     7
 43
1.0
 76
     1
 77
     6
 78
     2
 67
     7
 79
     5
170
     0
171
     0
290
     0
174
     0
 93
        1
 44
-50.0
173
     0
291
     1
 45
0.0
  0
VISUALSTYLE
  5
39
102
{ACAD_REACTORS
330
2A
102
}
102
{ACAD_XDICTIONARY
360
6E
102
}
330
2A
100
AcDbVisualStyle
  2
Facepattern
 70
    15
 71
     2
 72
     2
 73
     0
 90
        0
 40
-0.6
 41
-30.0
 62
     5
 63
     7
421
 16777215
 74
     1
 91
        4
 64
     7
 65
   257
 75
     1
175
     1
 42
1.0
 92
        8
 66
     7
 43
1.0
 76
     1
 77
     6
 78
     2
 67
     7
 79
     5
170
     0
171
     0
290
     0
174
     0
 93
        1
 44
0.0
173
     0
291
     1
 45
0.0
  0
VISUALSTYLE
  5
2B
102
{ACAD_REACTORS
330
2A
102
}
102
{ACAD_XDICTIONARY
360
52
102
}
330
2A
100
AcDbVisualStyle
  2
Flat
 70
     0
 71
     2
 72
     1
 73
     1
 90
        2
 40
-0.6
 41
30.0
 62
     5
 63
     7
421
 16777215
 74
     0
 91
        4
 64
     7
 65
   257
 75
     1
175
     1
 42
1.0
 92
        8
 66
     7
 43
1.0
 76
     1
 77
     6
 78
     2
 67
     7
 79
     5
170
     0
171
     0
290
     0
174
     0
 93
       13
 44
0.0
173
     0
291
     1
 45
0.0
  0
VISUALSTYLE
  5
2C
102
{ACAD_REACTORS
330
2A
102
}
102
{ACAD_XDICTIONARY
360
54
102
}
330
2A
100
AcDbVisualStyle
  2
FlatWithEdges
 70
     1
 71
     2
 72
     1
 73
     1
 90
        2
 40
-0.6
 41
30.0
 62
     5
 63
     7
421
 16777215
 74
     1
 91
        4
 64
     7
 65
   257
 75
     1
175
     1
 42
1.0
 92
        0
 66
   257
 43
1.0
 76
     1
 77
     6
 78
     2
 67
     7
 79
     5
170
     0
171
     0
290
     0
174
     0
 93
       13
 44
0.0
173
     0
291
     1
 45
0.0
  0
VISUALSTYLE
  5
2D
102
{ACAD_REACTORS
330
2A
102
}
102
{ACAD_XDICTIONARY
360
56
102
}
330
2A
100
AcDbVisualStyle
  2
Gouraud
 70
     2
 71
     2
 72
     2
 73
     1
 90
        2
 40
-0.6
 41
30.0
 62
     5
 63
     7
421
 16777215
 74
     0
 91
        4
 64
     7
 65
   257
 75
     1
175
     1
 42
1.0
 92
        0
 66
     7
 43
1.0
 76
     1
 77
     6
 78
     2
 67
     7
 79
     5
170
     0
171
     0
290
     0
174
     0
 93
       13
 44
0.0
173
     0
291
     1
 45
0.0
  0
VISUALSTYLE
  5
2E
102
{ACAD_REACTORS
330
2A
102
}
102
{ACAD_XDICTIONARY
360
58
102
}
330
2A
100
AcDbVisualStyle
  2
GouraudWithEdges
 70
     3
 71
     2
 72
     2
 73
     1
 90
        2
 40
-0.6
 41
30.0
 62
     5
 63
     7
421
 16777215
 74
     1
 91
        4
 64
     7
 65
   257
 75
     1
175
     1
 42
1.0
 92
        0
 66
   257
 43
1.0
 76
     1
 77
     6
 78
     2
 67
     7
 79
     5
170
     0
171
     0
290
     0
174
     0
 93
       13
 44
0.0
173
     0
291
     1
 45
0.0
  0
VISUALSTYLE
  5
38
102
{ACAD_REACTORS
330
2A
102
}
102
{ACAD_XDICTIONARY
360
6C
102
}
330
2A
100
AcDbVisualStyle
  2
Linepattern
 70
    14
 71
     2
 72
     2
 73
     0
 90
        0
 40
-0.6
 41
-30.0
 62
     5
 63
     7
421
 16777215
 74
     1
 91
        4
 64
     7
 65
   257
 75
     7
175
     7
 42
1.0
 92
        8
 66
     7
 43
1.0
 76
     1
 77
     6
 78
     2
 67
     7
 79
     5
170
     0
171
     0
290
     0
174
     0
 93
        1
 44
0.0
173
     0
291
     1
 45
0.0
  0
VISUALSTYLE
  5
33
102
{ACAD_REACTORS
330
2A
102
}
102
{ACAD_XDICTIONARY
360
62
102
}
330
2A
100
AcDbVisualStyle
  2
Realistic
 70
     8
 71
     2
 72
     2
 73
     0
 90
        0
 40
-0.6
 41
-30.0
 62
     5
 63
     7
421
 16777215
 74
     1
 91
        0
 64
     7
 65
   257
 75
     1
175
     1
 42
1.0
 92
        8
 66
     8
424
  7895160
 43
1.0
 76
     1
 77
     6
 78
     2
 67
     7
 79
     5
170
     0
171
     0
290
     0
174
     0
 93
       13
 44
0.0
173
     0
291
     0
 45
0.0
  0
VISUALSTYLE
  5
37
102
{ACAD_REACTORS
330
2A
102
}
102
{ACAD_XDICTIONARY
360
6A
102
}
330
2A
100
AcDbVisualStyle
  2
Thicken
 70
    13
 71
     2
 72
     2
 73
     0
 90
        0
 40
-0.6
 41
-30.0
 62
     5
 63
     7
421
 16777215
 74
     1
 91
        4
 64
     7
 65
   257
 75
     1
175
     1
 42
1.0
 92
       12
 66
     7
 43
1.0
 76
     1
 77
     6
 78
     2
 67
     7
 79
     5
170
     0
171
     0
290
     0
174
     0
 93
        1
 44
0.0
173
     0
291
     1
 45
0.0
  0
DICTIONARY
  5
5A
330
2F
100
AcDbDictionary
280
     1
281
     1
  3
ACAD_XREC_ROUNDTRIP
360
5B
  0
DICTIONARY
  5
5E
330
31
100
AcDbDictionary
280
     1
281
     1
  3
ACAD_XREC_ROUNDTRIP
360
5F
  0
DICTIONARY
  5
5C
330
30
100
AcDbDictionary
280
     1
281
     1
  3
ACAD_XREC_ROUNDTRIP
360
5D
  0
DICTIONARY
  5
60
330
32
100
AcDbDictionary
280
     1
281
     1
  3
ACAD_XREC_ROUNDTRIP
360
61
  0
DICTIONARY
  5
68
330
36
100
AcDbDictionary
280
     1
281
     1
  3
ACAD_XREC_ROUNDTRIP
360
69
  0
DICTIONARY
  5
70
330
3A
100
AcDbDictionary
280
     1
281
     1
  3
ACAD_XREC_ROUNDTRIP
360
71
  0
DICTIONARY
  5
64
330
34
100
AcDbDictionary
280
     1
281
     1
  3
ACAD_XREC_ROUNDTRIP
360
65
  0
DICTIONARY
  5
66
330
35
100
AcDbDictionary
280
     1
281
     1
  3
ACAD_XREC_ROUNDTRIP
360
67
  0
DICTIONARY
  5
6E
330
39
100
AcDbDictionary
280
     1
281
     1
  3
ACAD_XREC_ROUNDTRIP
360
6F
  0
DICTIONARY
  5
52
330
2B
100
AcDbDictionary
280
     1
281
     1
  3
ACAD_XREC_ROUNDTRIP
360
53
  0
DICTIONARY
  5
54
330
2C
100
AcDbDictionary
280
     1
281
     1
  3
ACAD_XREC_ROUNDTRIP
360
55
  0
DICTIONARY
  5
56
330
2D
100
AcDbDictionary
280
     1
281
     1
  3
ACAD_XREC_ROUNDTRIP
360
57
  0
DICTIONARY
  5
58
330
2E
100
AcDbDictionary
280
     1
281
     1
  3
ACAD_XREC_ROUNDTRIP
360
59
  0
DICTIONARY
  5
6C
330
38
100
AcDbDictionary
280
     1
281
     1
  3
ACAD_XREC_ROUNDTRIP
360
6D
  0
DICTIONARY
  5
62
330
33
100
AcDbDictionary
280
     1
281
     1
  3
ACAD_XREC_ROUNDTRIP
360
63
  0
DICTIONARY
  5
6A
330
37
100
AcDbDictionary
280
     1
281
     1
  3
ACAD_XREC_ROUNDTRIP
360
6B
  0
XRECORD
  5
5B
102
{ACAD_REACTORS
330
5A
102
}
330
5A
100
AcDbXrecord
280
     1
102
RTVSPropertyOp0
 70
     1
102
RTVSPropertyOp1
 70
     1
102
RTVSPropertyOp2
 70
     1
102
RTVSPropertyOp3
 70
     1
102
RTVSPropertyOp4
 70
     1
102
RTVSPropertyOp5
 70
     1
102
RTVSPropertyOp6
 70
     1
102
RTVSPropertyOp7
 70
     1
102
RTVSPropertyOp8
 70
     1
102
RTVSPropertyOp9
 70
     1
102
RTVSPropertyOp10
 70
     1
102
RTVSPropertyOp11
 70
     1
102
RTVSPropertyOp12
 70
     1
102
RTVSPropertyOp13
 70
     1
102
RTVSPropertyOp14
 70
     1
102
RTVSPropertyOp15
 70
     1
102
RTVSPropertyOp16
 70
     1
102
RTVSPropertyOp17
 70
     1
102
RTVSPropertyOp18
 70
     1
102
RTVSPropertyOp19
 70
     1
102
RTVSPropertyOp20
 70
     1
102
RTVSPropertyOp21
 70
     1
102
RTVSPropertyOp22
 70
     1
102
RTVSPropertyOp23
 70
     1
102
RTVSPropertyOp24
 70
     1
102
RTVSPropertyOp25
 70
     1
102
RTVSPropertyOp26
 70
     1
102
RTVSPropertyOp27
 70
     1
102
RTVSPropertyOp28
 70
     1
102
RTVSPropertyOp29
 70
     1
102
RTVSPropertyOp30
 70
     1
102
RTVSPropertyOp31
 70
     1
102
RTVSPropertyOp32
 70
     1
  0
XRECORD
  5
5F
102
{ACAD_REACTORS
330
5E
102
}
330
5E
100
AcDbXrecord
280
     1
102
RTVSPropertyOp0
 70
     1
102
RTVSPropertyOp1
 70
     1
102
RTVSPropertyOp2
 70
     1
102
RTVSPropertyOp3
 70
     1
102
RTVSPropertyOp4
 70
     1
102
RTVSPropertyOp5
 70
     1
102
RTVSPropertyOp6
 70
     1
102
RTVSPropertyOp7
 70
     1
102
RTVSPropertyOp8
 70
     1
102
RTVSPropertyOp9
 70
     1
102
RTVSPropertyOp10
 70
     1
102
RTVSPropertyOp11
 70
     1
102
RTVSPropertyOp12
 70
     1
102
RTVSPropertyOp13
 70
     1
102
RTVSPropertyOp14
 70
     1
102
RTVSPropertyOp15
 70
     1
102
RTVSPropertyOp16
 70
     1
102
RTVSPropertyOp17
 70
     1
102
RTVSPropertyOp18
 70
     1
102
RTVSPropertyOp19
 70
     1
102
RTVSPropertyOp20
 70
     1
102
RTVSPropertyOp21
 70
     1
102
RTVSPropertyOp22
 70
     1
102
RTVSPropertyOp23
 70
     1
102
RTVSPropertyOp24
 70
     1
102
RTVSPropertyOp25
 70
     1
102
RTVSPropertyOp26
 70
     1
102
RTVSPropertyOp27
 70
     1
102
RTVSPropertyOp28
 70
     1
102
RTVSPropertyOp29
 70
     1
102
RTVSPropertyOp30
 70
     1
102
RTVSPropertyOp31
 70
     1
102
RTVSPropertyOp32
 70
     1
  0
XRECORD
  5
5D
102
{ACAD_REACTORS
330
5C
102
}
330
5C
100
AcDbXrecord
280
     1
102
RTVSPropertyOp0
 70
     1
102
RTVSPropertyOp1
 70
     1
102
RTVSPropertyOp2
 70
     1
102
RTVSPropertyOp3
 70
     1
102
RTVSPropertyOp4
 70
     1
102
RTVSPropertyOp5
 70
     1
102
RTVSPropertyOp6
 70
     1
102
RTVSPropertyOp7
 70
     1
102
RTVSPropertyOp8
 70
     1
102
RTVSPropertyOp9
 70
     1
102
RTVSPropertyOp10
 70
     1
102
RTVSPropertyOp11
 70
     1
102
RTVSPropertyOp12
 70
     1
102
RTVSPropertyOp13
 70
     1
102
RTVSPropertyOp14
 70
     1
102
RTVSPropertyOp15
 70
     1
102
RTVSPropertyOp16
 70
     1
102
RTVSPropertyOp17
 70
     1
102
RTVSPropertyOp18
 70
     1
102
RTVSPropertyOp19
 70
     1
102
RTVSPropertyOp20
 70
     1
102
RTVSPropertyOp21
 70
     1
102
RTVSPropertyOp22
 70
     1
102
RTVSPropertyOp23
 70
     1
102
RTVSPropertyOp24
 70
     1
102
RTVSPropertyOp25
 70
     1
102
RTVSPropertyOp26
 70
     1
102
RTVSPropertyOp27
 70
     1
102
RTVSPropertyOp28
 70
     1
102
RTVSPropertyOp29
 70
     1
102
RTVSPropertyOp30
 70
     1
102
RTVSPropertyOp31
 70
     1
102
RTVSPropertyOp32
 70
     1
  0
XRECORD
  5
61
102
{ACAD_REACTORS
330
60
102
}
330
60
100
AcDbXrecord
280
     1
102
RTVSPropertyOp0
 70
     1
102
RTVSPropertyOp1
 70
     1
102
RTVSPropertyOp2
 70
     1
102
RTVSPropertyOp3
 70
     1
102
RTVSPropertyOp4
 70
     1
102
RTVSPropertyOp5
 70
     1
102
RTVSPropertyOp6
 70
     1
102
RTVSPropertyOp7
 70
     1
102
RTVSPropertyOp8
 70
     1
102
RTVSPropertyOp9
 70
     1
102
RTVSPropertyOp10
 70
     1
102
RTVSPropertyOp11
 70
     1
102
RTVSPropertyOp12
 70
     1
102
RTVSPropertyOp13
 70
     1
102
RTVSPropertyOp14
 70
     1
102
RTVSPropertyOp15
 70
     1
102
RTVSPropertyOp16
 70
     1
102
RTVSPropertyOp17
 70
     1
102
RTVSPropertyOp18
 70
     1
102
RTVSPropertyOp19
 70
     1
102
RTVSPropertyOp20
 70
     1
102
RTVSPropertyOp21
 70
     1
102
RTVSPropertyOp22
 70
     1
102
RTVSPropertyOp23
 70
     1
102
RTVSPropertyOp24
 70
     1
102
RTVSPropertyOp25
 70
     1
102
RTVSPropertyOp26
 70
     1
102
RTVSPropertyOp27
 70
     1
102
RTVSPropertyOp28
 70
     1
102
RTVSPropertyOp29
 70
     1
102
RTVSPropertyOp30
 70
     1
102
RTVSPropertyOp31
 70
     1
102
RTVSPropertyOp32
 70
     1
  0
XRECORD
  5
69
102
{ACAD_REACTORS
330
68
102
}
330
68
100
AcDbXrecord
280
     1
102
RTVSPropertyOp0
 70
     1
102
RTVSPropertyOp1
 70
     1
102
RTVSPropertyOp2
 70
     1
102
RTVSPropertyOp3
 70
     1
102
RTVSPropertyOp4
 70
     1
102
RTVSPropertyOp5
 70
     1
102
RTVSPropertyOp6
 70
     1
102
RTVSPropertyOp7
 70
     1
102
RTVSPropertyOp8
 70
     1
102
RTVSPropertyOp9
 70
     1
102
RTVSPropertyOp10
 70
     1
102
RTVSPropertyOp11
 70
     1
102
RTVSPropertyOp12
 70
     1
102
RTVSPropertyOp13
 70
     1
102
RTVSPropertyOp14
 70
     1
102
RTVSPropertyOp15
 70
     1
102
RTVSPropertyOp16
 70
     1
102
RTVSPropertyOp17
 70
     1
102
RTVSPropertyOp18
 70
     1
102
RTVSPropertyOp19
 70
     1
102
RTVSPropertyOp20
 70
     1
102
RTVSPropertyOp21
 70
     1
102
RTVSPropertyOp22
 70
     1
102
RTVSPropertyOp23
 70
     1
102
RTVSPropertyOp24
 70
     1
102
RTVSPropertyOp25
 70
     1
102
RTVSPropertyOp26
 70
     1
102
RTVSPropertyOp27
 70
     1
102
RTVSPropertyOp28
 70
     1
102
RTVSPropertyOp29
 70
     1
102
RTVSPropertyOp30
 70
     1
102
RTVSPropertyOp31
 70
     1
102
RTVSPropertyOp32
 70
     1
  0
XRECORD
  5
71
102
{ACAD_REACTORS
330
70
102
}
330
70
100
AcDbXrecord
280
     1
102
RTVSPropertyOp0
 70
     1
102
RTVSPropertyOp1
 70
     1
102
RTVSPropertyOp2
 70
     1
102
RTVSPropertyOp3
 70
     1
102
RTVSPropertyOp4
 70
     1
102
RTVSPropertyOp5
 70
     1
102
RTVSPropertyOp6
 70
     1
102
RTVSPropertyOp7
 70
     1
102
RTVSPropertyOp8
 70
     1
102
RTVSPropertyOp9
 70
     1
102
RTVSPropertyOp10
 70
     1
102
RTVSPropertyOp11
 70
     1
102
RTVSPropertyOp12
 70
     1
102
RTVSPropertyOp13
 70
     1
102
RTVSPropertyOp14
 70
     1
102
RTVSPropertyOp15
 70
     1
102
RTVSPropertyOp16
 70
     1
102
RTVSPropertyOp17
 70
     1
102
RTVSPropertyOp18
 70
     1
102
RTVSPropertyOp19
 70
     1
102
RTVSPropertyOp20
 70
     1
102
RTVSPropertyOp21
 70
     1
102
RTVSPropertyOp22
 70
     1
102
RTVSPropertyOp23
 70
     1
102
RTVSPropertyOp24
 70
     1
102
RTVSPropertyOp25
 70
     1
102
RTVSPropertyOp26
 70
     1
102
RTVSPropertyOp27
 70
     1
102
RTVSPropertyOp28
 70
     1
102
RTVSPropertyOp29
 70
     1
102
RTVSPropertyOp30
 70
     1
102
RTVSPropertyOp31
 70
     1
102
RTVSPropertyOp32
 70
     1
  0
XRECORD
  5
65
102
{ACAD_REACTORS
330
64
102
}
330
64
100
AcDbXrecord
280
     1
102
RTVSPropertyOp0
 70
     1
102
RTVSPropertyOp1
 70
     1
102
RTVSPropertyOp2
 70
     1
102
RTVSPropertyOp3
 70
     1
102
RTVSPropertyOp4
 70
     1
102
RTVSPropertyOp5
 70
     1
102
RTVSPropertyOp6
 70
     1
102
RTVSPropertyOp7
 70
     1
102
RTVSPropertyOp8
 70
     1
102
RTVSPropertyOp9
 70
     1
102
RTVSPropertyOp10
 70
     1
102
RTVSPropertyOp11
 70
     1
102
RTVSPropertyOp12
 70
     1
102
RTVSPropertyOp13
 70
     1
102
RTVSPropertyOp14
 70
     1
102
RTVSPropertyOp15
 70
     1
102
RTVSPropertyOp16
 70
     1
102
RTVSPropertyOp17
 70
     1
102
RTVSPropertyOp18
 70
     1
102
RTVSPropertyOp19
 70
     1
102
RTVSPropertyOp20
 70
     1
102
RTVSPropertyOp21
 70
     1
102
RTVSPropertyOp22
 70
     1
102
RTVSPropertyOp23
 70
     1
102
RTVSPropertyOp24
 70
     1
102
RTVSPropertyOp25
 70
     1
102
RTVSPropertyOp26
 70
     1
102
RTVSPropertyOp27
 70
     1
102
RTVSPropertyOp28
 70
     1
102
RTVSPropertyOp29
 70
     1
102
RTVSPropertyOp30
 70
     1
102
RTVSPropertyOp31
 70
     1
102
RTVSPropertyOp32
 70
     1
  0
XRECORD
  5
67
102
{ACAD_REACTORS
330
66
102
}
330
66
100
AcDbXrecord
280
     1
102
RTVSPropertyOp0
 70
     1
102
RTVSPropertyOp1
 70
     1
102
RTVSPropertyOp2
 70
     1
102
RTVSPropertyOp3
 70
     1
102
RTVSPropertyOp4
 70
     1
102
RTVSPropertyOp5
 70
     1
102
RTVSPropertyOp6
 70
     1
102
RTVSPropertyOp7
 70
     1
102
RTVSPropertyOp8
 70
     1
102
RTVSPropertyOp9
 70
     1
102
RTVSPropertyOp10
 70
     1
102
RTVSPropertyOp11
 70
     1
102
RTVSPropertyOp12
 70
     1
102
RTVSPropertyOp13
 70
     1
102
RTVSPropertyOp14
 70
     1
102
RTVSPropertyOp15
 70
     1
102
RTVSPropertyOp16
 70
     1
102
RTVSPropertyOp17
 70
     1
102
RTVSPropertyOp18
 70
     1
102
RTVSPropertyOp19
 70
     1
102
RTVSPropertyOp20
 70
     1
102
RTVSPropertyOp21
 70
     1
102
RTVSPropertyOp22
 70
     1
102
RTVSPropertyOp23
 70
     1
102
RTVSPropertyOp24
 70
     1
102
RTVSPropertyOp25
 70
     1
102
RTVSPropertyOp26
 70
     1
102
RTVSPropertyOp27
 70
     1
102
RTVSPropertyOp28
 70
     1
102
RTVSPropertyOp29
 70
     1
102
RTVSPropertyOp30
 70
     1
102
RTVSPropertyOp31
 70
     1
102
RTVSPropertyOp32
 70
     1
  0
XRECORD
  5
6F
102
{ACAD_REACTORS
330
6E
102
}
330
6E
100
AcDbXrecord
280
     1
102
RTVSPropertyOp0
 70
     1
102
RTVSPropertyOp1
 70
     1
102
RTVSPropertyOp2
 70
     1
102
RTVSPropertyOp3
 70
     1
102
RTVSPropertyOp4
 70
     1
102
RTVSPropertyOp5
 70
     1
102
RTVSPropertyOp6
 70
     1
102
RTVSPropertyOp7
 70
     1
102
RTVSPropertyOp8
 70
     1
102
RTVSPropertyOp9
 70
     1
102
RTVSPropertyOp10
 70
     1
102
RTVSPropertyOp11
 70
     1
102
RTVSPropertyOp12
 70
     1
102
RTVSPropertyOp13
 70
     1
102
RTVSPropertyOp14
 70
     1
102
RTVSPropertyOp15
 70
     1
102
RTVSPropertyOp16
 70
     1
102
RTVSPropertyOp17
 70
     1
102
RTVSPropertyOp18
 70
     1
102
RTVSPropertyOp19
 70
     1
102
RTVSPropertyOp20
 70
     1
102
RTVSPropertyOp21
 70
     1
102
RTVSPropertyOp22
 70
     1
102
RTVSPropertyOp23
 70
     1
102
RTVSPropertyOp24
 70
     1
102
RTVSPropertyOp25
 70
     1
102
RTVSPropertyOp26
 70
     1
102
RTVSPropertyOp27
 70
     1
102
RTVSPropertyOp28
 70
     1
102
RTVSPropertyOp29
 70
     1
102
RTVSPropertyOp30
 70
     1
102
RTVSPropertyOp31
 70
     1
102
RTVSPropertyOp32
 70
     1
  0
XRECORD
  5
53
102
{ACAD_REACTORS
330
52
102
}
330
52
100
AcDbXrecord
280
     1
102
RTVSPropertyOp0
 70
     1
102
RTVSPropertyOp1
 70
     1
102
RTVSPropertyOp2
 70
     1
102
RTVSPropertyOp3
 70
     1
102
RTVSPropertyOp4
 70
     1
102
RTVSPropertyOp5
 70
     1
102
RTVSPropertyOp6
 70
     1
102
RTVSPropertyOp7
 70
     1
102
RTVSPropertyOp8
 70
     1
102
RTVSPropertyOp9
 70
     1
102
RTVSPropertyOp10
 70
     1
102
RTVSPropertyOp11
 70
     1
102
RTVSPropertyOp12
 70
     1
102
RTVSPropertyOp13
 70
     1
102
RTVSPropertyOp14
 70
     1
102
RTVSPropertyOp15
 70
     1
102
RTVSPropertyOp16
 70
     1
102
RTVSPropertyOp17
 70
     1
102
RTVSPropertyOp18
 70
     1
102
RTVSPropertyOp19
 70
     1
102
RTVSPropertyOp20
 70
     1
102
RTVSPropertyOp21
 70
     1
102
RTVSPropertyOp22
 70
     1
102
RTVSPropertyOp23
 70
     1
102
RTVSPropertyOp24
 70
     1
102
RTVSPropertyOp25
 70
     1
102
RTVSPropertyOp26
 70
     1
102
RTVSPropertyOp27
 70
     1
102
RTVSPropertyOp28
 70
     1
102
RTVSPropertyOp29
 70
     1
102
RTVSPropertyOp30
 70
     1
102
RTVSPropertyOp31
 70
     1
102
RTVSPropertyOp32
 70
     1
  0
XRECORD
  5
55
102
{ACAD_REACTORS
330
54
102
}
330
54
100
AcDbXrecord
280
     1
102
RTVSPropertyOp0
 70
     1
102
RTVSPropertyOp1
 70
     1
102
RTVSPropertyOp2
 70
     1
102
RTVSPropertyOp3
 70
     1
102
RTVSPropertyOp4
 70
     1
102
RTVSPropertyOp5
 70
     1
102
RTVSPropertyOp6
 70
     1
102
RTVSPropertyOp7
 70
     1
102
RTVSPropertyOp8
 70
     1
102
RTVSPropertyOp9
 70
     1
102
RTVSPropertyOp10
 70
     1
102
RTVSPropertyOp11
 70
     1
102
RTVSPropertyOp12
 70
     1
102
RTVSPropertyOp13
 70
     1
102
RTVSPropertyOp14
 70
     1
102
RTVSPropertyOp15
 70
     1
102
RTVSPropertyOp16
 70
     1
102
RTVSPropertyOp17
 70
     1
102
RTVSPropertyOp18
 70
     1
102
RTVSPropertyOp19
 70
     1
102
RTVSPropertyOp20
 70
     1
102
RTVSPropertyOp21
 70
     1
102
RTVSPropertyOp22
 70
     1
102
RTVSPropertyOp23
 70
     1
102
RTVSPropertyOp24
 70
     1
102
RTVSPropertyOp25
 70
     1
102
RTVSPropertyOp26
 70
     1
102
RTVSPropertyOp27
 70
     1
102
RTVSPropertyOp28
 70
     1
102
RTVSPropertyOp29
 70
     1
102
RTVSPropertyOp30
 70
     1
102
RTVSPropertyOp31
 70
     1
102
RTVSPropertyOp32
 70
     1
  0
XRECORD
  5
57
102
{ACAD_REACTORS
330
56
102
}
330
56
100
AcDbXrecord
280
     1
102
RTVSPropertyOp0
 70
     1
102
RTVSPropertyOp1
 70
     1
102
RTVSPropertyOp2
 70
     1
102
RTVSPropertyOp3
 70
     1
102
RTVSPropertyOp4
 70
     1
102
RTVSPropertyOp5
 70
     1
102
RTVSPropertyOp6
 70
     1
102
RTVSPropertyOp7
 70
     1
102
RTVSPropertyOp8
 70
     1
102
RTVSPropertyOp9
 70
     1
102
RTVSPropertyOp10
 70
     1
102
RTVSPropertyOp11
 70
     1
102
RTVSPropertyOp12
 70
     1
102
RTVSPropertyOp13
 70
     1
102
RTVSPropertyOp14
 70
     1
102
RTVSPropertyOp15
 70
     1
102
RTVSPropertyOp16
 70
     1
102
RTVSPropertyOp17
 70
     1
102
RTVSPropertyOp18
 70
     1
102
RTVSPropertyOp19
 70
     1
102
RTVSPropertyOp20
 70
     1
102
RTVSPropertyOp21
 70
     1
102
RTVSPropertyOp22
 70
     1
102
RTVSPropertyOp23
 70
     1
102
RTVSPropertyOp24
 70
     1
102
RTVSPropertyOp25
 70
     1
102
RTVSPropertyOp26
 70
     1
102
RTVSPropertyOp27
 70
     1
102
RTVSPropertyOp28
 70
     1
102
RTVSPropertyOp29
 70
     1
102
RTVSPropertyOp30
 70
     1
102
RTVSPropertyOp31
 70
     1
102
RTVSPropertyOp32
 70
     1
  0
XRECORD
  5
59
102
{ACAD_REACTORS
330
58
102
}
330
58
100
AcDbXrecord
280
     1
102
RTVSPropertyOp0
 70
     1
102
RTVSPropertyOp1
 70
     1
102
RTVSPropertyOp2
 70
     1
102
RTVSPropertyOp3
 70
     1
102
RTVSPropertyOp4
 70
     1
102
RTVSPropertyOp5
 70
     1
102
RTVSPropertyOp6
 70
     1
102
RTVSPropertyOp7
 70
     1
102
RTVSPropertyOp8
 70
     1
102
RTVSPropertyOp9
 70
     1
102
RTVSPropertyOp10
 70
     1
102
RTVSPropertyOp11
 70
     1
102
RTVSPropertyOp12
 70
     1
102
RTVSPropertyOp13
 70
     1
102
RTVSPropertyOp14
 70
     1
102
RTVSPropertyOp15
 70
     1
102
RTVSPropertyOp16
 70
     1
102
RTVSPropertyOp17
 70
     1
102
RTVSPropertyOp18
 70
     1
102
RTVSPropertyOp19
 70
     1
102
RTVSPropertyOp20
 70
     1
102
RTVSPropertyOp21
 70
     1
102
RTVSPropertyOp22
 70
     1
102
RTVSPropertyOp23
 70
     1
102
RTVSPropertyOp24
 70
     1
102
RTVSPropertyOp25
 70
     1
102
RTVSPropertyOp26
 70
     1
102
RTVSPropertyOp27
 70
     1
102
RTVSPropertyOp28
 70
     1
102
RTVSPropertyOp29
 70
     1
102
RTVSPropertyOp30
 70
     1
102
RTVSPropertyOp31
 70
     1
102
RTVSPropertyOp32
 70
     1
  0
XRECORD
  5
6D
102
{ACAD_REACTORS
330
6C
102
}
330
6C
100
AcDbXrecord
280
     1
102
RTVSPropertyOp0
 70
     1
102
RTVSPropertyOp1
 70
     1
102
RTVSPropertyOp2
 70
     1
102
RTVSPropertyOp3
 70
     1
102
RTVSPropertyOp4
 70
     1
102
RTVSPropertyOp5
 70
     1
102
RTVSPropertyOp6
 70
     1
102
RTVSPropertyOp7
 70
     1
102
RTVSPropertyOp8
 70
     1
102
RTVSPropertyOp9
 70
     1
102
RTVSPropertyOp10
 70
     1
102
RTVSPropertyOp11
 70
     1
102
RTVSPropertyOp12
 70
     1
102
RTVSPropertyOp13
 70
     1
102
RTVSPropertyOp14
 70
     1
102
RTVSPropertyOp15
 70
     1
102
RTVSPropertyOp16
 70
     1
102
RTVSPropertyOp17
 70
     1
102
RTVSPropertyOp18
 70
     1
102
RTVSPropertyOp19
 70
     1
102
RTVSPropertyOp20
 70
     1
102
RTVSPropertyOp21
 70
     1
102
RTVSPropertyOp22
 70
     1
102
RTVSPropertyOp23
 70
     1
102
RTVSPropertyOp24
 70
     1
102
RTVSPropertyOp25
 70
     1
102
RTVSPropertyOp26
 70
     1
102
RTVSPropertyOp27
 70
     1
102
RTVSPropertyOp28
 70
     1
102
RTVSPropertyOp29
 70
     1
102
RTVSPropertyOp30
 70
     1
102
RTVSPropertyOp31
 70
     1
102
RTVSPropertyOp32
 70
     1
  0
XRECORD
  5
63
102
{ACAD_REACTORS
330
62
102
}
330
62
100
AcDbXrecord
280
     1
102
RTVSPropertyOp0
 70
     1
102
RTVSPropertyOp1
 70
     1
102
RTVSPropertyOp2
 70
     1
102
RTVSPropertyOp3
 70
     1
102
RTVSPropertyOp4
 70
     1
102
RTVSPropertyOp5
 70
     1
102
RTVSPropertyOp6
 70
     1
102
RTVSPropertyOp7
 70
     1
102
RTVSPropertyOp8
 70
     1
102
RTVSPropertyOp9
 70
     1
102
RTVSPropertyOp10
 70
     1
102
RTVSPropertyOp11
 70
     1
102
RTVSPropertyOp12
 70
     1
102
RTVSPropertyOp13
 70
     1
102
RTVSPropertyOp14
 70
     1
102
RTVSPropertyOp15
 70
     1
102
RTVSPropertyOp16
 70
     1
102
RTVSPropertyOp17
 70
     1
102
RTVSPropertyOp18
 70
     1
102
RTVSPropertyOp19
 70
     1
102
RTVSPropertyOp20
 70
     1
102
RTVSPropertyOp21
 70
     1
102
RTVSPropertyOp22
 70
     1
102
RTVSPropertyOp23
 70
     1
102
RTVSPropertyOp24
 70
     1
102
RTVSPropertyOp25
 70
     1
102
RTVSPropertyOp26
 70
     1
102
RTVSPropertyOp27
 70
     1
102
RTVSPropertyOp28
 70
     1
102
RTVSPropertyOp29
 70
     1
102
RTVSPropertyOp30
 70
     1
102
RTVSPropertyOp31
 70
     1
102
RTVSPropertyOp32
 70
     1
  0
XRECORD
  5
6B
102
{ACAD_REACTORS
330
6A
102
}
330
6A
100
AcDbXrecord
280
     1
102
RTVSPropertyOp0
 70
     1
102
RTVSPropertyOp1
 70
     1
102
RTVSPropertyOp2
 70
     1
102
RTVSPropertyOp3
 70
     1
102
RTVSPropertyOp4
 70
     1
102
RTVSPropertyOp5
 70
     1
102
RTVSPropertyOp6
 70
     1
102
RTVSPropertyOp7
 70
     1
102
RTVSPropertyOp8
 70
     1
102
RTVSPropertyOp9
 70
     1
102
RTVSPropertyOp10
 70
     1
102
RTVSPropertyOp11
 70
     1
102
RTVSPropertyOp12
 70
     1
102
RTVSPropertyOp13
 70
     1
102
RTVSPropertyOp14
 70
     1
102
RTVSPropertyOp15
 70
     1
102
RTVSPropertyOp16
 70
     1
102
RTVSPropertyOp17
 70
     1
102
RTVSPropertyOp18
 70
     1
102
RTVSPropertyOp19
 70
     1
102
RTVSPropertyOp20
 70
     1
102
RTVSPropertyOp21
 70
     1
102
RTVSPropertyOp22
 70
     1
102
RTVSPropertyOp23
 70
     1
102
RTVSPropertyOp24
 70
     1
102
RTVSPropertyOp25
 70
     1
102
RTVSPropertyOp26
 70
     1
102
RTVSPropertyOp27
 70
     1
102
RTVSPropertyOp28
 70
     1
102
RTVSPropertyOp29
 70
     1
102
RTVSPropertyOp30
 70
     1
102
RTVSPropertyOp31
 70
     1
102
RTVSPropertyOp32
 70
     1
  0
ENDSEC
  0
EOF
