<?xml version="1.0" encoding="UTF-8"?>
<!DOCTYPE svg PUBLIC "-//W3C//DTD SVG 1.1//EN" "http://www.w3.org/Graphics/SVG/1.1/DTD/svg11.dtd">
<!-- Creator: CorelDRAW -->
<svg xmlns="http://www.w3.org/2000/svg" xml:space="preserve" width="250mm" height="250mm" style="shape-rendering:geometricPrecision; text-rendering:geometricPrecision; image-rendering:optimizeQuality; fill-rule:evenodd; clip-rule:evenodd"
viewBox="0 0 250 250">
 <defs>
  <style type="text/css">
   <![CDATA[
    .str0 {stroke:#1F1A17;stroke-width:0.0762}
    .str1 {stroke:#009F3C;stroke-width:0.0762}
    .str2 {stroke:#131516;stroke-width:0.0762}
    .fil0 {fill:none}
   ]]>
  </style>
 </defs>
 <g id="Cut">
  <metadata id="CorelCorpID_0Corel-Layer"/>
  <g id="_170668560">
   <rect id="Origin" class="fil0 str0" x="0.0655" y="0.0579" width="0.2179" height="0.175639"/>
   <g>
    <path id="_170720792" class="fil0 str1" d="M122.248 3.3477l11.44 0 0 -2.9996 9.32 0 0 2.9996 11.44 0 0 11.4418 3 0 0 -14.4414c6.7569,1.1201 12,9.2436 12,19.1 0,9.8564 -5.2431,17.9799 -12,19.1l0 -14.4416 -3 0 0 11.4412 -11.44 0 0 3.0004 -9.32 0 0 -3.0004 -11.44 0 0 -11.4412 -3 -0.0001 0 14.4417c-6.7569,-1.1201 -12,-9.2436 -12,-19.1 0,-9.8564 5.2431,-17.9799 12,-19.1l0 14.4414 3 0 0 -11.4418z"/>
    <circle id="_170720744" class="fil0 str2" cx="113.247" cy="19.4481" r="1.5"/>
    <circle id="_170720696" class="fil0 str2" cx="163.447" cy="19.4481" r="1.5"/>
    <path id="_170720648" class="fil0 str2" d="M142.848 26.9481l-9 0c-1.65,0 -3,-1.35 -3,-3l0 -9c0,-1.65 1.35,-3 3,-3l9 0c1.6501,0 3,1.35 3,3l0 9c0,1.65 -1.3499,3 -3,3z"/>
   </g>
   <g>
    <path id="_170720552" class="fil0 str1" d="M194.312 15.0235l0 -3.4412 -3 0 0 -5 3 0 0 -6.0002c6.7569,1.1201 12,9.2436 12,19.1 0,9.8564 -5.2431,17.9799 -12,19.1l0 -5.9998 -3 0 0 -5 3 0 0 -3.4418 0 -9.317z"/>
    <ellipse id="_170720504" class="fil0 str2" cx="200.312" cy="19.6821" rx="1.25" ry="1.25004"/>
   </g>
   <g>
    <path id="_170720408" class="fil0 str1" d="M184.136 24.2447l0 3.4412 3 0 0 5 -3 0 0 6.0002c-6.7569,-1.1201 -12,-9.2436 -12,-19.1 0,-9.8564 5.2431,-17.9799 12,-19.1l0 5.9998 3 0 0 5 -3 0 0 3.4418 0 9.317z"/>
    <ellipse id="_170720360" class="fil0 str2" cx="178.136" cy="19.5861" rx="1.25" ry="1.25004"/>
   </g>
   <g>
    <polyline id="_170720264" class="fil0 str1" points="221.29,40.0199 218.29,40.0199 218.29,35.0197 221.29,35.0197 221.29,18.4197 218.29,18.4197 218.29,13.4199 221.29,13.4199 "/>
    <ellipse id="_170720216" class="fil0 str2" transform="matrix(1.1375E-014 -0.429494 0.67491 1.78747E-014 225.04 26.7199)" rx="2.9104" ry="1.8521"/>
    <line id="_170720168" class="fil0 str1" x1="221.29" y1="14.2199" x2="221.365" y2= "14.2199" />
    <polyline id="_170720120" class="fil0 str1" points="221.29,40.0199 228.765,34.2199 228.765,26.7199 "/>
    <polyline id="_170720072" class="fil0 str1" points="221.29,13.4199 228.765,19.2199 228.765,26.7199 "/>
   </g>
   <g>
    <polygon id="_170719976" class="fil0 str1" points="104.604,119.024 99.2039,119.024 99.2039,116.024 92.4036,116.024 92.4036,119.024 81.6036,119.024 81.6036,116.024 70.8037,116.024 70.8037,119.024 60.0037,119.024 60.0037,116.024 49.2037,116.024 49.2037,119.024 38.4037,119.024 38.4037,116.024 27.6038,116.024 27.6038,119.024 16.8038,119.024 16.8038,116.024 6.0038,116.024 6.0038,119.024 0.6039,119.024 0.6039,105.583 3.6037,105.583 3.6037,94.2661 0.6039,94.2661 0.6039,80.8241 6.0038,80.8241 6.0038,83.8241 16.8038,83.8241 16.8038,80.8241 27.6038,80.8241 27.6038,83.8241 38.4037,83.8241 38.4037,80.8241 49.2037,80.8241 49.2037,83.8241 60.0037,83.8241 60.0037,80.8241 70.8037,80.8241 70.8037,83.8241 81.6036,83.8241 81.6036,80.8241 92.4036,80.8241 92.4036,83.8241 99.2037,83.8241 99.2039,80.8241 104.604,80.8241 104.604,95.2656 101.604,95.2656 101.604,104.583 104.604,104.583 "/>
    <polygon id="_170719928" class="fil0 str2" points="98.6039,113.036 101.604,113.036 101.604,108.036 98.6039,108.036 "/>
    <polygon id="_170719880" class="fil0 str2" points="98.6039,91.8239 101.604,91.8239 101.604,86.8239 98.6039,86.8239 "/>
    <polygon id="_170697968" class="fil0 str2" points="62.9037,86.8239 67.9037,86.8239 67.9037,83.8239 62.9037,83.8239 "/>
    <polygon id="_170697920" class="fil0 str2" points="41.3037,86.8239 46.3037,86.8239 46.3037,83.8239 41.3037,83.8239 "/>
   </g>
   <path id="_170697848" class="fil0 str2" d="M54.5587 70.0343c0.8284,0 1.5,0.6716 1.5,1.5 0,0.8284 -0.6716,1.5 -1.5,1.5 -0.8284,0 -1.5,-0.6716 -1.5,-1.5 0,-0.8284 0.6716,-1.5 1.5,-1.5z"/>
   <path id="_170697800" class="fil0 str2" d="M54.5587 45.3343c0.8284,0 1.5,0.6716 1.5,1.5 0,0.8284 -0.6716,1.5 -1.5,1.5 -0.8284,0 -1.5,-0.6716 -1.5,-1.5 0,-0.8284 0.6716,-1.5 1.5,-1.5z"/>
   <path id="_170697752" class="fil0 str1" d="M81.5587 75.2843l10.8 0 0 2.9998 6.8 0 0 -2.9998 5.4 0 0 -11.4415 -3 0 0 -9.317 3 0 0 -11.4415 -5.4001 0 0.0001 -2.9998 -6.8 0 0 2.9998 -10.8 0m-54 0l-10.8 0 0 -2.9998 -10.8 0 0 2.9998 -5.4 0 0 11.4415 3 0 0 9.317 -3 0 0 11.4415 5.4 0 0 2.9998 10.8 0 0 -2.9998 10.8 0 0 2.9998 10.8 0"/>
   <line id="_170697704" class="fil0 str1" x1="38.3587" y1="78.2841" x2="38.3587" y2= "75.2843" />
   <line id="_170697656" class="fil0 str1" x1="38.3587" y1="75.2843" x2="49.1587" y2= "75.2843" />
   <line id="_170697608" class="fil0 str1" x1="49.1587" y1="75.2843" x2="49.1587" y2= "78.2841" />
   <line id="_170697560" class="fil0 str1" x1="49.1587" y1="78.2841" x2="59.9587" y2= "78.2841" />
   <line id="_170697512" class="fil0 str1" x1="59.9587" y1="78.2841" x2="59.9587" y2= "75.2843" />
   <line id="_170697464" class="fil0 str1" x1="59.9587" y1="75.2843" x2="70.7587" y2= "75.2843" />
   <line id="_170697416" class="fil0 str1" x1="70.7587" y1="75.2843" x2="70.7587" y2= "78.2841" />
   <line id="_170697368" class="fil0 str1" x1="81.5587" y1="75.2843" x2="81.5586" y2= "78.2841" />
   <line id="_170697320" class="fil0 str1" x1="81.5586" y1="78.2841" x2="70.7587" y2= "78.2841" />
   <line id="_170697272" class="fil0 str1" x1="81.5587" y1="43.0843" x2="81.5587" y2= "40.0845" />
   <line id="_170697224" class="fil0 str1" x1="81.5587" y1="40.0845" x2="70.7587" y2= "40.0845" />
   <line id="_170697176" class="fil0 str1" x1="70.7587" y1="43.0843" x2="70.7587" y2= "40.0845" />
   <line id="_170697128" class="fil0 str1" x1="70.7587" y1="43.0843" x2="59.9587" y2= "43.0843" />
   <line id="_170697080" class="fil0 str1" x1="59.9587" y1="43.0843" x2="59.9587" y2= "40.0845" />
   <line id="_170697032" class="fil0 str1" x1="59.9587" y1="40.0845" x2="49.1587" y2= "40.0845" />
   <line id="_170696984" class="fil0 str1" x1="49.1587" y1="40.0845" x2="49.1587" y2= "43.0843" />
   <line id="_170696936" class="fil0 str1" x1="49.1587" y1="43.0843" x2="38.3587" y2= "43.0843" />
   <line id="_170696888" class="fil0 str1" x1="38.3587" y1="43.0843" x2="38.3587" y2= "40.0845" />
   <line id="_170696840" class="fil0 str1" x1="38.3587" y1="40.0845" x2="27.5587" y2= "40.0845" />
   <line id="_170696792" class="fil0 str1" x1="27.5587" y1="40.0845" x2="27.5587" y2= "42.8796" />
   <path id="_170696744" class="fil0 str2" d="M24.0587 59.1843c1.1045,0 2,0.8955 2,2 0,1.1045 -0.8955,2 -2,2 -1.1045,0 -2,-0.8955 -2,-2 0,-1.1045 0.8955,-2 2,-2z"/>
   <circle id="_170696696" class="fil0 str2" cx="54.5587" cy="62.7843" r="2.75"/>
   <circle id="_170696648" class="fil0 str2" cx="43.95" cy="62.7842" r="2.75"/>
   <path id="_170696600" class="fil0 str2" d="M34.2587 60.6843c0.5523,0 1,0.4477 1,1 0,0.5523 -0.4477,1 -1,1 -0.5523,0 -1,-0.4477 -1,-1 0,-0.5523 0.4477,-1 1,-1z"/>
   <g>
    <polygon id="_170696552" class="fil0 str2" points="71.5367,46.186 74.5367,46.186 74.5367,51.146 71.5367,51.146 "/>
    <polygon id="_170696504" class="fil0 str2" points="71.5367,67.146 74.5367,67.146 74.5367,72.106 71.5367,72.106 "/>
   </g>
   <g id="layer1" ߾>
    < />
   </g>
   <g id="g3503" ߾>
    < />
   </g>
   <g>
    <polygon id="_170696168" class="fil0 str1" points="107.92,85.0122 113.32,85.0121 113.32,82.0121 124.12,82.0121 124.12,85.0121 134.92,85.0121 134.92,82.0121 145.72,82.0121 145.72,85.0121 156.52,85.0122 156.52,82.0121 167.32,82.0121 167.32,85.0121 178.12,85.0122 178.12,82.0121 188.92,82.0121 188.92,85.0121 199.72,85.0122 199.72,82.0121 206.52,82.0121 206.52,85.0121 211.92,85.0121 211.92,96.1121 208.92,96.1121 208.92,106.112 211.92,106.112 211.92,117.212 206.52,117.212 206.52,120.212 199.72,120.212 199.72,117.212 188.92,117.212 188.92,120.212 178.12,120.212 178.12,117.212 167.32,117.212 167.32,120.212 156.52,120.212 156.52,117.212 145.72,117.212 145.72,120.212 134.92,120.212 134.92,117.212 124.12,117.212 124.12,120.212 113.32,120.212 113.32,117.212 107.92,117.212 107.92,115.344 107.92,112.332 110.92,112.332 110.92,107.562 107.92,107.562 107.92,94.6522 110.92,94.6521 110.92,89.8821 107.92,89.8821 107.92,86.8803 "/>
    <polygon id="_170696120" class="fil0 str2" points="178.92,88.1521 181.92,88.1521 181.92,93.1121 178.92,93.1121 "/>
    <polygon id="_170696072" class="fil0 str2" points="178.92,109.112 181.92,109.112 181.92,114.072 178.92,114.072 "/>
    <path id="_170696024" class="fil0 str2" d="M162.42 103.712c0.8284,0 1.5,0.6716 1.5,1.5 0,0.8284 -0.6716,1.5 -1.5,1.5 -0.8284,0 -1.5,-0.6716 -1.5,-1.5 0,-0.8284 0.6716,-1.5 1.5,-1.5z"/>
    <path id="_170670192" class="fil0 str2" d="M155.42 103.712c0.8284,0 1.5,0.6716 1.5,1.5 0,0.8284 -0.6716,1.5 -1.5,1.5 -0.8284,0 -1.5,-0.6716 -1.5,-1.5 0,-0.8284 0.6716,-1.5 1.5,-1.5z"/>
    <path id="_170670144" class="fil0 str2" d="M148.42 103.712c0.8284,0 1.5,0.6716 1.5,1.5 0,0.8284 -0.6716,1.5 -1.5,1.5 -0.8284,0 -1.5,-0.6716 -1.5,-1.5 0,-0.8284 0.6716,-1.5 1.5,-1.5z"/>
   </g>
   <g>
    <polyline id="_170670072" class="fil0 str1" points="216.114,2.2701 219.114,2.2701 219.115,7.2703 216.115,7.2703 216.115,23.8703 219.114,23.8703 219.114,28.8701 216.114,28.8701 "/>
    <ellipse id="_170670024" class="fil0 str2" transform="matrix(-3.38388E-014 0.429494 -0.67491 -5.31744E-014 212.364 15.5701)" rx="2.9104" ry="1.8521"/>
    <line id="_170669976" class="fil0 str1" x1="216.114" y1="28.0701" x2="216.039" y2= "28.0701" />
    <polyline id="_170669928" class="fil0 str1" points="216.114,2.2701 208.639,8.0701 208.639,15.5701 "/>
    <polyline id="_170669880" class="fil0 str1" points="216.114,28.8701 208.639,23.0701 208.639,15.5701 "/>
   </g>
   <g id="layer1_0" ߾>
    < />
   </g>
   <g id="g3503_1" ߾>
    < />
   </g>
   <g>
    <polygon id="_170669544" class="fil0 str1" points="70.1379,3.1401 81.5794,3.1401 81.5794,0.14 90.8965,0.14 90.8965,3.1401 96.6171,3.1401 102.338,3.1401 102.338,8.5818 105.338,8.5817 105.338,13.582 93.3378,13.582 93.3379,24.899 105.338,24.899 105.338,29.8988 102.338,29.8988 102.338,35.3401 97.4648,35.3401 97.4648,38.3399 92.6911,38.3399 92.691,35.3401 79.7857,35.3401 79.7857,38.34 75.0109,38.3399 75.0109,35.3401 70.1379,35.3401 70.1379,24.899 67.1379,24.899 67.1379,13.582 70.1379,13.582 "/>
    <circle id="_170669496" class="fil0 str2" cx="79.1379" cy="19.2401" r="4.75"/>
   </g>
   <g>
    <polygon id="_170669424" class="fil0 str1" points="211.524,41.6201 206.124,41.6201 206.124,44.6202 199.324,44.6201 199.324,41.6201 188.524,41.6201 188.524,44.6201 177.724,44.6201 177.724,41.6201 166.924,41.6201 166.924,44.6202 156.124,44.6201 156.124,41.6201 145.324,41.6201 145.324,44.6202 134.524,44.6202 134.524,41.6201 123.724,41.6201 123.724,44.6202 112.924,44.6202 112.924,41.6201 107.524,41.6201 107.524,50.0615 110.524,50.0615 110.524,71.3785 107.524,71.3785 107.524,79.8201 112.924,79.8201 112.924,76.8201 123.724,76.8201 123.724,79.8201 134.524,79.8201 134.524,76.8201 145.324,76.8201 145.324,79.8201 156.124,79.8201 156.124,76.8201 166.924,76.8201 166.924,79.8201 177.724,79.8201 177.724,76.8201 188.524,76.8201 188.524,79.8201 199.324,79.8201 199.324,76.8201 206.124,76.8201 206.124,79.8201 211.524,79.8201 211.524,65.3786 208.524,65.3786 208.524,56.0616 211.524,56.0616 "/>
    <polygon id="_170669376" class="fil0 str2" points="205.524,47.6081 208.524,47.6081 208.524,52.6081 205.524,52.6081 "/>
    <polygon id="_170669328" class="fil0 str2" points="205.524,68.8203 208.524,68.8203 208.524,73.8203 205.524,73.8203 "/>
    <rect id="_170669280" class="fil0 str2" x="169.824" y="73.8203" width="5" height="3"/>
    <rect id="_170669232" class="fil0 str2" x="148.224" y="73.8203" width="5" height="3"/>
   </g>
   <g>
    <polygon id="_170669160" class="fil0 str1" points="0.0718,5.0401 2.0719,3.0401 3.2099,3.0401 3.2113,0.0801 8.1709,0.0801 8.1709,3.0401 24.1729,3.0401 24.1729,0.0801 29.1339,0.0801 29.1339,3.0401 30.2744,3.0401 32.2719,5.0401 32.2719,16.3635 32.2719,33.2401 30.2719,35.2401 29.1339,35.2401 29.1339,38.2001 24.1729,38.2001 24.1729,35.2401 8.1708,35.2401 8.1709,38.2001 3.2099,38.2001 3.2099,35.2401 2.0719,35.2401 0.0719,33.2401 "/>
    <path id="_170669112" class="fil0 str2" d="M6.2723 27.0067l5.5274 -5.5274c-0.3998,-0.7187 -0.6279,-1.5463 -0.6279,-2.4271 0,-0.8344 0.2046,-1.6209 0.5661,-2.3125l-5.4656 -5.4656 2.1213 -2.1214 5.4657 5.4657c0.6916,-0.3615 1.4781,-0.5662 2.3125,-0.5662 0.8808,0 1.7084,0.2281 2.4271,0.6279l5.3511 -5.3511 2.1213 2.1214 -5.4064 5.4064c0.3244,0.6627 0.5069,1.4077 0.5069,2.1954 0,0.8344 -0.2047,1.6209 -0.5662,2.3125l5.4657 5.4657 -2.1214 2.1213 -5.4656 -5.4656c-0.6916,0.3615 -1.4781,0.5661 -2.3125,0.5661 -0.7877,0 -1.5327,-0.1825 -2.1954,-0.5069l-5.5827 5.5827 -2.1214 -2.1213z"/>
    <circle id="_170669064" class="fil0 str2" cx="4.1718" cy="7.1421" r="1.6"/>
    <circle id="_170669016" class="fil0 str2" cx="28.1689" cy="7.1421" r="1.6"/>
    <circle id="_170668968" class="fil0 str2" cx="28.1689" cy="31.1421" r="1.6"/>
    <circle id="_170668920" class="fil0 str2" cx="4.1718" cy="31.1421" r="1.6"/>
   </g>
   <g>
    <polygon id="_170668848" class="fil0 str1" points="34.26,4.164 65.26,4.164 65.26,35.164 34.26,35.164 "/>
    <circle id="_170668800" class="fil0 str2" cx="37.76" cy="31.664" r="2.5"/>
    <circle id="_170668752" class="fil0 str2" cx="61.76" cy="31.664" r="2.5"/>
    <circle id="_170668704" class="fil0 str2" cx="37.76" cy="7.664" r="2.5"/>
    <circle id="_170668656" class="fil0 str2" cx="61.76" cy="7.664" r="2.5"/>
    <circle id="_170668608" class="fil0 str2" cx="49.76" cy="19.664" r="2.5"/>
   </g>
  </g>
 </g>
</svg>
