<?xml version="1.0" encoding="UTF-8" standalone="no"?>
<svg
   xmlns:dc="http://purl.org/dc/elements/1.1/"
   xmlns:cc="http://creativecommons.org/ns#"
   xmlns:rdf="http://www.w3.org/1999/02/22-rdf-syntax-ns#"
   xmlns:svg="http://www.w3.org/2000/svg"
   xmlns="http://www.w3.org/2000/svg"
   xmlns:sodipodi="http://sodipodi.sourceforge.net/DTD/sodipodi-0.dtd"
   xmlns:inkscape="http://www.inkscape.org/namespaces/inkscape"
   width="5.10001in"
   height="2.57334in"
   viewBox="0 0 1530 772"
   id="svg2"
   version="1.1"
   inkscape:version="0.48.4 r9939"
   sodipodi:docname="vect.svg">
  <metadata
     id="metadata9">
    <rdf:RDF>
      <cc:Work
         rdf:about="">
        <dc:format>image/svg+xml</dc:format>
        <dc:type
           rdf:resource="http://purl.org/dc/dcmitype/StillImage" />
      </cc:Work>
    </rdf:RDF>
  </metadata>
  <defs
     id="defs7" />
  <sodipodi:namedview
     pagecolor="#ffffff"
     bordercolor="#666666"
     borderopacity="1"
     objecttolerance="10"
     gridtolerance="10"
     guidetolerance="10"
     inkscape:pageopacity="0"
     inkscape:pageshadow="2"
     inkscape:window-width="1680"
     inkscape:window-height="1023"
     id="namedview5"
     showgrid="false"
     inkscape:zoom="1.0087127"
     inkscape:cx="514.12262"
     inkscape:cy="217.3172"
     inkscape:window-x="1911"
     inkscape:window-y="-9"
     inkscape:window-maximized="1"
     inkscape:current-layer="svg2" />
  <path
     id="path2986-1"
     transform="matrix(4.5231103,0,0,4.4240561,-498.9512,156.102)"
     style="fill:none;stroke:#000000;stroke-width:0.22354773;stroke-linecap:butt;stroke-linejoin:round;stroke-miterlimit:4;stroke-opacity:1"
     d="m 420.95003,76.154022 c 0,3.66133 -2.90309,6.629425 -6.48424,6.629425 -3.58115,0 -6.48424,-2.968095 -6.48424,-6.629425 0,-3.66133 2.90309,-6.629424 6.48424,-6.629424 3.58115,0 6.48424,2.968094 6.48424,6.629424 z m 0.0838,-49.705736 c 0,3.66133 -2.90309,6.629425 -6.48424,6.629425 -3.58115,0 -6.48424,-2.968095 -6.48424,-6.629425 0,-3.661329 2.90309,-6.629423 6.48424,-6.629423 3.58115,0 6.48424,2.968094 6.48424,6.629423 z m -39.66991,-54.499919 c 6.76304,-6.91447 17.39069,-9.231348 26.30933,-5.549207 3.95745,1.634247 6.59944,3.718308 9.48683,6.905428 5.77479,6.36972 7.3025,16.233971 5.00983,24.4119871 -0.58809,2.09762255 -1.82618,4.7377337 -3.00015,6.5550706 -0.41785,0.6442052 -1.55424,1.9461778 -1.3022,2.712443 0.19677,0.5989978 2.49386,2.8005973 3.0709,3.3905533 l 6.84484,7.233182 c 4.42395,4.735473 11.11404,13.175692 14.91452,18.535027 1.4857,2.093102 4.94792,6.690693 5.87649,8.81544 l -254.47092,0 0,-11.301846 35.59498,0 17.90803,0 3.3163,0.226037 42.0065,0 c 0.78928,-0.0023 3.08858,-0.07459 3.64572,-0.587696 0.48418,-0.445293 0.69642,-1.697537 0.85781,-2.350784 l 1.53877,-5.198849 c 2.75474,-8.447 5.72615,-15.7457319 10.47067,-23.2818027 7.74909,-12.3031894 18.5315,-21.5277563 32.5683,-25.1149613 5.36798,-1.369784 9.7853,-1.566436 15.25499,-1.557395 4.79316,0.0068 14.66247,1.891929 19.01346,3.842628 0.74727,-2.678538 3.18144,-5.739078 5.085,-7.685255 z m -161.61446,12.884104 0,5.6509227 -15.69716,0 0,9.0414767 11.27543,0 c 3.51086,0 3.74521,-0.29384799 3.75847,1.8082953 0.004,0.7368804 0.19014,3.1735583 -0.35374,3.61207 -0.35152,0.2825461 -1.19607,0.2305576 -1.63604,0.2305576 l -13.04412,0 0,14.0142887 -6.6326,0 0,-34.357611 z m 12.82304,0 0,28.480651 15.69716,0 0,5.87696 -22.32977,0 0,-34.357611 z m 26.7515,0 -0.22551,4.611153 -1.76427,0.361659 -3.75847,0 0,-4.972812 z m 16.13934,11.053205 c 3.4998,-1.9733022 10.3955,-1.5867791 12.52457,2.2829729 1.74879,3.1803394 1.59403,9.9569262 1.19386,13.5622151 -0.18571,1.679454 -0.70747,3.822284 -1.69794,5.194328 -2.17771,3.017593 -9.06456,3.196162 -12.02049,1.46698 -1.17618,-0.689413 -1.69795,-1.482802 -2.43196,-2.592644 l 0,13.788252 -4.42173,0 c -0.43112,-0.009 -1.02363,0.0226 -1.3221,-0.361659 -0.27636,-0.359398 -0.22551,-1.222859 -0.22551,-1.672673 l 0,-24.8640608 0,-5.6509229 c 0,-0.4498134 -0.0509,-1.3132745 0.22551,-1.6726732 0.3471,-0.4475531 1.25577,-0.361659 1.76427,-0.361659 l 2.43196,0 c 2.37226,0.045207 0.88877,1.0149057 1.5476,3.3905537 0.61684,-1.1731316 1.28452,-1.8602838 2.43196,-2.5090098 z m -17.68695,-0.8815439 1.3221,0.361659 0.22551,1.6726732 0,22.1516177 -5.74825,0 0,-24.1859499 z m 15.47608,9.7195874 c -0.0265,2.3100973 -0.43333,7.5677155 1.37295,9.1228495 0.76717,0.662289 1.85934,0.861201 2.8277,0.983261 0.66989,0.08589 1.54097,0.09042 2.21087,0 0.89098,-0.117539 1.91461,-0.345836 2.60661,-0.965178 1.6471,-1.4715 1.39727,-6.3222522 1.37295,-8.4628218 -0.0155,-1.2296408 -0.24762,-3.5284362 -0.9971,-4.49813461 -1.29115,-1.67267318 -4.19623,-1.50314549 -6.07768,-1.31101411 -2.81664,0.56283192 -3.28535,2.45024022 -3.3163,5.13103802 z m -152.54989,55.1530075 3.75847,0.226037 108.55362,0 40.01671,0 20.1189,0 3.31631,-0.226037 152.10772,0 c -0.87772,2.007208 -3.98399,6.159506 -5.3702,8.137329 -4.1299,5.895043 -10.38224,13.686535 -15.21077,18.987101 l -6.61271,7.007145 c -0.56598,0.578654 -2.89624,2.836763 -3.11732,3.390553 -0.325,0.811473 0.77601,2.038853 1.19607,2.712445 1.25578,2.02077 2.37448,4.68348 2.94488,7.00714 2.02958,8.3046 0.20782,17.66931 -5.6753,23.95992 -2.2175,2.37338 -3.97735,3.88557 -6.84484,5.40002 -9.24364,4.8824 -20.86618,3.24363 -28.29912,-4.26984 -1.74437,-1.76309 -4.16748,-4.57047 -4.86391,-7.00714 l -2.65304,0.80921 -7.95912,2.03433 c -8.06525,1.48958 -15.65516,1.37883 -23.65629,-0.45207 -19.65462,-4.50266 -32.45775,-20.94684 -40.07862,-39.009454 -1.55424,-3.684402 -4.94792,-13.422073 -5.46526,-17.178806 l -186.38502,0 0,-3.164517 -0.21224,-2.712443 0,-5.650923 z m 13.7317,25.768209 c 1.4039,-4.168121 6.11526,-4.398679 9.7035,-4.579508 l 1.76869,0 c 2.35237,0.151444 5.09384,0.293848 7.07036,1.783431 2.39658,1.806035 2.87413,7.16537 2.87855,10.029258 0.004,3.044717 -0.10612,7.721423 -2.07601,10.162623 -0.96172,1.19347 -2.2595,1.69979 -3.67225,2.10214 -2.76358,0.78209 -7.14331,0.78435 -9.94891,0.16501 -1.47022,-0.3255 -3.03331,-0.88607 -4.05031,-2.07276 -1.82617,-2.13153 -1.68026,-5.042885 -1.94777,-7.64457 -0.11497,-0.691673 -0.40017,-2.468323 0,-3.028895 0.38027,-0.447553 1.28894,-0.361659 1.79744,-0.361659 l 11.93868,0 c 0.55272,0 1.41496,0.07685 1.82618,-0.361659 0.74506,-0.793389 -0.0464,-4.005374 -0.64336,-4.828148 -1.16513,-1.609383 -3.16597,-1.611644 -4.94129,-1.5913 -1.27346,0.01582 -3.03774,0.169527 -3.79164,1.367523 -0.55935,0.888325 -0.21224,1.758567 -0.91972,2.113445 -0.30289,0.151445 -0.91751,0.133362 -1.25799,0.135622 l -4.20065,0 c 0.0199,-0.888325 0.18793,-2.570039 0.4665,-3.390553 z m 32.25435,13.110141 c 2.31478,0.04521 1.017,1.213818 2.4607,2.359823 0.91309,0.72558 2.61324,0.58092 3.72973,0.57866 1.81291,-0.002 4.17854,-0.42043 4.39742,-2.712446 0.31615,-3.315962 -3.57055,-2.850326 -5.72394,-2.947522 -2.14012,-0.09493 -7.0394,-0.497281 -8.50521,-2.099883 -1.05679,-1.152788 -1.40611,-3.137392 -1.44148,-4.672183 -0.042,-1.977823 0.36258,-4.624715 1.80627,-6.055529 1.84829,-1.830899 4.86613,-1.885148 7.25607,-2.120226 l 1.7687,-0.18535 c 1.0789,-0.02486 1.43706,0.08815 2.43195,0.18535 2.19318,0.214735 5.09605,0.203433 6.78074,1.921314 1.59624,1.625205 1.62056,3.903657 1.62056,6.028404 l -5.96934,-0.226037 c 1.00152,-4.391897 -5.63329,-4.40998 -7.95913,-3.261712 -1.13859,0.562832 -2.04063,1.683975 -1.81954,3.035676 0.48418,2.945261 3.67446,2.461542 5.79911,2.486406 l 1.98978,0.18761 c 2.34352,0.239599 5.20217,0.377482 6.70998,2.527093 0.7517,1.071415 1.01258,2.549696 1.02805,3.840367 0.0221,2.043374 0.13266,4.457448 -1.39947,6.028408 -1.65373,1.69753 -5.82785,2.0818 -8.10726,2.10892 -2.53365,0.0294 -7.8928,-0.0497 -9.65265,-2.05693 -1.11206,-1.26807 -1.38621,-3.30919 -1.40169,-4.950213 z m 43.47451,-14.466363 c 0.86003,1.514447 1.16513,4.129695 1.18503,5.87696 l 0,15.144476 -5.74826,0 0,-14.014291 c -0.0155,-1.225121 -0.19014,-3.560082 -0.97721,-4.491354 -1.28893,-1.525749 -4.51238,-1.385606 -6.09757,-0.43173 -0.88877,0.535707 -1.47907,1.268067 -1.91682,2.210641 -0.87993,1.891929 -0.73622,4.278878 -0.73622,6.329033 l 0,10.397701 -5.74826,0 0,-23.959916 5.74826,0 0,3.616591 c 1.9743,-5.153642 11.69107,-5.257619 14.29105,-0.678111 z m 27.91663,-1.107581 c 1.19829,1.207037 1.62278,2.854847 1.93451,4.498135 0.45986,2.683058 0.47755,8.616527 0,11.301846 -0.23435,1.489586 -0.68537,3.367946 -1.73995,4.480056 -1.86819,1.96878 -6.86254,2.33044 -9.46031,2.30105 -2.4408,-0.0294 -6.81389,-0.4792 -8.58038,-2.30105 -1.0988,-1.13245 -1.52992,-2.94979 -1.79301,-4.480056 -0.45765,-2.674017 -0.36258,-8.853866 0.16139,-11.527883 0.28521,-1.455678 0.80697,-3.18486 1.8505,-4.254015 2.12243,-2.169954 5.41442,-1.887408 8.14042,-2.185777 2.67957,-0.05425 7.51031,0.178569 9.48683,2.167694 z m 15.93815,-1.830899 0,21.925586 -0.22109,6.7811 c 0.95731,-4.28792 6.04009,-17.46813 7.87069,-22.151615 l 1.72448,-4.520739 c 0.19456,-0.497281 0.51955,-1.503145 0.93962,-1.810555 0.325,-0.237339 0.80033,-0.216996 1.18281,-0.223777 l 2.87413,0 c 0.46428,0 1.2403,-0.05651 1.62499,0.223777 0.44217,0.323233 0.82244,1.505406 1.017,2.036592 l 1.73553,4.520739 5.56033,14.466358 2.44301,7.23319 -0.22108,-5.42489 -0.22109,-3.61659 0,-19.439176 6.6326,0 0,26.446316 0,5.87696 -0.22551,1.67268 -1.76427,0.36166 -6.85369,0 -1.61393,-0.22378 -0.88877,-1.81056 -1.43486,-3.84262 -4.0901,-10.849776 -2.80559,-8.589403 -2.36342,7.233181 -4.41953,11.979958 -1.49012,4.06866 -0.9352,1.81056 -1.62499,0.22378 -8.84347,0 0,-34.357616 z m -29.03975,5.513041 c -0.59915,0.691673 -0.71411,1.745005 -0.83571,2.624288 -0.28741,2.088581 -0.21667,4.220109 -0.19235,6.329034 0.0133,1.16183 0.2034,3.135132 0.97721,4.021197 0.86224,0.987776 2.4408,1.161826 3.66562,1.177656 1.4658,0.0158 3.67667,0.0972 4.81527,-0.99231 0.72074,-0.691669 0.90866,-1.885144 1.02584,-2.850322 0.25646,-1.4715 0.18129,-6.170807 0,-7.685255 -0.17466,-1.003604 -0.30731,-2.095362 -1.06343,-2.843544 -1.12533,-1.116623 -4.1697,-1.078196 -5.66203,-0.933533 -0.94404,0.162747 -2.06274,0.379742 -2.73042,1.152789 z m -85.26213,8.953322 c 0,1.22286 0.0508,3.478708 0.85119,4.432583 0.45101,0.53571 1.14301,0.75948 1.80185,0.88607 1.50781,0.29384 5.44979,0.34809 6.54638,-0.84764 1.00595,-1.098542 0.97057,-3.060543 0.97057,-4.471013 z" />
</svg>
