  0
SECTION
  2
HEADER
  9
$ACADVER
  1
AC1014
  9
$HANDSEED
  5
FFFF
  9
$MEASUREMENT
 70
     1
  0
ENDSEC
  0
SECTION
  2
TABLES
  0
TABLE
  2
VPORT
  5
8
330
0
100
AcDbSymbolTable
 70
     4
  0
VPORT
  5
2E
330
8
100
AcDbSymbolTableRecord
100
AcDbViewportTableRecord
  2
*ACTIVE
 70
     0
 10
0.0
 20
0.0
 11
1.0
 21
1.0
 12
210.0
 22
148.5
 13
0.0
 23
0.0
 14
10.0
 24
10.0
 15
10.0
 25
10.0
 16
0.0
 26
0.0
 36
1.0
 17
0.0
 27
0.0
 37
0.0
 40
341.0
 41
1.24
 42
50.0
 43
0.0
 44
0.0
 50
0.0
 51
0.0
 71
     0
 72
   100
 73
     1
 74
     3
 75
     0
 76
     0
 77
     0
 78
     0
  0
ENDTAB
  0
TABLE
  2
LTYPE
  5
5
330
0
100
AcDbSymbolTable
 70
     1
  0
LTYPE
  5
14
330
5
100
AcDbSymbolTableRecord
100
AcDbLinetypeTableRecord
  2
BYBLOCK
 70
     0
  3

 72
    65
 73
     0
 40
0.0
  0
LTYPE
  5
15
330
5
100
AcDbSymbolTableRecord
100
AcDbLinetypeTableRecord
  2
BYLAYER
 70
     0
  3

 72
    65
 73
     0
 40
0.0
  0
LTYPE
  5
16
330
5
100
AcDbSymbolTableRecord
100
AcDbLinetypeTableRecord
  2
CONTINUOUS
 70
     0
  3
Solid line
 72
    65
 73
     0
 40
0.0
  0
ENDTAB
  0
TABLE
  2
LAYER
  5
2
100
AcDbSymbolTable
 70
1
  0
LAYER
  5
50
100
AcDbSymbolTableRecord
100
AcDbLayerTableRecord
  2
0
 70
0
  6
CONTINUOUS
  0
ENDTAB
  0
TABLE
  2
STYLE
  5
3
330
0
100
AcDbSymbolTable
 70
     1
  0
STYLE
  5
11
330
3
100
AcDbSymbolTableRecord
100
AcDbTextStyleTableRecord
  2
STANDARD
 70
     0
 40
0.0
 41
1.0
 50
0.0
 71
     0
 42
2.5
  3
txt
  4

  0
ENDTAB
  0
TABLE
  2
VIEW
  5
6
330
0
100
AcDbSymbolTable
 70
     0
  0
ENDTAB
  0
TABLE
  2
UCS
  5
7
330
0
100
AcDbSymbolTable
 70
     0
  0
ENDTAB
  0
TABLE
  2
APPID
  5
9
330
0
100
AcDbSymbolTable
 70
     2
  0
APPID
  5
12
330
9
100
AcDbSymbolTableRecord
100
AcDbRegAppTableRecord
  2
ACAD
 70
     0
  0
ENDTAB
  0
TABLE
  2
DIMSTYLE
  5
A
330
0
100
AcDbSymbolTable
 70
     1
  0
DIMSTYLE
105
27
330
A
100
AcDbSymbolTableRecord
100
AcDbDimStyleTableRecord
  2
ISO-25
 70
     0
  3

  4

  5

  6

  7

 40
1.0
 41
2.5
 42
0.625
 43
3.75
 44
1.25
 45
0.0
 46
0.0
 47
0.0
 48
0.0
140
2.5
141
2.5
142
0.0
143
0.03937007874016
144
1.0
145
0.0
146
1.0
147
0.625
 71
     0
 72
     0
 73
     0
 74
     0
 75
     0
 76
     0
 77
     1
 78
     8
170
     0
171
     3
172
     1
173
     0
174
     0
175
     0
176
     0
177
     0
178
     0
270
     2
271
     2
272
     2
273
     2
274
     3
340
11
275
     0
280
     0
281
     0
282
     0
283
     0
284
     8
285
     0
286
     0
287
     3
288
     0
  0
ENDTAB
  0
TABLE
  2
BLOCK_RECORD
  5
1
330
0
100
AcDbSymbolTable
 70
     1
  0
BLOCK_RECORD
  5
1F
330
1
100
AcDbSymbolTableRecord
100
AcDbBlockTableRecord
  2
*MODEL_SPACE
  0
BLOCK_RECORD
  5
1B
330
1
100
AcDbSymbolTableRecord
100
AcDbBlockTableRecord
  2
*PAPER_SPACE
  0
ENDTAB
  0
ENDSEC
  0
SECTION
  2
BLOCKS
  0
BLOCK
  5
20
330
1F
100
AcDbEntity
  8
0
100
AcDbBlockBegin
  2
*MODEL_SPACE
 70
     0
 10
0.0
 20
0.0
 30
0.0
  3
*MODEL_SPACE
  1

  0
ENDBLK
  5
21
330
1F
100
AcDbEntity
  8
0
100
AcDbBlockEnd
  0
BLOCK
  5
1C
330
1B
100
AcDbEntity
 67
     1
  8
0
100
AcDbBlockBegin
  2
*PAPER_SPACE
  1

  0
ENDBLK
  5
1D
330
1B
100
AcDbEntity
 67
     1
  8
0
100
AcDbBlockEnd
  0
ENDSEC
  0
SECTION
  2
ENTITIES
  0
SPLINE
  5
100
100
AcDbEntity
  8
0
 62
7
100
AcDbSpline
 70
0
 71
3
 72
19
 73
15
 74
13
 40
0.000000
 40
0.000000
 40
0.000000
 40
0.000000
 40
3.680387
 40
7.251614
 40
10.932001
 40
14.612388
 40
18.183615
 40
21.864002
 40
25.544389
 40
29.115616
 40
32.796003
 40
36.476390
 40
40.047617
 40
43.728004
 40
43.728004
 40
43.728004
 40
43.728004
 10
337.213406
 20
-59.033199
 30
0.0
 10
337.019941
 20
-60.274052
 30
0.0
 10
336.638751
 20
-62.718956
 30
0.0
 10
333.836422
 20
-65.410596
 30
0.0
 10
330.180904
 20
-66.407929
 30
0.0
 10
326.487006
 20
-65.410596
 30
0.0
 10
323.797539
 20
-62.718956
 30
0.0
 10
322.799470
 20
-59.033199
 30
0.0
 10
323.797539
 20
-55.347443
 30
0.0
 10
326.487006
 20
-52.655803
 30
0.0
 10
330.180904
 20
-51.658471
 30
0.0
 10
333.836422
 20
-52.655803
 30
0.0
 10
336.638751
 20
-55.347443
 30
0.0
 10
337.019941
 20
-57.792346
 30
0.0
 10
337.213406
 20
-59.033199
 30
0.0
 11
337.213406
 21
-59.033199
 31
0.0
 11
336.252382
 21
-62.585900
 31
0.0
 11
333.727144
 21
-65.111140
 31
0.0
 11
330.174443
 21
-66.072165
 31
0.0
 11
326.621743
 21
-65.111140
 31
0.0
 11
324.096505
 21
-62.585900
 31
0.0
 11
323.135481
 21
-59.033199
 31
0.0
 11
324.096505
 21
-55.480499
 31
0.0
 11
326.621743
 21
-52.955259
 31
0.0
 11
330.174443
 21
-51.994234
 31
0.0
 11
333.727144
 21
-52.955259
 31
0.0
 11
336.252382
 21
-55.480499
 31
0.0
 11
337.213406
 21
-59.033199
 31
0.0
  0
LWPOLYLINE
  5
101
100
AcDbEntity
  8
0
 62
7
100
AcDbPolyline
 90
1
 70
1
 10
337.213406
 20
-59.033199
 30
0.0
  0
SPLINE
  5
102
100
AcDbEntity
  8
0
 62
7
100
AcDbSpline
 70
0
 71
3
 72
19
 73
15
 74
13
 40
0.000000
 40
0.000000
 40
0.000000
 40
0.000000
 40
3.680387
 40
7.251614
 40
10.932001
 40
14.612388
 40
18.183615
 40
21.864002
 40
25.544389
 40
29.115615
 40
32.796002
 40
36.476389
 40
40.047616
 40
43.728002
 40
43.728002
 40
43.728002
 40
43.728002
 10
337.304375
 20
-6.256831
 30
0.0
 10
337.110910
 20
-7.497684
 30
0.0
 10
336.729720
 20
-9.942587
 30
0.0
 10
333.927391
 20
-12.634228
 30
0.0
 10
330.271873
 20
-13.631560
 30
0.0
 10
326.577975
 20
-12.634228
 30
0.0
 10
323.888508
 20
-9.942587
 30
0.0
 10
322.890439
 20
-6.256831
 30
0.0
 10
323.888508
 20
-2.571075
 30
0.0
 10
326.577976
 20
0.120564
 30
0.0
 10
330.271873
 20
1.117896
 30
0.0
 10
333.927391
 20
0.120564
 30
0.0
 10
336.729720
 20
-2.571075
 30
0.0
 10
337.110910
 20
-5.015978
 30
0.0
 10
337.304375
 20
-6.256831
 30
0.0
 11
337.304375
 21
-6.256831
 31
0.0
 11
336.343351
 21
-9.809532
 31
0.0
 11
333.818113
 21
-12.334771
 31
0.0
 11
330.265413
 21
-13.295797
 31
0.0
 11
326.712712
 21
-12.334771
 31
0.0
 11
324.187474
 21
-9.809532
 31
0.0
 11
323.226450
 21
-6.256831
 31
0.0
 11
324.187474
 21
-2.704131
 31
0.0
 11
326.712712
 21
-0.178892
 31
0.0
 11
330.265413
 21
0.782133
 31
0.0
 11
333.818113
 21
-0.178892
 31
0.0
 11
336.343351
 21
-2.704131
 31
0.0
 11
337.304375
 21
-6.256831
 31
0.0
  0
SPLINE
  5
103
100
AcDbEntity
  8
0
 62
7
100
AcDbSpline
 70
0
 71
3
 72
10
 73
6
 74
4
 40
0.000000
 40
0.000000
 40
0.000000
 40
0.000000
 40
10.224911
 40
20.406637
 40
30.649473
 40
30.649473
 40
30.649473
 40
30.649473
 10
294.240732
 20
51.609887
 30
0.0
 10
296.947352
 20
53.727743
 30
0.0
 10
302.349161
 20
57.954512
 30
0.0
 10
312.831790
 20
60.149475
 30
0.0
 10
319.471179
 20
58.386185
 30
0.0
 10
322.800807
 20
57.501903
 30
0.0
 11
294.240732
 21
51.609887
 31
0.0
 11
302.756663
 21
57.269191
 31
0.0
 11
312.724869
 21
59.343419
 31
0.0
 11
322.800807
 21
57.501903
 31
0.0
  0
SPLINE
  5
104
100
AcDbEntity
  8
0
 62
7
100
AcDbSpline
 70
0
 71
3
 72
10
 73
6
 74
4
 40
0.000000
 40
0.000000
 40
0.000000
 40
0.000000
 40
4.331583
 40
8.413603
 40
12.746969
 40
12.746969
 40
12.746969
 40
12.746969
 10
322.800807
 20
57.501903
 30
0.0
 10
324.120193
 20
56.907693
 30
0.0
 10
326.682951
 20
55.753510
 30
0.0
 10
330.134664
 20
53.219111
 30
0.0
 10
332.091557
 20
51.206332
 30
0.0
 10
333.099228
 20
50.169884
 30
0.0
 11
322.800807
 21
57.501903
 31
0.0
 11
326.683570
 21
55.581809
 31
0.0
 11
329.990867
 21
53.189180
 31
0.0
 11
333.099228
 21
50.169884
 31
0.0
  0
SPLINE
  5
105
100
AcDbEntity
  8
0
 62
7
100
AcDbSpline
 70
0
 71
3
 72
13
 73
9
 74
7
 40
0.000000
 40
0.000000
 40
0.000000
 40
0.000000
 40
9.128894
 40
18.349529
 40
27.490946
 40
30.002821
 40
32.685861
 40
35.197132
 40
35.197132
 40
35.197132
 40
35.197132
 10
333.099228
 20
50.169884
 30
0.0
 10
334.896130
 20
47.667951
 30
0.0
 10
338.507993
 20
42.638942
 30
0.0
 10
340.035931
 20
33.346210
 30
0.0
 10
339.332219
 20
26.320314
 30
0.0
 10
337.707203
 20
21.816605
 30
0.0
 10
336.618932
 20
19.484073
 30
0.0
 10
335.716925
 20
18.004919
 30
0.0
 10
335.280835
 20
17.289798
 30
0.0
 11
333.099228
 21
50.169884
 31
0.0
 11
337.848398
 21
42.373597
 31
0.0
 11
339.626892
 21
33.326107
 31
0.0
 11
338.537645
 21
24.249816
 31
0.0
 11
337.692754
 21
21.884299
 31
0.0
 11
336.549727
 21
19.456915
 31
0.0
 11
335.280835
 21
17.289798
 31
0.0
  0
LWPOLYLINE
  5
106
100
AcDbEntity
  8
0
 62
7
100
AcDbPolyline
 90
1
 70
1
 10
337.304375
 20
-6.256831
 30
0.0
  0
SPLINE
  5
107
100
AcDbEntity
  8
0
 62
7
100
AcDbSpline
 70
0
 71
3
 72
13
 73
9
 74
7
 40
0.000000
 40
0.000000
 40
0.000000
 40
0.000000
 40
1.073393
 40
2.306698
 40
3.273762
 40
4.627242
 40
6.657639
 40
8.189055
 40
8.189055
 40
8.189055
 40
8.189055
 10
335.280835
 20
17.289798
 30
0.0
 10
335.070705
 20
16.999204
 30
0.0
 10
334.619140
 20
16.374724
 30
0.0
 10
333.988101
 20
15.500977
 30
0.0
 10
333.686291
 20
14.224173
 30
0.0
 10
334.915947
 20
13.166123
 30
0.0
 10
335.965512
 20
11.991307
 30
0.0
 10
336.829409
 20
11.165039
 30
0.0
 10
337.200846
 20
10.809782
 30
0.0
 11
335.280835
 21
17.289798
 31
0.0
 11
334.651946
 21
16.419929
 31
0.0
 11
334.011322
 21
15.366060
 31
0.0
 11
333.867232
 21
14.409791
 31
0.0
 11
334.687236
 21
13.332988
 31
0.0
 11
336.105641
 21
11.880185
 31
0.0
 11
337.200846
 21
10.809782
 31
0.0
  0
SPLINE
  5
108
100
AcDbEntity
  8
0
 62
7
100
AcDbSpline
 70
0
 71
3
 72
10
 73
6
 74
4
 40
0.000000
 40
0.000000
 40
0.000000
 40
0.000000
 40
8.136173
 40
17.306396
 40
25.496168
 40
25.496168
 40
25.496168
 40
25.496168
 10
344.631257
 20
3.129761
 30
0.0
 10
346.453124
 20
1.120343
 30
0.0
 10
350.328406
 20
-3.153876
 30
0.0
 10
355.701115
 20
-9.744817
 30
0.0
 10
359.180340
 20
-14.368850
 30
0.0
 10
360.821703
 20
-16.550289
 30
0.0
 11
344.631257
 21
3.129761
 31
0.0
 11
350.046385
 21
-2.942610
 31
0.0
 11
355.857780
 21
-10.036317
 31
0.0
 11
360.821703
 21
-16.550289
 31
0.0
  0
LWPOLYLINE
  5
109
100
AcDbEntity
  8
0
 62
7
100
AcDbPolyline
 90
2
 70
0
 10
337.200846
 20
10.809782
 30
0.0
 10
344.631257
 20
3.129761
 30
0.0
  0
SPLINE
  5
10a
100
AcDbEntity
  8
0
 62
7
100
AcDbSpline
 70
0
 71
3
 72
10
 73
6
 74
4
 40
0.000000
 40
0.000000
 40
0.000000
 40
0.000000
 40
3.618590
 40
7.922769
 40
11.336962
 40
11.336962
 40
11.336962
 40
11.336962
 10
360.821703
 20
-16.550289
 30
0.0
 10
361.536093
 20
-17.521748
 30
0.0
 10
363.100221
 20
-19.648722
 30
0.0
 10
365.362413
 20
-22.683346
 30
0.0
 10
366.637079
 20
-24.920651
 30
0.0
 10
367.200923
 20
-25.910314
 30
0.0
 11
360.821703
 21
-16.550289
 31
0.0
 11
362.968374
 21
-19.463364
 31
0.0
 11
365.457448
 21
-22.974840
 31
0.0
 11
367.200923
 21
-25.910314
 31
0.0
  0
LWPOLYLINE
  5
10b
100
AcDbEntity
  8
0
 62
7
100
AcDbPolyline
 90
7
 70
0
 10
367.200923
 20
-25.910314
 30
0.0
 10
90.960198
 20
-25.910314
 30
0.0
 10
90.960198
 20
-13.910283
 30
0.0
 10
129.600303
 20
-13.910283
 30
0.0
 10
149.040352
 20
-13.910283
 30
0.0
 10
152.640359
 20
-14.150283
 30
0.0
 10
198.240485
 20
-14.150283
 30
0.0
  0
SPLINE
  5
10c
100
AcDbEntity
  8
0
 62
7
100
AcDbSpline
 70
0
 71
3
 72
13
 73
9
 74
7
 40
0.000000
 40
0.000000
 40
0.000000
 40
0.000000
 40
1.273133
 40
2.863932
 40
4.039734
 40
4.867105
 40
5.854061
 40
6.728151
 40
6.728151
 40
6.728151
 40
6.728151
 10
198.240485
 20
-14.150283
 30
0.0
 10
198.667038
 20
-14.141970
 30
0.0
 10
199.626575
 20
-14.123270
 30
0.0
 10
200.928579
 20
-13.976569
 30
0.0
 10
202.209951
 20
-13.720929
 30
0.0
 10
202.686442
 20
-12.772307
 30
0.0
 10
202.923687
 20
-11.921062
 30
0.0
 10
203.063583
 20
-11.314951
 30
0.0
 10
203.129289
 20
-11.030275
 30
0.0
 11
198.240485
 21
-14.150283
 31
0.0
 11
199.512932
 21
-14.108487
 31
0.0
 11
201.093646
 21
-13.929652
 31
0.0
 11
202.198094
 21
-13.526282
 31
0.0
 11
202.634183
 21
-12.823169
 31
0.0
 11
202.926803
 21
-11.880589
 31
0.0
 11
203.129289
 21
-11.030275
 31
0.0
  0
SPLINE
  5
10d
100
AcDbEntity
  8
0
 62
7
100
AcDbSpline
 70
0
 71
3
 72
10
 73
6
 74
4
 40
0.000000
 40
0.000000
 40
0.000000
 40
0.000000
 40
9.168246
 40
18.086555
 40
27.276338
 40
27.276338
 40
27.276338
 40
27.276338
 10
204.799700
 20
-5.510261
 30
0.0
 10
205.803979
 20
-2.623733
 30
0.0
 10
207.785159
 20
3.070633
 30
0.0
 10
211.468748
 20
11.407860
 30
0.0
 10
214.584763
 20
16.583292
 30
0.0
 10
216.166128
 20
19.209803
 30
0.0
 11
204.799700
 21
-5.510261
 31
0.0
 11
207.931085
 21
3.106651
 31
0.0
 11
211.594740
 21
11.237694
 31
0.0
 11
216.166128
 21
19.209803
 31
0.0
  0
SPLINE
  5
10e
100
AcDbEntity
  8
0
 62
7
100
AcDbSpline
 70
0
 71
3
 72
10
 73
6
 74
4
 40
0.000000
 40
0.000000
 40
0.000000
 40
0.000000
 40
15.217438
 40
30.086632
 40
45.267652
 40
45.267652
 40
45.267652
 40
45.267652
 10
216.166128
 20
19.209803
 30
0.0
 10
219.158092
 20
23.318574
 30
0.0
 10
225.073552
 20
31.442086
 30
0.0
 10
237.165163
 20
40.998501
 30
0.0
 10
246.702480
 20
44.239139
 30
0.0
 10
251.520623
 20
45.876272
 30
0.0
 11
216.166128
 21
19.209803
 31
0.0
 11
225.684641
 21
31.082812
 31
0.0
 11
237.451697
 21
40.172880
 31
0.0
 11
251.520623
 21
45.876272
 31
0.0
  0
SPLINE
  5
10f
100
AcDbEntity
  8
0
 62
7
100
AcDbSpline
 70
0
 71
3
 72
10
 73
6
 74
4
 40
0.000000
 40
0.000000
 40
0.000000
 40
0.000000
 40
5.667072
 40
11.047041
 40
16.685301
 40
16.685301
 40
16.685301
 40
16.685301
 10
251.520623
 20
45.876272
 30
0.0
 10
253.368295
 20
46.278937
 30
0.0
 10
256.970033
 20
47.063868
 30
0.0
 10
262.529010
 20
47.499008
 30
0.0
 10
266.201418
 20
47.519428
 30
0.0
 10
268.080666
 20
47.529877
 30
0.0
 11
251.520623
 21
45.876272
 31
0.0
 11
257.084366
 21
46.953519
 31
0.0
 11
262.443315
 21
47.428632
 31
0.0
 11
268.080666
 21
47.529877
 31
0.0
  0
SPLINE
  5
110
100
AcDbEntity
  8
0
 62
7
100
AcDbSpline
 70
0
 71
3
 72
10
 73
6
 74
4
 40
0.000000
 40
0.000000
 40
0.000000
 40
0.000000
 40
6.641283
 40
14.517860
 40
21.115025
 40
21.115025
 40
21.115025
 40
21.115025
 10
268.080666
 20
47.529877
 30
0.0
 10
270.289048
 20
47.368283
 30
0.0
 10
275.116577
 20
47.015039
 30
0.0
 10
282.060755
 20
45.695480
 30
0.0
 10
286.635524
 20
44.152953
 30
0.0
 10
288.720714
 20
43.449866
 30
0.0
 11
268.080666
 21
47.529877
 31
0.0
 11
274.694725
 21
46.929155
 31
0.0
 11
282.426653
 21
45.426578
 31
0.0
 11
288.720714
 21
43.449866
 31
0.0
  0
LWPOLYLINE
  5
111
100
AcDbEntity
  8
0
 62
7
100
AcDbPolyline
 90
2
 70
0
 10
203.129289
 20
-11.030275
 30
0.0
 10
204.799700
 20
-5.510261
 30
0.0
  0
LWPOLYLINE
  5
112
100
AcDbEntity
  8
0
 62
7
100
AcDbPolyline
 90
1
 70
1
 10
294.240732
 20
51.609887
 30
0.0
  0
SPLINE
  5
113
100
AcDbEntity
  8
0
 62
7
100
AcDbSpline
 70
0
 71
3
 72
10
 73
6
 74
4
 40
0.000000
 40
0.000000
 40
0.000000
 40
0.000000
 40
3.209975
 40
6.692234
 40
9.928756
 40
9.928756
 40
9.928756
 40
9.928756
 10
288.720714
 20
43.449866
 30
0.0
 10
289.126060
 20
44.444239
 30
0.0
 10
289.971136
 20
46.517333
 30
0.0
 10
291.975575
 20
49.188337
 30
0.0
 10
293.504317
 20
50.822628
 30
0.0
 10
294.240732
 20
51.609887
 30
0.0
 11
288.720714
 21
43.449866
 31
0.0
 11
290.053161
 21
46.370229
 31
0.0
 11
292.071479
 21
49.207926
 31
0.0
 11
294.240732
 21
51.609887
 31
0.0
  0
SPLINE
  5
114
100
AcDbEntity
  8
0
 62
7
100
AcDbSpline
 70
0
 71
3
 72
10
 73
6
 74
4
 40
0.000000
 40
0.000000
 40
0.000000
 40
0.000000
 40
2.748453
 40
3.942294
 40
5.447831
 40
5.447831
 40
5.447831
 40
5.447831
 10
114.000265
 20
22.329811
 30
0.0
 10
114.880771
 20
22.401506
 30
0.0
 10
116.143741
 20
22.504343
 30
0.0
 10
118.193059
 20
22.029885
 30
0.0
 10
118.120653
 20
20.989863
 30
0.0
 10
118.080269
 20
20.409807
 30
0.0
 11
114.000265
 21
22.329811
 31
0.0
 11
116.748717
 21
22.328034
 31
0.0
 11
117.863029
 21
21.899588
 31
0.0
 11
118.080269
 21
20.409807
 31
0.0
  0
LWPOLYLINE
  5
115
100
AcDbEntity
  8
0
 62
7
100
AcDbPolyline
 90
5
 70
0
 10
118.800271
 20
37.929852
 30
0.0
 10
118.800271
 20
31.929836
 30
0.0
 10
101.760230
 20
31.929836
 30
0.0
 10
101.760230
 20
22.329811
 30
0.0
 10
114.000265
 20
22.329811
 30
0.0
  0
LWPOLYLINE
  5
116
100
AcDbEntity
  8
0
 62
7
100
AcDbPolyline
 90
6
 70
0
 10
115.920265
 20
16.329796
 30
0.0
 10
101.760230
 20
16.329796
 30
0.0
 10
101.760230
 20
1.449758
 30
0.0
 10
94.560216
 20
1.449758
 30
0.0
 10
94.560216
 20
37.929852
 30
0.0
 10
118.800271
 20
37.929852
 30
0.0
  0
LWPOLYLINE
  5
117
100
AcDbEntity
  8
0
 62
7
100
AcDbPolyline
 90
6
 70
1
 10
132.720313
 20
37.929852
 30
0.0
 10
132.720313
 20
7.689774
 30
0.0
 10
149.760353
 20
7.689774
 30
0.0
 10
149.760353
 20
1.449758
 30
0.0
 10
125.520288
 20
1.449758
 30
0.0
 10
125.520288
 20
37.929852
 30
0.0
  0
SPLINE
  5
118
100
AcDbEntity
  8
0
 62
7
100
AcDbSpline
 70
0
 71
3
 72
13
 73
9
 74
7
 40
0.000000
 40
0.000000
 40
0.000000
 40
0.000000
 40
1.239036
 40
2.809236
 40
3.898835
 40
4.458485
 40
5.124634
 40
5.712560
 40
5.712560
 40
5.712560
 40
5.712560
 10
118.080269
 20
20.409807
 30
0.0
 10
118.094617
 20
19.992927
 30
0.0
 10
118.127149
 20
19.047745
 30
0.0
 10
118.104744
 20
17.821993
 30
0.0
 10
117.937627
 20
16.570464
 30
0.0
 10
117.129593
 20
16.346298
 30
0.0
 10
116.536395
 20
16.321094
 30
0.0
 10
116.116920
 20
16.327018
 30
0.0
 10
115.920265
 20
16.329796
 30
0.0
 11
118.080269
 21
20.409807
 31
0.0
 11
118.113845
 21
19.171226
 31
0.0
 11
118.059192
 21
17.601977
 31
0.0
 11
117.696267
 21
16.574596
 31
0.0
 11
117.172361
 21
16.377796
 31
0.0
 11
116.508183
 21
16.326596
 31
0.0
 11
115.920265
 21
16.329796
 31
0.0
  0
SPLINE
  5
119
100
AcDbEntity
  8
0
 62
7
100
AcDbSpline
 70
0
 71
3
 72
10
 73
6
 74
4
 40
0.000000
 40
0.000000
 40
0.000000
 40
0.000000
 40
4.854550
 40
10.092591
 40
14.812287
 40
14.812287
 40
14.812287
 40
14.812287
 10
179.280433
 20
26.193822
 30
0.0
 10
180.815183
 20
26.708212
 30
0.0
 10
184.005921
 20
27.777629
 30
0.0
 10
189.295110
 20
27.270629
 30
0.0
 10
191.724844
 20
24.895542
 30
0.0
 10
192.876471
 20
23.769815
 30
0.0
 11
179.280433
 21
26.193822
 31
0.0
 11
183.980266
 21
27.409647
 31
0.0
 11
189.168636
 21
26.690001
 31
0.0
 11
192.876471
 21
23.769815
 31
0.0
  0
SPLINE
  5
11a
100
AcDbEntity
  8
0
 62
7
100
AcDbSpline
 70
0
 71
3
 72
10
 73
6
 74
4
 40
0.000000
 40
0.000000
 40
0.000000
 40
0.000000
 40
4.565494
 40
9.906132
 40
14.598708
 40
14.598708
 40
14.598708
 40
14.598708
 10
192.876471
 20
23.769815
 30
0.0
 10
193.374776
 20
22.323147
 30
0.0
 10
194.455989
 20
19.184190
 30
0.0
 10
194.532360
 20
14.256676
 30
0.0
 10
194.287151
 20
10.927055
 30
0.0
 10
194.172465
 20
9.369778
 30
0.0
 11
192.876471
 21
23.769815
 31
0.0
 11
194.152736
 21
19.386337
 31
0.0
 11
194.451402
 21
14.054057
 31
0.0
 11
194.172465
 21
9.369778
 31
0.0
  0
SPLINE
  5
11b
100
AcDbEntity
  8
0
 62
7
100
AcDbSpline
 70
0
 71
3
 72
10
 73
6
 74
4
 40
0.000000
 40
0.000000
 40
0.000000
 40
0.000000
 40
1.926885
 40
3.954332
 40
5.866347
 40
5.866347
 40
5.866347
 40
5.866347
 10
194.172465
 20
9.369778
 30
0.0
 10
194.076578
 20
8.734991
 30
0.0
 10
193.879799
 20
7.432290
 30
0.0
 10
193.332531
 20
5.535235
 30
0.0
 10
192.657092
 20
4.403736
 30
0.0
 10
192.329268
 20
3.854564
 30
0.0
 11
194.172465
 21
9.369778
 31
0.0
 11
193.843935
 21
7.471106
 31
0.0
 11
193.240203
 21
5.535635
 31
0.0
 11
192.329268
 21
3.854564
 31
0.0
  0
SPLINE
  5
11c
100
AcDbEntity
  8
0
 62
7
100
AcDbSpline
 70
0
 71
3
 72
10
 73
6
 74
4
 40
0.000000
 40
0.000000
 40
0.000000
 40
0.000000
 40
4.340743
 40
9.404785
 40
13.833667
 40
13.833667
 40
13.833667
 40
13.833667
 10
192.329268
 20
3.854564
 30
0.0
 10
191.141820
 20
2.988478
 30
0.0
 10
188.569060
 20
1.111989
 30
0.0
 10
183.691749
 20
0.854377
 30
0.0
 10
180.683786
 20
1.838037
 30
0.0
 10
179.280433
 20
2.296959
 30
0.0
 11
192.329268
 21
3.854564
 31
0.0
 11
188.608633
 21
1.618736
 31
0.0
 11
183.564265
 21
1.172779
 31
0.0
 11
179.280433
 21
2.296959
 31
0.0
  0
LWPOLYLINE
  5
11d
100
AcDbEntity
  8
0
 62
7
100
AcDbPolyline
 90
5
 70
1
 10
161.760384
 20
37.929852
 30
0.0
 10
161.515582
 20
33.033839
 30
0.0
 10
159.600380
 20
32.649838
 30
0.0
 10
155.520376
 20
32.649838
 30
0.0
 10
155.520376
 20
37.929852
 30
0.0
  0
SPLINE
  5
11e
100
AcDbEntity
  8
0
 62
7
100
AcDbSpline
 70
0
 71
3
 72
10
 73
6
 74
4
 40
0.000000
 40
0.000000
 40
0.000000
 40
0.000000
 40
1.326375
 40
2.538075
 40
3.851431
 40
3.851431
 40
3.851431
 40
3.851431
 10
179.280433
 20
2.296959
 30
0.0
 10
178.907560
 20
2.538903
 30
0.0
 10
178.194050
 20
3.001874
 30
0.0
 10
177.354550
 20
3.989599
 30
0.0
 10
176.884768
 20
4.687019
 30
0.0
 10
176.640421
 20
5.049767
 30
0.0
 11
179.280433
 21
2.296959
 31
0.0
 11
178.205586
 21
3.074117
 31
0.0
 11
177.395270
 21
3.975008
 31
0.0
 11
176.640421
 21
5.049767
 31
0.0
  0
SPLINE
  5
11f
100
AcDbEntity
  8
0
 62
7
100
AcDbSpline
 70
0
 71
3
 72
10
 73
6
 74
4
 40
0.000000
 40
0.000000
 40
0.000000
 40
0.000000
 40
0.508260
 40
1.031453
 40
1.528976
 40
1.528976
 40
1.528976
 40
1.528976
 10
171.840415
 20
-9.590271
 30
0.0
 10
171.672155
 20
-9.588200
 30
0.0
 10
171.330693
 20
-9.583998
 30
0.0
 10
170.804309
 20
-9.535494
 30
0.0
 10
170.535994
 20
-9.314156
 30
0.0
 10
170.405210
 20
-9.206270
 30
0.0
 11
171.840415
 21
-9.590271
 31
0.0
 11
171.332325
 21
-9.577134
 31
0.0
 11
170.817302
 21
-9.485034
 31
0.0
 11
170.405210
 21
-9.206270
 31
0.0
  0
LWPOLYLINE
  5
120
100
AcDbEntity
  8
0
 62
7
100
AcDbPolyline
 90
3
 70
0
 10
176.640421
 20
5.049767
 30
0.0
 10
176.640421
 20
-9.590271
 30
0.0
 10
171.840415
 20
-9.590271
 30
0.0
  0
SPLINE
  5
121
100
AcDbEntity
  8
0
 62
7
100
AcDbSpline
 70
0
 71
3
 72
10
 73
6
 74
4
 40
0.000000
 40
0.000000
 40
0.000000
 40
0.000000
 40
0.559656
 40
1.225806
 40
1.813728
 40
1.813728
 40
1.813728
 40
1.813728
 10
170.405210
 20
-9.206270
 30
0.0
 10
170.328001
 20
-9.034392
 30
0.0
 10
170.158890
 20
-8.657932
 30
0.0
 10
170.155881
 20
-8.042144
 30
0.0
 10
170.158963
 20
-7.625563
 30
0.0
 10
170.160408
 20
-7.430266
 30
0.0
 11
170.405210
 21
-9.206270
 31
0.0
 11
170.208409
 21
-8.682358
 31
0.0
 11
170.157208
 21
-8.018179
 31
0.0
 11
170.160408
 21
-7.430266
 31
0.0
  0
SPLINE
  5
122
100
AcDbEntity
  8
0
 62
7
100
AcDbSpline
 70
0
 71
3
 72
10
 73
6
 74
4
 40
0.000000
 40
0.000000
 40
0.000000
 40
0.000000
 40
0.587921
 40
1.254071
 40
1.813735
 40
1.813735
 40
1.813735
 40
1.813735
 10
170.160408
 20
24.969818
 30
0.0
 10
170.158960
 20
25.165115
 30
0.0
 10
170.155871
 20
25.581695
 30
0.0
 10
170.158857
 20
26.197490
 30
0.0
 10
170.327990
 20
26.573946
 30
0.0
 10
170.405210
 20
26.745823
 30
0.0
 11
170.160408
 21
24.969818
 31
0.0
 11
170.157196
 21
25.557731
 31
0.0
 11
170.208385
 21
26.221910
 31
0.0
 11
170.405210
 21
26.745823
 31
0.0
  0
LWPOLYLINE
  5
123
100
AcDbEntity
  8
0
 62
7
100
AcDbPolyline
 90
3
 70
0
 10
170.160408
 20
-7.430266
 30
0.0
 10
170.160408
 20
18.969803
 30
0.0
 10
170.160408
 20
24.969818
 30
0.0
  0
SPLINE
  5
124
100
AcDbEntity
  8
0
 62
7
100
AcDbSpline
 70
0
 71
3
 72
10
 73
6
 74
4
 40
0.000000
 40
0.000000
 40
0.000000
 40
0.000000
 40
0.624186
 40
1.344300
 40
2.002464
 40
2.002464
 40
2.002464
 40
2.002464
 10
170.405210
 20
26.745823
 30
0.0
 10
170.579157
 20
26.867929
 30
0.0
 10
170.953784
 20
27.130906
 30
0.0
 10
171.646487
 20
27.138748
 30
0.0
 10
172.102604
 20
27.132708
 30
0.0
 10
172.320412
 20
27.129824
 30
0.0
 11
170.405210
 21
26.745823
 31
0.0
 11
170.946541
 21
27.056579
 31
0.0
 11
171.662276
 21
27.135868
 31
0.0
 11
172.320412
 21
27.129824
 31
0.0
  0
SPLINE
  5
125
100
AcDbEntity
  8
0
 62
7
100
AcDbSpline
 70
0
 71
3
 72
10
 73
6
 74
4
 40
0.000000
 40
0.000000
 40
0.000000
 40
0.000000
 40
1.474799
 40
2.639530
 40
4.691281
 40
4.691281
 40
4.691281
 40
4.691281
 10
174.960425
 20
27.129824
 30
0.0
 10
175.563011
 20
27.102992
 30
0.0
 10
176.641492
 20
27.054971
 30
0.0
 10
176.357332
 20
25.184025
 30
0.0
 10
176.530170
 20
24.174059
 30
0.0
 10
176.640421
 20
23.529815
 30
0.0
 11
174.960425
 21
27.129824
 31
0.0
 11
176.381583
 21
26.735690
 31
0.0
 11
176.459271
 21
25.573553
 31
0.0
 11
176.640421
 21
23.529815
 31
0.0
  0
LWPOLYLINE
  5
126
100
AcDbEntity
  8
0
 62
7
100
AcDbPolyline
 90
2
 70
0
 10
172.320412
 20
27.129824
 30
0.0
 10
174.960425
 20
27.129824
 30
0.0
  0
LWPOLYLINE
  5
127
100
AcDbEntity
  8
0
 62
7
100
AcDbPolyline
 90
1
 70
1
 10
179.280433
 20
26.193822
 30
0.0
  0
SPLINE
  5
128
100
AcDbEntity
  8
0
 62
7
100
AcDbSpline
 70
0
 71
3
 72
10
 73
6
 74
4
 40
0.000000
 40
0.000000
 40
0.000000
 40
0.000000
 40
1.299270
 40
2.500172
 40
3.805876
 40
3.805876
 40
3.805876
 40
3.805876
 10
176.640421
 20
23.529815
 30
0.0
 10
176.859973
 20
23.904499
 30
0.0
 10
177.282454
 20
24.625499
 30
0.0
 10
178.188222
 20
25.537876
 30
0.0
 10
178.906354
 20
25.969162
 30
0.0
 10
179.280433
 20
26.193822
 30
0.0
 11
176.640421
 21
23.529815
 31
0.0
 11
177.345673
 21
24.621017
 31
0.0
 11
178.191187
 21
25.473820
 31
0.0
 11
179.280433
 21
26.193822
 31
0.0
  0
SPLINE
  5
129
100
AcDbEntity
  8
0
 62
7
100
AcDbSpline
 70
0
 71
3
 72
10
 73
6
 74
4
 40
0.000000
 40
0.000000
 40
0.000000
 40
0.000000
 40
3.235094
 40
6.997983
 40
9.979405
 40
9.979405
 40
9.979405
 40
9.979405
 10
176.880425
 20
16.809797
 30
0.0
 10
176.860020
 20
15.737762
 30
0.0
 10
176.815880
 20
13.418791
 30
0.0
 10
176.746910
 20
9.989130
 30
0.0
 10
177.873017
 20
8.001870
 30
0.0
 10
178.370830
 20
7.123373
 30
0.0
 11
176.880425
 21
16.809797
 31
0.0
 11
176.818306
 21
13.575300
 31
0.0
 11
177.106567
 21
9.823468
 31
0.0
 11
178.370830
 21
7.123373
 31
0.0
  0
SPLINE
  5
12a
100
AcDbEntity
  8
0
 62
7
100
AcDbSpline
 70
0
 71
3
 72
10
 73
6
 74
4
 40
0.000000
 40
0.000000
 40
0.000000
 40
0.000000
 40
1.084736
 40
2.190615
 40
3.282210
 40
3.282210
 40
3.282210
 40
3.282210
 10
178.370830
 20
7.123373
 30
0.0
 10
178.672927
 20
6.920286
 30
0.0
 10
179.283010
 20
6.510155
 30
0.0
 10
180.356378
 20
6.230862
 30
0.0
 10
181.080654
 20
6.129647
 30
0.0
 10
181.440438
 20
6.079369
 30
0.0
 11
178.370830
 21
7.123373
 31
0.0
 11
179.303187
 21
6.568971
 31
0.0
 11
180.362479
 21
6.251370
 31
0.0
 11
181.440438
 21
6.079369
 31
0.0
  0
SPLINE
  5
12b
100
AcDbEntity
  8
0
 62
7
100
AcDbSpline
 70
0
 71
3
 72
10
 73
6
 74
4
 40
0.000000
 40
0.000000
 40
0.000000
 40
0.000000
 40
0.786259
 40
1.618618
 40
2.404969
 40
2.404969
 40
2.404969
 40
2.404969
 10
181.440438
 20
6.079369
 30
0.0
 10
181.701444
 20
6.054897
 30
0.0
 10
182.238760
 20
6.004516
 30
0.0
 10
183.042165
 20
6.002401
 30
0.0
 10
183.579443
 20
6.054204
 30
0.0
 10
183.840446
 20
6.079369
 30
0.0
 11
181.440438
 21
6.079369
 31
0.0
 11
182.224259
 21
6.017503
 31
0.0
 11
183.056617
 21
6.016434
 31
0.0
 11
183.840446
 21
6.079369
 31
0.0
  0
SPLINE
  5
12c
100
AcDbEntity
  8
0
 62
7
100
AcDbSpline
 70
0
 71
3
 72
10
 73
6
 74
4
 40
0.000000
 40
0.000000
 40
0.000000
 40
0.000000
 40
1.011788
 40
2.043081
 40
3.047049
 40
3.047049
 40
3.047049
 40
3.047049
 10
183.840446
 20
6.079369
 30
0.0
 10
184.173374
 20
6.130432
 30
0.0
 10
184.845647
 20
6.233542
 30
0.0
 10
185.834607
 20
6.520095
 30
0.0
 10
186.394072
 20
6.911231
 30
0.0
 10
186.670050
 20
7.104172
 30
0.0
 11
183.840446
 21
6.079369
 31
0.0
 11
184.836981
 21
6.254392
 31
0.0
 11
185.817516
 21
6.573948
 31
0.0
 11
186.670050
 21
7.104172
 31
0.0
  0
SPLINE
  5
12d
100
AcDbEntity
  8
0
 62
7
100
AcDbSpline
 70
0
 71
3
 72
10
 73
6
 74
4
 40
0.000000
 40
0.000000
 40
0.000000
 40
0.000000
 40
2.784579
 40
6.273995
 40
9.266622
 40
9.266622
 40
9.266622
 40
9.266622
 10
186.670050
 20
7.104172
 30
0.0
 10
187.133735
 20
7.923815
 30
0.0
 10
188.178474
 20
9.770568
 30
0.0
 10
188.191070
 20
12.948182
 30
0.0
 10
188.170124
 20
15.097499
 30
0.0
 10
188.160454
 20
16.089795
 30
0.0
 11
186.670050
 21
7.104172
 31
0.0
 11
187.856988
 21
9.623112
 31
0.0
 11
188.183122
 21
13.097254
 31
0.0
 11
188.160454
 21
16.089795
 31
0.0
  0
SPLINE
  5
12e
100
AcDbEntity
  8
0
 62
7
100
AcDbSpline
 70
0
 71
3
 72
10
 73
6
 74
4
 40
0.000000
 40
0.000000
 40
0.000000
 40
0.000000
 40
1.593310
 40
3.405476
 40
4.949377
 40
4.949377
 40
4.949377
 40
4.949377
 10
188.160454
 20
16.089795
 30
0.0
 10
188.132305
 20
16.619113
 30
0.0
 10
188.072139
 20
17.750453
 30
0.0
 10
187.832968
 20
19.406259
 30
0.0
 10
187.315915
 20
20.405927
 30
0.0
 10
187.078053
 20
20.865808
 30
0.0
 11
188.160454
 21
16.089795
 31
0.0
 11
188.053153
 21
17.679488
 31
0.0
 11
187.716536
 21
19.460115
 31
0.0
 11
187.078053
 21
20.865808
 31
0.0
  0
SPLINE
  5
12f
100
AcDbEntity
  8
0
 62
7
100
AcDbSpline
 70
0
 71
3
 72
10
 73
6
 74
4
 40
0.000000
 40
0.000000
 40
0.000000
 40
0.000000
 40
2.227581
 40
4.660135
 40
6.970252
 40
6.970252
 40
6.970252
 40
6.970252
 10
187.078053
 20
20.865808
 30
0.0
 10
186.479230
 20
21.332256
 30
0.0
 10
185.226481
 20
22.308073
 30
0.0
 10
182.808797
 20
22.433628
 30
0.0
 10
181.243080
 20
22.315399
 30
0.0
 10
180.480432
 20
22.257811
 30
0.0
 11
187.078053
 21
20.865808
 31
0.0
 11
185.198491
 21
22.061366
 31
0.0
 11
182.787195
 21
22.382256
 31
0.0
 11
180.480432
 21
22.257811
 31
0.0
  0
LWPOLYLINE
  5
130
100
AcDbEntity
  8
0
 62
7
100
AcDbPolyline
 90
6
 70
1
 10
160.080377
 20
27.129824
 30
0.0
 10
161.515582
 20
26.745823
 30
0.0
 10
161.760384
 20
24.969818
 30
0.0
 10
161.760384
 20
1.449758
 30
0.0
 10
155.520376
 20
1.449758
 30
0.0
 10
155.520376
 20
27.129824
 30
0.0
  0
LWPOLYLINE
  5
131
100
AcDbEntity
  8
0
 62
7
100
AcDbPolyline
 90
1
 70
1
 10
176.880425
 20
16.809797
 30
0.0
  0
SPLINE
  5
132
100
AcDbEntity
  8
0
 62
7
100
AcDbSpline
 70
0
 71
3
 72
10
 73
6
 74
4
 40
0.000000
 40
0.000000
 40
0.000000
 40
0.000000
 40
2.512653
 40
4.644862
 40
7.203737
 40
7.203737
 40
7.203737
 40
7.203737
 10
180.480432
 20
22.257811
 30
0.0
 10
179.639744
 20
22.011410
 30
0.0
 10
178.085658
 20
21.555916
 30
0.0
 10
176.932871
 20
19.226080
 30
0.0
 10
176.898936
 20
17.662625
 30
0.0
 10
176.880425
 20
16.809797
 30
0.0
 11
180.480432
 21
22.257811
 31
0.0
 11
178.195629
 21
21.212297
 31
0.0
 11
177.149226
 21
19.354515
 31
0.0
 11
176.880425
 21
16.809797
 31
0.0
  0
SPLINE
  5
133
100
AcDbEntity
  8
0
 62
7
100
AcDbSpline
 70
0
 71
3
 72
10
 73
6
 74
4
 40
0.000000
 40
0.000000
 40
0.000000
 40
0.000000
 40
3.156389
 40
7.090544
 40
10.431709
 40
10.431709
 40
10.431709
 40
10.431709
 10
367.200923
 20
-41.750354
 30
0.0
 10
366.683556
 20
-42.667505
 30
0.0
 10
365.521339
 20
-44.727803
 30
0.0
 10
363.452483
 20
-47.529438
 30
0.0
 10
362.026283
 20
-49.489997
 30
0.0
 10
361.371306
 20
-50.390377
 30
0.0
 11
367.200923
 21
-41.750354
 31
0.0
 11
365.600470
 21
-44.470895
 31
0.0
 11
363.339753
 21
-47.690637
 31
0.0
 11
361.371306
 21
-50.390377
 31
0.0
  0
LWPOLYLINE
  5
134
100
AcDbEntity
  8
0
 62
7
100
AcDbPolyline
 90
7
 70
0
 10
11.280001
 20
-41.750354
 30
0.0
 10
15.360006
 20
-41.990355
 30
0.0
 10
133.200310
 20
-41.990355
 30
0.0
 10
176.640421
 20
-41.990355
 30
0.0
 10
198.480478
 20
-41.990355
 30
0.0
 10
202.080496
 20
-41.750354
 30
0.0
 10
367.200923
 20
-41.750354
 30
0.0
  0
SPLINE
  5
135
100
AcDbEntity
  8
0
 62
7
100
AcDbSpline
 70
0
 71
3
 72
10
 73
6
 74
4
 40
0.000000
 40
0.000000
 40
0.000000
 40
0.000000
 40
8.471550
 40
17.605548
 40
26.071849
 40
26.071849
 40
26.071849
 40
26.071849
 10
361.371306
 20
-50.390377
 30
0.0
 10
359.685299
 20
-52.655926
 30
0.0
 10
356.181445
 20
-57.364184
 30
0.0
 10
350.668905
 20
-64.088660
 30
0.0
 10
346.746207
 20
-68.451679
 30
0.0
 10
344.859266
 20
-70.550429
 30
0.0
 11
361.371306
 21
-50.390377
 31
0.0
 11
356.262671
 21
-57.148261
 31
0.0
 11
350.473499
 21
-64.213346
 31
0.0
 11
344.859266
 21
-70.550429
 31
0.0
  0
SPLINE
  5
136
100
AcDbEntity
  8
0
 62
7
100
AcDbSpline
 70
0
 71
3
 72
13
 73
9
 74
7
 40
0.000000
 40
0.000000
 40
0.000000
 40
0.000000
 40
1.536479
 40
3.591140
 40
4.946813
 40
5.920650
 40
7.119201
 40
8.188682
 40
8.188682
 40
8.188682
 40
8.188682
 10
337.680843
 20
-77.990449
 30
0.0
 10
337.309237
 20
-78.347091
 30
0.0
 10
336.440700
 20
-79.180654
 30
0.0
 10
335.377846
 20
-80.372604
 30
0.0
 10
334.140647
 20
-81.398151
 30
0.0
 10
334.325368
 20
-82.683984
 30
0.0
 10
334.953459
 20
-83.561353
 30
0.0
 10
335.389580
 20
-84.179148
 30
0.0
 10
335.595232
 20
-84.470467
 30
0.0
 11
337.680843
 21
-77.990449
 31
0.0
 11
336.583774
 21
-79.066185
 31
0.0
 11
335.144304
 21
-80.532322
 31
0.0
 11
334.296839
 21
-81.590457
 31
0.0
 11
334.375325
 21
-82.561127
 31
0.0
 11
334.977546
 21
-83.597397
 31
0.0
 11
335.595232
 21
-84.470467
 31
0.0
  0
SPLINE
  5
137
100
AcDbEntity
  8
0
 62
7
100
AcDbSpline
 70
0
 71
3
 72
10
 73
6
 74
4
 40
0.000000
 40
0.000000
 40
0.000000
 40
0.000000
 40
2.670397
 40
5.453586
 40
8.125142
 40
8.125142
 40
8.125142
 40
8.125142
 10
335.595232
 20
-84.470467
 30
0.0
 10
336.043152
 20
-85.240222
 30
0.0
 10
336.957913
 20
-86.812245
 30
0.0
 10
338.030685
 20
-89.309469
 30
0.0
 10
338.541744
 20
-91.055388
 30
0.0
 10
338.792044
 20
-91.910482
 30
0.0
 11
335.595232
 21
-84.470467
 31
0.0
 11
336.892307
 21
-86.804694
 31
0.0
 11
337.990978
 21
-89.361854
 31
0.0
 11
338.792044
 21
-91.910482
 31
0.0
  0
SPLINE
  5
138
100
AcDbEntity
  8
0
 62
7
100
AcDbSpline
 70
0
 71
3
 72
10
 73
6
 74
4
 40
0.000000
 40
0.000000
 40
0.000000
 40
0.000000
 40
9.065718
 40
18.103385
 40
27.163671
 40
27.163671
 40
27.163671
 40
27.163671
 10
338.792044
 20
-91.910482
 30
0.0
 10
339.248137
 20
-94.910978
 30
0.0
 10
340.158912
 20
-100.902685
 30
0.0
 10
338.132231
 20
-110.065176
 30
0.0
 10
334.466422
 20
-114.920073
 30
0.0
 10
332.631226
 20
-117.350555
 30
0.0
 11
338.792044
 21
-91.910482
 31
0.0
 11
339.593203
 21
-100.940730
 31
0.0
 11
337.556485
 21
-109.745911
 31
0.0
 11
332.631226
 21
-117.350555
 31
0.0
  0
SPLINE
  5
139
100
AcDbEntity
  8
0
 62
7
100
AcDbSpline
 70
0
 71
3
 72
10
 73
6
 74
4
 40
0.000000
 40
0.000000
 40
0.000000
 40
0.000000
 40
3.220187
 40
6.207600
 40
9.431523
 40
9.431523
 40
9.431523
 40
9.431523
 10
332.631226
 20
-117.350555
 30
0.0
 10
331.878871
 20
-118.116666
 30
0.0
 10
330.428546
 20
-119.593511
 30
0.0
 10
327.956954
 20
-121.559694
 30
0.0
 10
326.142557
 20
-122.563272
 30
0.0
 10
325.200815
 20
-123.084168
 30
0.0
 11
332.631226
 21
-117.350555
 31
0.0
 11
330.326688
 21
-119.599711
 31
0.0
 11
327.975751
 21
-121.443005
 31
0.0
 11
325.200815
 21
-123.084168
 31
0.0
  0
SPLINE
  5
13a
100
AcDbEntity
  8
0
 62
7
100
AcDbSpline
 70
0
 71
3
 72
10
 73
6
 74
4
 40
0.000000
 40
0.000000
 40
0.000000
 40
0.000000
 40
11.019958
 40
21.900874
 40
32.917600
 40
32.917600
 40
32.917600
 40
32.917600
 10
325.200815
 20
-123.084168
 30
0.0
 10
321.716788
 20
-124.356711
 30
0.0
 10
314.792694
 20
-126.885742
 30
0.0
 10
303.322598
 20
-125.247935
 30
0.0
 10
297.440177
 20
-120.792225
 30
0.0
 10
294.480725
 20
-118.550553
 30
0.0
 11
325.200815
 21
-123.084168
 31
0.0
 11
314.569674
 21
-125.985598
 31
0.0
 11
303.801464
 21
-124.423549
 31
0.0
 11
294.480725
 21
-118.550553
 31
0.0
  0
LWPOLYLINE
  5
13b
100
AcDbEntity
  8
0
 62
7
100
AcDbPolyline
 90
2
 70
0
 10
344.859266
 20
-70.550429
 30
0.0
 10
337.680843
 20
-77.990449
 30
0.0
  0
SPLINE
  5
13c
100
AcDbEntity
  8
0
 62
7
100
AcDbSpline
 70
0
 71
3
 72
10
 73
6
 74
4
 40
0.000000
 40
0.000000
 40
0.000000
 40
0.000000
 40
2.991689
 40
6.236790
 40
9.193001
 40
9.193001
 40
9.193001
 40
9.193001
 10
294.480725
 20
-118.550553
 30
0.0
 10
293.790422
 20
-117.832448
 30
0.0
 10
292.351343
 20
-116.335410
 30
0.0
 10
290.412200
 20
-113.926049
 30
0.0
 10
289.591801
 20
-112.019435
 30
0.0
 10
289.200711
 20
-111.110538
 30
0.0
 11
294.480725
 21
-118.550553
 31
0.0
 11
292.438235
 21
-116.364590
 31
0.0
 11
290.484808
 21
-113.773295
 31
0.0
 11
289.200711
 21
-111.110538
 31
0.0
  0
SPLINE
  5
13d
100
AcDbEntity
  8
0
 62
7
100
AcDbSpline
 70
0
 71
3
 72
10
 73
6
 74
4
 40
0.000000
 40
0.000000
 40
0.000000
 40
0.000000
 40
8.677903
 40
17.167972
 40
25.844523
 40
25.844523
 40
25.844523
 40
25.844523
 10
277.680689
 20
-114.129742
 30
0.0
 10
274.815187
 20
-114.544734
 30
0.0
 10
269.146207
 20
-115.365737
 30
0.0
 10
260.480409
 20
-115.220088
 30
0.0
 10
254.847613
 20
-114.176969
 30
0.0
 10
252.000620
 20
-113.649744
 30
0.0
 11
277.680689
 21
-114.129742
 31
0.0
 11
269.061819
 21
-115.140233
 31
0.0
 11
260.573086
 21
-114.989658
 31
0.0
 11
252.000620
 21
-113.649744
 31
0.0
  0
SPLINE
  5
13e
100
AcDbEntity
  8
0
 62
7
100
AcDbSpline
 70
0
 71
3
 72
10
 73
6
 74
4
 40
0.000000
 40
0.000000
 40
0.000000
 40
0.000000
 40
20.786970
 40
41.284328
 40
62.154833
 40
62.154833
 40
62.154833
 40
62.154833
 10
252.000620
 20
-113.649744
 30
0.0
 10
245.400828
 20
-111.266007
 30
0.0
 10
232.293195
 20
-106.531744
 30
0.0
 10
217.757910
 20
-90.792981
 30
0.0
 10
211.600020
 20
-78.455047
 30
0.0
 10
208.493303
 20
-72.230434
 30
0.0
 11
252.000620
 21
-113.649744
 31
0.0
 11
233.076659
 21
-105.048476
 31
0.0
 11
218.708445
 21
-90.430127
 31
0.0
 11
208.493303
 21
-72.230434
 31
0.0
  0
LWPOLYLINE
  5
13f
100
AcDbEntity
  8
0
 62
7
100
AcDbPolyline
 90
3
 70
0
 10
289.200711
 20
-111.110538
 30
0.0
 10
286.320706
 20
-111.969738
 30
0.0
 10
277.680689
 20
-114.129742
 30
0.0
  0
SPLINE
  5
140
100
AcDbEntity
  8
0
 62
7
100
AcDbSpline
 70
0
 71
3
 72
10
 73
6
 74
4
 40
0.000000
 40
0.000000
 40
0.000000
 40
0.000000
 40
5.985726
 40
13.396956
 40
19.203814
 40
19.203814
 40
19.203814
 40
19.203814
 10
208.493303
 20
-72.230434
 30
0.0
 10
207.761389
 20
-70.374657
 30
0.0
 10
206.123254
 20
-66.221149
 30
0.0
 10
204.008720
 20
-60.167943
 30
0.0
 10
203.002526
 20
-55.875921
 30
0.0
 10
202.560494
 20
-53.990386
 30
0.0
 11
208.493303
 21
-72.230434
 31
0.0
 11
206.330098
 21
-66.649264
 31
0.0
 11
203.973294
 21
-59.622756
 31
0.0
 11
202.560494
 21
-53.990386
 31
0.0
  0
LWPOLYLINE
  5
141
100
AcDbEntity
  8
0
 62
7
100
AcDbPolyline
 90
6
 70
0
 10
202.560494
 20
-53.990386
 30
0.0
 10
0.230369
 20
-53.990386
 30
0.0
 10
0.230369
 20
-50.630377
 30
0.0
 10
-0.000028
 20
-47.750370
 30
0.0
 10
-0.000028
 20
-41.750354
 30
0.0
 10
11.280001
 20
-41.750354
 30
0.0
  0
SPLINE
  5
142
100
AcDbEntity
  8
0
 62
7
100
AcDbSpline
 70
0
 71
3
 72
10
 73
6
 74
4
 40
0.000000
 40
0.000000
 40
0.000000
 40
0.000000
 40
4.075384
 40
8.160316
 40
12.299697
 40
12.299697
 40
12.299697
 40
12.299697
 10
26.186438
 20
-69.110426
 30
0.0
 10
26.921655
 20
-67.903615
 30
0.0
 10
28.393811
 20
-65.487167
 30
0.0
 10
32.649410
 20
-64.476959
 30
0.0
 10
35.357205
 20
-64.324665
 30
0.0
 10
36.720066
 20
-64.248013
 30
0.0
 11
26.186438
 21
-69.110426
 31
0.0
 11
28.729111
 21
-65.925528
 31
0.0
 11
32.596587
 21
-64.610503
 31
0.0
 11
36.720066
 21
-64.248013
 31
0.0
  0
SPLINE
  5
143
100
AcDbEntity
  8
0
 62
7
100
AcDbSpline
 70
0
 71
3
 72
13
 73
9
 74
7
 40
0.000000
 40
0.000000
 40
0.000000
 40
0.000000
 40
2.656398
 40
5.358995
 40
8.002231
 40
11.536424
 40
15.666756
 40
19.360327
 40
19.360327
 40
19.360327
 40
19.360327
 10
38.640066
 20
-64.248013
 30
0.0
 10
39.525226
 20
-64.301516
 30
0.0
 10
41.310940
 20
-64.409451
 30
0.0
 10
43.932032
 20
-64.877075
 30
0.0
 10
46.761394
 20
-66.065016
 30
0.0
 10
48.567168
 20
-69.228361
 30
0.0
 10
49.287744
 20
-72.947849
 30
0.0
 10
49.391239
 20
-75.558152
 30
0.0
 10
49.440098
 20
-76.790445
 30
0.0
 11
38.640066
 21
-64.248013
 31
0.0
 11
41.288076
 21
-64.458947
 31
0.0
 11
43.939282
 21
-64.983481
 31
0.0
 11
46.315290
 21
-66.141618
 31
0.0
 11
48.280628
 21
-69.078959
 31
0.0
 11
49.205965
 21
-73.104302
 31
0.0
 11
49.440098
 21
-76.790445
 31
0.0
  0
SPLINE
  5
144
100
AcDbEntity
  8
0
 62
7
100
AcDbSpline
 70
0
 71
3
 72
10
 73
6
 74
4
 40
0.000000
 40
0.000000
 40
0.000000
 40
0.000000
 40
3.659890
 40
7.608413
 40
11.185889
 40
11.185889
 40
11.185889
 40
11.185889
 10
49.440098
 20
-76.790445
 30
0.0
 10
49.421200
 20
-78.006539
 30
0.0
 10
49.381914
 20
-80.534632
 30
0.0
 10
49.003654
 20
-84.315227
 30
0.0
 10
47.771968
 20
-86.528703
 30
0.0
 10
47.186487
 20
-87.580877
 30
0.0
 11
49.440098
 21
-76.790445
 31
0.0
 11
49.332961
 21
-80.448766
 31
0.0
 11
48.722127
 21
-84.349756
 31
0.0
 11
47.186487
 21
-87.580877
 31
0.0
  0
SPLINE
  5
145
100
AcDbEntity
  8
0
 62
7
100
AcDbSpline
 70
0
 71
3
 72
10
 73
6
 74
4
 40
0.000000
 40
0.000000
 40
0.000000
 40
0.000000
 40
1.560141
 40
3.076938
 40
4.637946
 40
4.637946
 40
4.637946
 40
4.637946
 10
47.186487
 20
-87.580877
 30
0.0
 10
46.819307
 20
-87.954310
 30
0.0
 10
46.095149
 20
-88.690803
 30
0.0
 10
44.680152
 20
-89.370775
 30
0.0
 10
43.698139
 20
-89.664106
 30
0.0
 10
43.200078
 20
-89.812879
 30
0.0
 11
47.186487
 21
-87.580877
 31
0.0
 11
46.029778
 21
-88.627809
 31
0.0
 11
44.683197
 21
-89.325942
 31
0.0
 11
43.200078
 21
-89.812879
 31
0.0
  0
SPLINE
  5
146
100
AcDbEntity
  8
0
 62
7
100
AcDbSpline
 70
0
 71
3
 72
10
 73
6
 74
4
 40
0.000000
 40
0.000000
 40
0.000000
 40
0.000000
 40
3.501708
 40
7.358527
 40
10.872058
 40
10.872058
 40
10.872058
 40
10.872058
 10
43.200078
 20
-89.812879
 30
0.0
 10
42.052309
 20
-90.033431
 30
0.0
 10
39.640373
 20
-90.496900
 30
0.0
 10
35.990479
 20
-90.522505
 30
0.0
 10
33.559109
 20
-90.160605
 30
0.0
 10
32.400046
 20
-89.988083
 30
0.0
 11
43.200078
 21
-89.812879
 31
0.0
 11
39.743540
 21
-90.373504
 31
0.0
 11
35.886995
 21
-90.419461
 31
0.0
 11
32.400046
 21
-89.988083
 31
0.0
  0
SPLINE
  5
147
100
AcDbEntity
  8
0
 62
7
100
AcDbSpline
 70
0
 71
3
 72
13
 73
9
 74
7
 40
0.000000
 40
0.000000
 40
0.000000
 40
0.000000
 40
1.664281
 40
3.336175
 40
4.990989
 40
7.836032
 40
10.674074
 40
13.513122
 40
13.513122
 40
13.513122
 40
13.513122
 10
32.400046
 20
-89.988083
 30
0.0
 10
31.860680
 20
-89.855965
 30
0.0
 10
30.779480
 20
-89.591125
 30
0.0
 10
29.247268
 20
-88.907390
 30
0.0
 10
27.625275
 20
-87.591826
 30
0.0
 10
26.482469
 20
-85.325212
 30
0.0
 10
26.095509
 20
-82.500503
 30
0.0
 10
25.957734
 20
-80.613914
 30
0.0
 10
25.888835
 20
-79.670453
 30
0.0
 11
32.400046
 21
-89.988083
 31
0.0
 11
30.796135
 21
-89.543899
 31
0.0
 11
29.279152
 21
-88.841053
 31
0.0
 11
28.003235
 21
-87.787275
 31
0.0
 11
26.638524
 21
-85.290912
 31
0.0
 11
26.125545
 21
-82.499616
 31
0.0
 11
25.888835
 21
-79.670453
 31
0.0
  0
SPLINE
  5
148
100
AcDbEntity
  8
0
 62
7
100
AcDbSpline
 70
0
 71
3
 72
10
 73
6
 74
4
 40
0.000000
 40
0.000000
 40
0.000000
 40
0.000000
 40
1.039092
 40
2.293960
 40
3.254789
 40
3.254789
 40
3.254789
 40
3.254789
 10
25.888835
 20
-79.670453
 30
0.0
 10
25.837244
 20
-79.329210
 30
0.0
 10
25.723348
 20
-78.575862
 30
0.0
 10
25.580901
 20
-77.478032
 30
0.0
 10
25.795692
 20
-76.764057
 30
0.0
 10
25.888835
 20
-76.454444
 30
0.0
 11
25.888835
 21
-79.670453
 31
0.0
 11
25.736831
 21
-78.642539
 31
0.0
 11
25.668032
 21
-77.389558
 31
0.0
 11
25.888835
 21
-76.454444
 31
0.0
  0
LWPOLYLINE
  5
149
100
AcDbEntity
  8
0
 62
7
100
AcDbPolyline
 90
2
 70
0
 10
36.720066
 20
-64.248013
 30
0.0
 10
38.640066
 20
-64.248013
 30
0.0
  0
SPLINE
  5
14a
100
AcDbEntity
  8
0
 62
7
100
AcDbSpline
 70
0
 71
3
 72
10
 73
6
 74
4
 40
0.000000
 40
0.000000
 40
0.000000
 40
0.000000
 40
0.646285
 40
1.375678
 40
2.035175
 40
2.035175
 40
2.035175
 40
2.035175
 10
25.888835
 20
-76.454444
 30
0.0
 10
26.071431
 20
-76.332302
 30
0.0
 10
26.460104
 20
-76.072311
 30
0.0
 10
27.161669
 20
-76.060837
 30
0.0
 10
27.621635
 20
-76.067350
 30
0.0
 10
27.840045
 20
-76.070443
 30
0.0
 11
25.888835
 21
-76.454444
 31
0.0
 11
26.455504
 21
-76.143688
 31
0.0
 11
27.180575
 21
-76.064399
 31
0.0
 11
27.840045
 21
-76.070443
 31
0.0
  0
SPLINE
  5
14b
100
AcDbEntity
  8
0
 62
7
100
AcDbSpline
 70
0
 71
3
 72
13
 73
9
 74
7
 40
0.000000
 40
0.000000
 40
0.000000
 40
0.000000
 40
0.681438
 40
1.407973
 40
2.063109
 40
3.606496
 40
5.726329
 40
7.388339
 40
7.388339
 40
7.388339
 40
7.388339
 10
40.800070
 20
-76.070443
 30
0.0
 10
41.027381
 20
-76.074283
 30
0.0
 10
41.497046
 20
-76.082217
 30
0.0
 10
42.182085
 20
-76.046242
 30
0.0
 10
43.135430
 20
-75.596594
 30
0.0
 10
43.139375
 20
-73.899843
 30
0.0
 10
42.866102
 20
-72.223230
 30
0.0
 10
42.322831
 20
-71.067805
 30
0.0
 10
42.084080
 20
-70.560030
 30
0.0
 11
40.800070
 21
-76.070443
 31
0.0
 11
41.481497
 21
-76.074354
 31
0.0
 11
42.203455
 21
-75.992931
 31
0.0
 11
42.782479
 21
-75.686442
 31
0.0
 11
43.104885
 21
-74.177105
 31
0.0
 11
42.732892
 21
-72.090167
 31
0.0
 11
42.084080
 21
-70.560030
 31
0.0
  0
SPLINE
  5
14c
100
AcDbEntity
  8
0
 62
7
100
AcDbSpline
 70
0
 71
3
 72
10
 73
6
 74
4
 40
0.000000
 40
0.000000
 40
0.000000
 40
0.000000
 40
1.941593
 40
3.865587
 40
5.832324
 40
5.832324
 40
5.832324
 40
5.832324
 10
42.084080
 20
-70.560030
 30
0.0
 10
41.607427
 20
-70.100191
 30
0.0
 10
40.658443
 20
-69.184681
 30
0.0
 10
38.660976
 20
-68.863145
 30
0.0
 10
37.371757
 20
-68.867981
 30
0.0
 10
36.720066
 20
-68.870425
 30
0.0
 11
42.084080
 21
-70.560030
 31
0.0
 11
40.559539
 21
-69.357715
 31
0.0
 11
38.686200
 21
-68.919136
 31
0.0
 11
36.720066
 21
-68.870425
 31
0.0
  0
LWPOLYLINE
  5
14d
100
AcDbEntity
  8
0
 62
7
100
AcDbPolyline
 90
2
 70
0
 10
27.840045
 20
-76.070443
 30
0.0
 10
40.800070
 20
-76.070443
 30
0.0
  0
SPLINE
  5
14e
100
AcDbEntity
  8
0
 62
7
100
AcDbSpline
 70
0
 71
3
 72
16
 73
12
 74
10
 40
0.000000
 40
0.000000
 40
0.000000
 40
0.000000
 40
1.503064
 40
3.051785
 40
4.515516
 40
5.500167
 40
6.306524
 40
7.019035
 40
7.450873
 40
7.954274
 40
8.399532
 40
8.399532
 40
8.399532
 40
8.399532
 10
36.720066
 20
-68.870425
 30
0.0
 10
36.219030
 20
-68.888386
 30
0.0
 10
35.201738
 20
-68.924853
 30
0.0
 10
33.717614
 20
-69.267697
 30
0.0
 10
32.594735
 20
-70.124562
 30
0.0
 10
32.215638
 20
-71.176244
 30
0.0
 10
32.160536
 20
-72.012106
 30
0.0
 10
31.718555
 20
-72.587526
 30
0.0
 10
31.162070
 20
-72.687730
 30
0.0
 10
30.705309
 20
-72.711607
 30
0.0
 10
30.388662
 20
-72.710809
 30
0.0
 10
30.240042
 20
-72.710434
 30
0.0
 11
36.720066
 21
-68.870425
 31
0.0
 11
35.220416
 21
-68.971668
 31
0.0
 11
33.727698
 21
-69.384381
 31
0.0
 11
32.604054
 21
-70.322428
 31
0.0
 11
32.246009
 21
-71.239675
 31
0.0
 11
32.070899
 21
-72.026788
 31
0.0
 11
31.605652
 21
-72.566434
 31
0.0
 11
31.187606
 21
-72.674701
 31
0.0
 11
30.685292
 21
-72.707768
 31
0.0
 11
30.240042
 21
-72.710434
 31
0.0
  0
LWPOLYLINE
  5
14f
100
AcDbEntity
  8
0
 62
7
100
AcDbPolyline
 90
2
 70
0
 10
30.240042
 20
-72.710434
 30
0.0
 10
25.680029
 20
-72.710434
 30
0.0
  0
SPLINE
  5
150
100
AcDbEntity
  8
0
 62
7
100
AcDbSpline
 70
0
 71
3
 72
10
 73
6
 74
4
 40
0.000000
 40
0.000000
 40
0.000000
 40
0.000000
 40
1.161277
 40
2.502465
 40
3.643624
 40
3.643624
 40
3.643624
 40
3.643624
 10
25.680029
 20
-72.710434
 30
0.0
 10
25.700962
 20
-72.323997
 30
0.0
 10
25.746070
 20
-71.491252
 30
0.0
 10
25.885408
 20
-70.281312
 30
0.0
 10
26.091634
 20
-69.479175
 30
0.0
 10
26.186438
 20
-69.110426
 30
0.0
 11
25.680029
 21
-72.710434
 31
0.0
 11
25.753721
 21
-71.551498
 31
0.0
 11
25.925547
 21
-70.221362
 31
0.0
 11
26.186438
 21
-69.110426
 31
0.0
  0
SPLINE
  5
151
100
AcDbEntity
  8
0
 62
7
100
AcDbSpline
 70
0
 71
3
 72
10
 73
6
 74
4
 40
0.000000
 40
0.000000
 40
0.000000
 40
0.000000
 40
1.514978
 40
2.515098
 40
3.957938
 40
3.957938
 40
3.957938
 40
3.957938
 10
61.200125
 20
-83.030462
 30
0.0
 10
61.786267
 20
-83.055710
 30
0.0
 10
62.759353
 20
-83.097626
 30
0.0
 10
63.000981
 20
-84.572277
 30
0.0
 10
63.548164
 20
-85.178200
 30
0.0
 10
63.871336
 20
-85.536066
 30
0.0
 11
61.200125
 21
-83.030462
 31
0.0
 11
62.661196
 21
-83.430997
 31
0.0
 11
63.040665
 21
-84.356332
 31
0.0
 11
63.871336
 21
-85.536066
 31
0.0
  0
SPLINE
  5
152
100
AcDbEntity
  8
0
 62
7
100
AcDbSpline
 70
0
 71
3
 72
10
 73
6
 74
4
 40
0.000000
 40
0.000000
 40
0.000000
 40
0.000000
 40
1.320154
 40
2.785332
 40
4.153485
 40
4.153485
 40
4.153485
 40
4.153485
 10
63.871336
 20
-85.536066
 30
0.0
 10
64.270400
 20
-85.733738
 30
0.0
 10
65.112366
 20
-86.150798
 30
0.0
 10
66.525226
 20
-86.170038
 30
0.0
 10
67.465907
 20
-86.156844
 30
0.0
 10
67.920142
 20
-86.150473
 30
0.0
 11
63.871336
 21
-85.536066
 31
0.0
 11
65.092227
 21
-86.038291
 31
0.0
 11
66.552050
 21
-86.163450
 31
0.0
 11
67.920142
 21
-86.150473
 31
0.0
  0
SPLINE
  5
153
100
AcDbEntity
  8
0
 62
7
100
AcDbSpline
 70
0
 71
3
 72
10
 73
6
 74
4
 40
0.000000
 40
0.000000
 40
0.000000
 40
0.000000
 40
2.069829
 40
4.065962
 40
6.105928
 40
6.105928
 40
6.105928
 40
6.105928
 10
67.920142
 20
-86.150473
 30
0.0
 10
68.601940
 20
-86.120193
 30
0.0
 10
69.941262
 20
-86.060710
 30
0.0
 10
72.034110
 20
-85.299348
 30
0.0
 10
72.472289
 20
-83.951636
 30
0.0
 10
72.693758
 20
-83.270462
 30
0.0
 11
67.920142
 21
-86.150473
 31
0.0
 11
69.979613
 21
-85.943662
 31
0.0
 11
71.787885
 21
-85.098264
 31
0.0
 11
72.693758
 21
-83.270462
 31
0.0
  0
SPLINE
  5
154
100
AcDbEntity
  8
0
 62
7
100
AcDbSpline
 70
0
 71
3
 72
10
 73
6
 74
4
 40
0.000000
 40
0.000000
 40
0.000000
 40
0.000000
 40
2.533652
 40
5.176978
 40
7.904148
 40
7.904148
 40
7.904148
 40
7.904148
 10
72.693758
 20
-83.270462
 30
0.0
 10
72.509743
 20
-82.352664
 30
0.0
 10
72.133749
 20
-80.477339
 30
0.0
 10
69.093478
 20
-80.164779
 30
0.0
 10
67.360271
 20
-80.148911
 30
0.0
 10
66.480139
 20
-80.140854
 30
0.0
 11
72.693758
 21
-83.270462
 31
0.0
 11
71.754820
 21
-80.917212
 31
0.0
 11
69.206281
 21
-80.215698
 31
0.0
 11
66.480139
 21
-80.140854
 31
0.0
  0
SPLINE
  5
155
100
AcDbEntity
  8
0
 62
7
100
AcDbSpline
 70
0
 71
3
 72
10
 73
6
 74
4
 40
0.000000
 40
0.000000
 40
0.000000
 40
0.000000
 40
3.082358
 40
6.720704
 40
9.619229
 40
9.619229
 40
9.619229
 40
9.619229
 10
66.480139
 20
-80.140854
 30
0.0
 10
65.458792
 20
-80.067207
 30
0.0
 10
63.231871
 20
-79.906630
 30
0.0
 10
59.986073
 20
-79.515063
 30
0.0
 10
58.088652
 20
-78.403935
 30
0.0
 10
57.247314
 20
-77.911248
 30
0.0
 11
66.480139
 21
-80.140854
 31
0.0
 11
63.407510
 21
-79.896145
 31
0.0
 11
59.831945
 21
-79.223164
 31
0.0
 11
57.247314
 21
-77.911248
 31
0.0
  0
SPLINE
  5
156
100
AcDbEntity
  8
0
 62
7
100
AcDbSpline
 70
0
 71
3
 72
10
 73
6
 74
4
 40
0.000000
 40
0.000000
 40
0.000000
 40
0.000000
 40
1.725608
 40
3.547143
 40
5.293630
 40
5.293630
 40
5.293630
 40
5.293630
 10
57.247314
 20
-77.911248
 30
0.0
 10
56.913155
 20
-77.437515
 30
0.0
 10
56.226261
 20
-76.463714
 30
0.0
 10
55.803099
 20
-74.715299
 30
0.0
 10
55.722143
 20
-73.530415
 30
0.0
 10
55.682517
 20
-72.950435
 30
0.0
 11
57.247314
 21
-77.911248
 31
0.0
 11
56.340293
 21
-76.443244
 31
0.0
 11
55.850337
 21
-74.688840
 31
0.0
 11
55.682517
 21
-72.950435
 31
0.0
  0
SPLINE
  5
157
100
AcDbEntity
  8
0
 62
7
100
AcDbSpline
 70
0
 71
3
 72
10
 73
6
 74
4
 40
0.000000
 40
0.000000
 40
0.000000
 40
0.000000
 40
2.266989
 40
4.637226
 40
6.871876
 40
6.871876
 40
6.871876
 40
6.871876
 10
55.682517
 20
-72.950435
 30
0.0
 10
55.705432
 20
-72.196505
 30
0.0
 10
55.752306
 20
-70.654307
 30
0.0
 10
56.262502
 20
-68.363465
 30
0.0
 10
57.192166
 20
-67.122858
 30
0.0
 10
57.643312
 20
-66.520818
 30
0.0
 11
55.682517
 21
-72.950435
 31
0.0
 11
55.822341
 21
-70.687763
 31
0.0
 11
56.428294
 21
-68.396290
 31
0.0
 11
57.643312
 21
-66.520818
 31
0.0
  0
LWPOLYLINE
  5
158
100
AcDbEntity
  8
0
 62
7
100
AcDbPolyline
 90
1
 70
1
 10
26.186438
 20
-69.110426
 30
0.0
  0
SPLINE
  5
159
100
AcDbEntity
  8
0
 62
7
100
AcDbSpline
 70
0
 71
3
 72
10
 73
6
 74
4
 40
0.000000
 40
0.000000
 40
0.000000
 40
0.000000
 40
2.737743
 40
5.571369
 40
8.333215
 40
8.333215
 40
8.333215
 40
8.333215
 10
57.643312
 20
-66.520818
 30
0.0
 10
58.402248
 20
-65.992340
 30
0.0
 10
59.946701
 20
-64.916873
 30
0.0
 10
62.755623
 20
-64.505347
 30
0.0
 10
64.606545
 20
-64.347516
 30
0.0
 10
65.520133
 20
-64.269613
 30
0.0
 11
57.643312
 21
-66.520818
 31
0.0
 11
60.000656
 21
-65.128637
 31
0.0
 11
62.770798
 21
-64.532191
 31
0.0
 11
65.520133
 21
-64.269613
 31
0.0
  0
SPLINE
  5
15a
100
AcDbEntity
  8
0
 62
7
100
AcDbSpline
 70
0
 71
3
 72
13
 73
9
 74
7
 40
0.000000
 40
0.000000
 40
0.000000
 40
0.000000
 40
0.965116
 40
1.739866
 40
2.649865
 40
5.219819
 40
7.880997
 40
10.423938
 40
10.423938
 40
10.423938
 40
10.423938
 10
67.440144
 20
-64.072813
 30
0.0
 10
67.762238
 20
-64.070806
 30
0.0
 10
68.342894
 20
-64.067190
 30
0.0
 10
69.220793
 20
-64.172431
 30
0.0
 10
70.630159
 20
-64.338978
 30
0.0
 10
72.660408
 20
-64.466130
 30
0.0
 10
75.292025
 20
-64.813418
 30
0.0
 10
76.735590
 20
-65.818497
 30
0.0
 10
77.440973
 20
-66.309618
 30
0.0
 11
67.440144
 21
-64.072813
 31
0.0
 11
68.405122
 21
-64.089169
 31
0.0
 11
69.175967
 21
-64.166856
 31
0.0
 11
70.080146
 21
-64.269613
 31
0.0
 11
72.640241
 21
-64.494502
 31
0.0
 11
75.248872
 21
-65.020726
 31
0.0
 11
77.440973
 21
-66.309618
 31
0.0
  0
LWPOLYLINE
  5
15b
100
AcDbEntity
  8
0
 62
7
100
AcDbPolyline
 90
2
 70
0
 10
65.520133
 20
-64.269613
 30
0.0
 10
67.440144
 20
-64.072813
 30
0.0
  0
SPLINE
  5
15c
100
AcDbEntity
  8
0
 62
7
100
AcDbSpline
 70
0
 71
3
 72
10
 73
6
 74
4
 40
0.000000
 40
0.000000
 40
0.000000
 40
0.000000
 40
2.282436
 40
4.527549
 40
6.807328
 40
6.807328
 40
6.807328
 40
6.807328
 10
77.440973
 20
-66.309618
 30
0.0
 10
77.908597
 20
-66.924747
 30
0.0
 10
78.836197
 20
-68.144946
 30
0.0
 10
79.185779
 20
-70.450985
 30
0.0
 10
79.195349
 20
-71.953448
 30
0.0
 10
79.200171
 20
-72.710434
 30
0.0
 11
77.440973
 21
-66.309618
 31
0.0
 11
78.667194
 21
-68.234690
 31
0.0
 11
79.129149
 21
-70.431762
 31
0.0
 11
79.200171
 21
-72.710434
 31
0.0
  0
SPLINE
  5
15d
100
AcDbEntity
  8
0
 62
7
100
AcDbSpline
 70
0
 71
3
 72
10
 73
6
 74
4
 40
0.000000
 40
0.000000
 40
0.000000
 40
0.000000
 40
3.454864
 40
7.399940
 40
11.067330
 40
11.067330
 40
11.067330
 40
11.067330
 10
72.720158
 20
-72.470434
 30
0.0
 10
72.502075
 20
-71.216082
 30
0.0
 10
72.034965
 20
-68.529399
 30
0.0
 10
67.621019
 20
-68.090852
 30
0.0
 10
65.231370
 20
-68.709287
 30
0.0
 10
64.080130
 20
-69.007225
 30
0.0
 11
72.720158
 21
-72.470434
 31
0.0
 11
71.524421
 21
-69.229092
 31
0.0
 11
67.683877
 21
-68.326957
 31
0.0
 11
64.080130
 21
-69.007225
 31
0.0
  0
SPLINE
  5
15e
100
AcDbEntity
  8
0
 62
7
100
AcDbSpline
 70
0
 71
3
 72
10
 73
6
 74
4
 40
0.000000
 40
0.000000
 40
0.000000
 40
0.000000
 40
1.361871
 40
2.682040
 40
4.029115
 40
4.029115
 40
4.029115
 40
4.029115
 10
64.080130
 20
-69.007225
 30
0.0
 10
63.689761
 20
-69.241137
 30
0.0
 10
62.920976
 20
-69.701797
 30
0.0
 10
62.094400
 20
-70.863315
 30
0.0
 10
62.101397
 20
-71.771673
 30
0.0
 10
62.104930
 20
-72.230434
 30
0.0
 11
64.080130
 21
-69.007225
 31
0.0
 11
62.965376
 21
-69.789539
 31
0.0
 11
62.235685
 21
-70.889719
 31
0.0
 11
62.104930
 21
-72.230434
 31
0.0
  0
LWPOLYLINE
  5
15f
100
AcDbEntity
  8
0
 62
7
100
AcDbPolyline
 90
2
 70
0
 10
79.200171
 20
-72.710434
 30
0.0
 10
72.720158
 20
-72.470434
 30
0.0
  0
SPLINE
  5
160
100
AcDbEntity
  8
0
 62
7
100
AcDbSpline
 70
0
 71
3
 72
10
 73
6
 74
4
 40
0.000000
 40
0.000000
 40
0.000000
 40
0.000000
 40
2.471745
 40
4.940226
 40
7.480592
 40
7.480592
 40
7.480592
 40
7.480592
 10
62.104930
 20
-72.230434
 30
0.0
 10
62.463993
 20
-73.040495
 30
0.0
 10
63.181646
 20
-74.659548
 30
0.0
 10
65.937634
 20
-74.923062
 30
0.0
 10
67.571495
 20
-74.888148
 30
0.0
 10
68.400150
 20
-74.870441
 30
0.0
 11
62.104930
 21
-72.230434
 31
0.0
 11
63.458089
 21
-74.298884
 31
0.0
 11
65.859784
 21
-74.869196
 31
0.0
 11
68.400150
 21
-74.870441
 31
0.0
  0
SPLINE
  5
161
100
AcDbEntity
  8
0
 62
7
100
AcDbSpline
 70
0
 71
3
 72
13
 73
9
 74
7
 40
0.000000
 40
0.000000
 40
0.000000
 40
0.000000
 40
2.672447
 40
5.351362
 40
7.985559
 40
9.400969
 40
10.850387
 40
12.268521
 40
12.268521
 40
12.268521
 40
12.268521
 10
70.560154
 20
-75.069641
 30
0.0
 10
71.446810
 20
-75.150154
 30
0.0
 10
73.222268
 20
-75.311375
 30
0.0
 10
75.844261
 20
-75.910798
 30
0.0
 10
77.727950
 20
-77.338305
 30
0.0
 10
78.545393
 20
-79.005502
 30
0.0
 10
78.888707
 20
-80.401279
 30
0.0
 10
78.936521
 20
-81.357543
 30
0.0
 10
78.960167
 20
-81.830458
 30
0.0
 11
70.560154
 21
-75.069641
 31
0.0
 11
73.215538
 21
-75.371152
 31
0.0
 11
75.793587
 21
-76.099332
 31
0.0
 11
77.844168
 21
-77.752848
 31
0.0
 11
78.492439
 21
-79.011073
 31
0.0
 11
78.844705
 21
-80.417032
 31
0.0
 11
78.960167
 21
-81.830458
 31
0.0
  0
SPLINE
  5
162
100
AcDbEntity
  8
0
 62
7
100
AcDbSpline
 70
0
 71
3
 72
10
 73
6
 74
4
 40
0.000000
 40
0.000000
 40
0.000000
 40
0.000000
 40
2.253114
 40
4.512229
 40
6.743206
 40
6.743206
 40
6.743206
 40
6.743206
 10
78.960167
 20
-81.830458
 30
0.0
 10
78.969446
 20
-82.577762
 30
0.0
 10
78.988028
 20
-84.074361
 30
0.0
 10
78.767432
 20
-86.377814
 30
0.0
 10
77.881275
 20
-87.616043
 30
0.0
 10
77.440973
 20
-88.231278
 30
0.0
 11
78.960167
 21
-81.830458
 31
0.0
 11
78.946565
 21
-84.083531
 31
0.0
 11
78.579371
 21
-86.312604
 31
0.0
 11
77.440973
 21
-88.231278
 31
0.0
  0
SPLINE
  5
163
100
AcDbEntity
  8
0
 62
7
100
AcDbSpline
 70
0
 71
3
 72
10
 73
6
 74
4
 40
0.000000
 40
0.000000
 40
0.000000
 40
0.000000
 40
2.879330
 40
6.235759
 40
9.224485
 40
9.224485
 40
9.224485
 40
9.224485
 10
77.440973
 20
-88.231278
 30
0.0
 10
76.620748
 20
-88.747366
 30
0.0
 10
74.844388
 20
-89.865055
 30
0.0
 10
71.737756
 20
-90.317697
 30
0.0
 10
69.632004
 20
-90.421558
 30
0.0
 10
68.640143
 20
-90.470479
 30
0.0
 11
77.440973
 21
-88.231278
 31
0.0
 11
74.911277
 21
-89.606478
 31
0.0
 11
71.622644
 21
-90.277681
 31
0.0
 11
68.640143
 21
-90.470479
 31
0.0
  0
LWPOLYLINE
  5
164
100
AcDbEntity
  8
0
 62
7
100
AcDbPolyline
 90
2
 70
0
 10
68.400150
 20
-74.870441
 30
0.0
 10
70.560154
 20
-75.069641
 30
0.0
  0
SPLINE
  5
165
100
AcDbEntity
  8
0
 62
7
100
AcDbSpline
 70
0
 71
3
 72
13
 73
9
 74
7
 40
0.000000
 40
0.000000
 40
0.000000
 40
0.000000
 40
3.515378
 40
7.567248
 40
10.889986
 40
12.716716
 40
14.617642
 40
16.460368
 40
16.460368
 40
16.460368
 40
16.460368
 10
68.640143
 20
-90.470479
 30
0.0
 10
67.464825
 20
-90.463979
 30
0.0
 10
64.934821
 20
-90.449987
 30
0.0
 10
61.370307
 20
-90.034808
 30
0.0
 10
58.294732
 20
-88.856730
 30
0.0
 10
57.145051
 20
-86.708693
 30
0.0
 10
56.717586
 20
-84.895251
 30
0.0
 10
56.665668
 20
-83.645582
 30
0.0
 10
56.640112
 20
-83.030462
 30
0.0
 11
68.640143
 21
-90.470479
 31
0.0
 11
65.125647
 21
-90.391738
 31
0.0
 11
61.116213
 21
-89.806852
 31
0.0
 11
58.161716
 21
-88.286480
 31
0.0
 11
57.234429
 21
-86.712606
 31
0.0
 11
56.773805
 21
-84.868331
 31
0.0
 11
56.640112
 21
-83.030462
 31
0.0
  0
LWPOLYLINE
  5
166
100
AcDbEntity
  8
0
 62
7
100
AcDbPolyline
 90
2
 70
0
 10
56.640112
 20
-83.030462
 30
0.0
 10
61.200125
 20
-83.030462
 30
0.0
  0
SPLINE
  5
167
100
AcDbEntity
  8
0
 62
7
100
AcDbSpline
 70
0
 71
3
 72
10
 73
6
 74
4
 40
0.000000
 40
0.000000
 40
0.000000
 40
0.000000
 40
2.059154
 40
4.330783
 40
6.420174
 40
6.420174
 40
6.420174
 40
6.420174
 10
108.393848
 20
-67.670422
 30
0.0
 10
108.668380
 20
-68.302140
 30
0.0
 10
109.245771
 20
-69.630762
 30
0.0
 10
109.577475
 20
-71.764490
 30
0.0
 10
109.646964
 20
-73.215331
 30
0.0
 10
109.680256
 20
-73.910438
 30
0.0
 11
108.393848
 21
-67.670422
 31
0.0
 11
109.137496
 21
-69.590604
 31
0.0
 11
109.544610
 21
-71.825455
 31
0.0
 11
109.680256
 21
-73.910438
 31
0.0
  0
SPLINE
  5
168
100
AcDbEntity
  8
0
 62
7
100
AcDbSpline
 70
0
 71
3
 72
13
 73
9
 74
7
 40
0.000000
 40
0.000000
 40
0.000000
 40
0.000000
 40
1.597448
 40
3.412663
 40
4.944632
 40
7.170866
 40
9.666036
 40
11.943449
 40
11.943449
 40
11.943449
 40
11.943449
 10
103.440237
 20
-75.110441
 30
0.0
 10
103.419026
 20
-74.577202
 30
0.0
 10
103.373713
 20
-73.438032
 30
0.0
 10
103.116270
 20
-71.820260
 30
0.0
 10
102.423684
 20
-70.001289
 30
0.0
 10
100.339512
 20
-69.099515
 30
0.0
 10
97.971724
 20
-69.019790
 30
0.0
 10
96.474615
 20
-69.604305
 30
0.0
 10
95.760215
 20
-69.883228
 30
0.0
 11
103.440237
 21
-75.110441
 31
0.0
 11
103.347601
 21
-73.515681
 31
0.0
 11
103.030448
 21
-71.728388
 31
0.0
 11
102.379427
 21
-70.341629
 31
0.0
 11
100.423870
 21
-69.277715
 31
0.0
 11
97.930175
 21
-69.191937
 31
0.0
 11
95.760215
 21
-69.883228
 31
0.0
  0
SPLINE
  5
169
100
AcDbEntity
  8
0
 62
7
100
AcDbSpline
 70
0
 71
3
 72
10
 73
6
 74
4
 40
0.000000
 40
0.000000
 40
0.000000
 40
0.000000
 40
1.073516
 40
2.110544
 40
3.181428
 40
3.181428
 40
3.181428
 40
3.181428
 10
95.760215
 20
-69.883228
 30
0.0
 10
95.462244
 20
-70.083549
 30
0.0
 10
94.876432
 20
-70.477384
 30
0.0
 10
94.175404
 20
-71.292279
 30
0.0
 10
93.846503
 20
-71.914385
 30
0.0
 10
93.679412
 20
-72.230434
 30
0.0
 11
95.760215
 21
-69.883228
 31
0.0
 11
94.897545
 21
-70.522163
 31
0.0
 11
94.215678
 21
-71.303498
 31
0.0
 11
93.679412
 21
-72.230434
 31
0.0
  0
LWPOLYLINE
  5
16a
100
AcDbEntity
  8
0
 62
7
100
AcDbPolyline
 90
4
 70
0
 10
109.680256
 20
-73.910438
 30
0.0
 10
109.680256
 20
-89.990482
 30
0.0
 10
103.440237
 20
-89.990482
 30
0.0
 10
103.440237
 20
-75.110441
 30
0.0
  0
SPLINE
  5
16b
100
AcDbEntity
  8
0
 62
7
100
AcDbSpline
 70
0
 71
3
 72
10
 73
6
 74
4
 40
0.000000
 40
0.000000
 40
0.000000
 40
0.000000
 40
2.242133
 40
4.554008
 40
6.817308
 40
6.817308
 40
6.817308
 40
6.817308
 10
93.679412
 20
-72.230434
 30
0.0
 10
93.431931
 20
-72.940254
 30
0.0
 10
92.929272
 20
-74.381973
 30
0.0
 10
92.860470
 20
-76.675055
 30
0.0
 10
92.873676
 20
-78.197373
 30
0.0
 10
92.880209
 20
-78.950451
 30
0.0
 11
93.679412
 21
-72.230434
 31
0.0
 11
93.047675
 21
-74.381728
 31
0.0
 11
92.875141
 21
-76.687156
 31
0.0
 11
92.880209
 21
-78.950451
 31
0.0
  0
LWPOLYLINE
  5
16c
100
AcDbEntity
  8
0
 62
7
100
AcDbPolyline
 90
6
 70
0
 10
92.880209
 20
-78.950451
 30
0.0
 10
92.880209
 20
-89.990482
 30
0.0
 10
86.640189
 20
-89.990482
 30
0.0
 10
86.640189
 20
-64.550413
 30
0.0
 10
92.880209
 20
-64.550413
 30
0.0
 10
92.880209
 20
-68.390424
 30
0.0
  0
SPLINE
  5
16d
100
AcDbEntity
  8
0
 62
7
100
AcDbSpline
 70
0
 71
3
 72
10
 73
6
 74
4
 40
0.000000
 40
0.000000
 40
0.000000
 40
0.000000
 40
5.708233
 40
12.077797
 40
17.841523
 40
17.841523
 40
17.841523
 40
17.841523
 10
92.880209
 20
-68.390424
 30
0.0
 10
94.193310
 20
-66.934707
 30
0.0
 10
96.971644
 20
-63.854621
 30
0.0
 10
103.774600
 20
-63.721931
 30
0.0
 10
106.906221
 20
-66.398812
 30
0.0
 10
108.393848
 20
-67.670422
 30
0.0
 11
92.880209
 21
-68.390424
 31
0.0
 11
97.227595
 21
-64.691214
 31
0.0
 11
103.593657
 21
-64.480013
 31
0.0
 11
108.393848
 21
-67.670422
 31
0.0
  0
SPLINE
  5
16e
100
AcDbEntity
  8
0
 62
7
100
AcDbSpline
 70
0
 71
3
 72
10
 73
6
 74
4
 40
0.000000
 40
0.000000
 40
0.000000
 40
0.000000
 40
1.764559
 40
3.515453
 40
5.291327
 40
5.291327
 40
5.291327
 40
5.291327
 10
138.698726
 20
-66.494418
 30
0.0
 10
139.077613
 20
-66.949928
 30
0.0
 10
139.832453
 20
-67.857419
 30
0.0
 10
140.435237
 20
-69.543339
 30
0.0
 10
140.676996
 20
-70.692022
 30
0.0
 10
140.798732
 20
-71.270431
 30
0.0
 11
138.698726
 21
-66.494418
 31
0.0
 11
139.746107
 21
-67.914511
 31
0.0
 11
140.392954
 21
-69.541538
 31
0.0
 11
140.798732
 21
-71.270431
 31
0.0
  0
SPLINE
  5
16f
100
AcDbEntity
  8
0
 62
7
100
AcDbSpline
 70
0
 71
3
 72
10
 73
6
 74
4
 40
0.000000
 40
0.000000
 40
0.000000
 40
0.000000
 40
3.758798
 40
8.269923
 40
12.030699
 40
12.030699
 40
12.030699
 40
12.030699
 10
140.798732
 20
-71.270431
 30
0.0
 10
140.930689
 20
-72.516730
 30
0.0
 10
141.221016
 20
-75.258777
 30
0.0
 10
141.229265
 20
-79.281272
 30
0.0
 10
140.933293
 20
-82.023653
 30
0.0
 10
140.798732
 20
-83.270462
 30
0.0
 11
140.798732
 21
-71.270431
 31
0.0
 11
141.135800
 21
-75.014085
 31
0.0
 11
141.140067
 21
-79.525208
 31
0.0
 11
140.798732
 21
-83.270462
 31
0.0
  0
SPLINE
  5
170
100
AcDbEntity
  8
0
 62
7
100
AcDbSpline
 70
0
 71
3
 72
10
 73
6
 74
4
 40
0.000000
 40
0.000000
 40
0.000000
 40
0.000000
 40
1.709649
 40
3.489725
 40
5.182582
 40
5.182582
 40
5.182582
 40
5.182582
 10
140.798732
 20
-83.270462
 30
0.0
 10
140.693968
 20
-83.829707
 30
0.0
 10
140.480124
 20
-84.971233
 30
0.0
 10
139.951774
 20
-86.642064
 30
0.0
 10
139.251348
 20
-87.573337
 30
0.0
 10
138.909930
 20
-88.027279
 30
0.0
 11
140.798732
 21
-83.270462
 31
0.0
 11
140.450376
 21
-84.944245
 31
0.0
 11
139.851886
 21
-86.620693
 31
0.0
 11
138.909930
 21
-88.027279
 31
0.0
  0
SPLINE
  5
171
100
AcDbEntity
  8
0
 62
7
100
AcDbSpline
 70
0
 71
3
 72
10
 73
6
 74
4
 40
0.000000
 40
0.000000
 40
0.000000
 40
0.000000
 40
3.330173
 40
7.263698
 40
10.732328
 40
10.732328
 40
10.732328
 40
10.732328
 10
138.909930
 20
-88.027279
 30
0.0
 10
137.957462
 20
-88.619482
 30
0.0
 10
135.879960
 20
-89.911181
 30
0.0
 10
132.249698
 20
-90.363337
 30
0.0
 10
129.791978
 20
-90.436293
 30
0.0
 10
128.640297
 20
-90.470479
 30
0.0
 11
138.909930
 21
-88.027279
 31
0.0
 11
135.972762
 21
-89.596704
 31
0.0
 11
132.105462
 21
-90.315461
 31
0.0
 11
128.640297
 21
-90.470479
 31
0.0
  0
SPLINE
  5
172
100
AcDbEntity
  8
0
 62
7
100
AcDbSpline
 70
0
 71
3
 72
10
 73
6
 74
4
 40
0.000000
 40
0.000000
 40
0.000000
 40
0.000000
 40
3.173776
 40
6.721500
 40
9.784545
 40
9.784545
 40
9.784545
 40
9.784545
 10
128.640297
 20
-90.470479
 30
0.0
 10
127.587059
 20
-90.415660
 30
0.0
 10
125.356484
 20
-90.299563
 30
0.0
 10
122.066304
 20
-89.784695
 30
0.0
 10
120.193582
 20
-88.583734
 30
0.0
 10
119.325872
 20
-88.027279
 30
0.0
 11
128.640297
 21
-90.470479
 31
0.0
 11
125.473979
 21
-90.253049
 31
0.0
 11
122.004193
 21
-89.513497
 31
0.0
 11
119.325872
 21
-88.027279
 31
0.0
  0
SPLINE
  5
173
100
AcDbEntity
  8
0
 62
7
100
AcDbSpline
 70
0
 71
3
 72
10
 73
6
 74
4
 40
0.000000
 40
0.000000
 40
0.000000
 40
0.000000
 40
1.709353
 40
3.479335
 40
5.206838
 40
5.206838
 40
5.206838
 40
5.206838
 10
119.325872
 20
-88.027279
 30
0.0
 10
118.973531
 20
-87.574345
 30
0.0
 10
118.256353
 20
-86.652412
 30
0.0
 10
117.714649
 20
-84.976467
 30
0.0
 10
117.490289
 20
-83.834507
 30
0.0
 10
117.379471
 20
-83.270462
 30
0.0
 11
119.325872
 21
-88.027279
 31
0.0
 11
118.354582
 21
-86.620693
 31
0.0
 11
117.745959
 21
-84.958643
 31
0.0
 11
117.379471
 21
-83.270462
 31
0.0
  0
SPLINE
  5
174
100
AcDbEntity
  8
0
 62
7
100
AcDbSpline
 70
0
 71
3
 72
13
 73
9
 74
7
 40
0.000000
 40
0.000000
 40
0.000000
 40
0.000000
 40
3.816227
 40
8.448210
 40
12.274369
 40
13.930761
 40
15.637074
 40
17.276400
 40
17.276400
 40
17.276400
 40
17.276400
 10
117.379471
 20
-83.270462
 30
0.0
 10
117.254131
 20
-82.003131
 30
0.0
 10
116.976659
 20
-79.197565
 30
0.0
 10
117.102139
 20
-75.105110
 30
0.0
 10
117.347775
 20
-71.725881
 30
0.0
 10
117.937505
 20
-69.403425
 30
0.0
 10
118.519077
 20
-67.819240
 30
0.0
 10
119.220022
 20
-66.942978
 30
0.0
 10
119.563477
 20
-66.513618
 30
0.0
 11
117.379471
 21
-83.270462
 31
0.0
 11
117.077693
 21
-79.466186
 31
0.0
 11
117.146048
 21
-74.834707
 31
0.0
 11
117.554668
 21
-71.030430
 31
0.0
 11
117.961341
 21
-69.424737
 31
0.0
 11
118.608009
 21
-67.845711
 31
0.0
 11
119.563477
 21
-66.513618
 31
0.0
  0
SPLINE
  5
175
100
AcDbEntity
  8
0
 62
7
100
AcDbSpline
 70
0
 71
3
 72
10
 73
6
 74
4
 40
0.000000
 40
0.000000
 40
0.000000
 40
0.000000
 40
3.079101
 40
6.210315
 40
9.313120
 40
9.313120
 40
9.313120
 40
9.313120
 10
119.563477
 20
-66.513618
 30
0.0
 10
120.416896
 20
-65.910983
 30
0.0
 10
122.138179
 20
-64.695514
 30
0.0
 10
125.312234
 20
-64.413818
 30
0.0
 10
127.374080
 20
-64.266257
 30
0.0
 10
128.400304
 20
-64.192812
 30
0.0
 11
119.563477
 21
-66.513618
 31
0.0
 11
122.220906
 21
-64.958326
 31
0.0
 11
125.306072
 21
-64.423302
 31
0.0
 11
128.400304
 21
-64.192812
 31
0.0
  0
LWPOLYLINE
  5
176
100
AcDbEntity
  8
0
 62
7
100
AcDbPolyline
 90
1
 70
1
 10
108.393848
 20
-67.670422
 30
0.0
  0
LWPOLYLINE
  5
177
100
AcDbEntity
  8
0
 62
7
100
AcDbPolyline
 90
1
 70
1
 10
138.698726
 20
-66.494418
 30
0.0
  0
SPLINE
  5
178
100
AcDbEntity
  8
0
 62
7
100
AcDbSpline
 70
0
 71
3
 72
10
 73
6
 74
4
 40
0.000000
 40
0.000000
 40
0.000000
 40
0.000000
 40
3.487447
 40
7.377709
 40
10.733357
 40
10.733357
 40
10.733357
 40
10.733357
 10
128.400304
 20
-64.192812
 30
0.0
 10
129.558512
 20
-64.209164
 30
0.0
 10
132.008705
 20
-64.243755
 30
0.0
 10
135.647156
 20
-64.637360
 30
0.0
 10
137.732831
 20
-65.906615
 30
0.0
 10
138.698726
 20
-66.494418
 30
0.0
 11
128.400304
 21
-64.192812
 31
0.0
 11
131.886265
 21
-64.294590
 31
0.0
 11
135.721561
 21
-64.946236
 31
0.0
 11
138.698726
 21
-66.494418
 31
0.0
  0
LWPOLYLINE
  5
179
100
AcDbEntity
  8
0
 62
7
100
AcDbPolyline
 90
3
 70
0
 10
156.000373
 20
-64.550413
 30
0.0
 10
156.000373
 20
-87.830479
 30
0.0
 10
155.760369
 20
-95.030490
 30
0.0
  0
SPLINE
  5
17a
100
AcDbEntity
  8
0
 62
7
100
AcDbSpline
 70
0
 71
3
 72
10
 73
6
 74
4
 40
0.000000
 40
0.000000
 40
0.000000
 40
0.000000
 40
7.363691
 40
17.193408
 40
25.032819
 40
25.032819
 40
25.032819
 40
25.032819
 10
155.760369
 20
-95.030490
 30
0.0
 10
156.481424
 20
-92.683524
 30
0.0
 10
158.165010
 20
-87.203616
 30
0.0
 10
161.189465
 20
-79.421202
 30
0.0
 10
163.347096
 20
-73.941609
 30
0.0
 10
164.304391
 20
-71.510432
 30
0.0
 11
155.760369
 21
-95.030490
 31
0.0
 11
157.995754
 21
-88.014295
 31
0.0
 11
161.437006
 21
-78.806628
 31
0.0
 11
164.304391
 21
-71.510432
 31
0.0
  0
LWPOLYLINE
  5
17b
100
AcDbEntity
  8
0
 62
7
100
AcDbPolyline
 90
2
 70
0
 10
164.304391
 20
-71.510432
 30
0.0
 10
166.176399
 20
-66.710419
 30
0.0
  0
SPLINE
  5
17c
100
AcDbEntity
  8
0
 62
7
100
AcDbSpline
 70
0
 71
3
 72
13
 73
9
 74
7
 40
0.000000
 40
0.000000
 40
0.000000
 40
0.000000
 40
0.708763
 40
1.520457
 40
2.193784
 40
2.626831
 40
3.077975
 40
3.517084
 40
3.517084
 40
3.517084
 40
3.517084
 10
166.176399
 20
-66.710419
 30
0.0
 10
166.260484
 20
-66.489107
 30
0.0
 10
166.440866
 20
-66.014345
 30
0.0
 10
166.732494
 20
-65.351904
 30
0.0
 10
167.096996
 20
-64.790128
 30
0.0
 10
167.597257
 20
-64.593405
 30
0.0
 10
168.037148
 20
-64.553068
 30
0.0
 10
168.333988
 20
-64.551290
 30
0.0
 10
168.480401
 20
-64.550413
 30
0.0
 11
166.176399
 21
-66.710419
 31
0.0
 11
166.433378
 21
-66.049884
 31
0.0
 11
166.776222
 21
-65.314149
 31
0.0
 11
167.196403
 21
-64.788014
 31
0.0
 11
167.593826
 21
-64.616014
 31
0.0
 11
168.041380
 21
-64.559213
 31
0.0
 11
168.480401
 21
-64.550413
 31
0.0
  0
LWPOLYLINE
  5
17d
100
AcDbEntity
  8
0
 62
7
100
AcDbPolyline
 90
2
 70
0
 10
168.480401
 20
-64.550413
 30
0.0
 10
171.600411
 20
-64.550413
 30
0.0
  0
SPLINE
  5
17e
100
AcDbEntity
  8
0
 62
7
100
AcDbSpline
 70
0
 71
3
 72
13
 73
9
 74
7
 40
0.000000
 40
0.000000
 40
0.000000
 40
0.000000
 40
0.588552
 40
1.234894
 40
1.800117
 40
2.542008
 40
3.462719
 40
4.246952
 40
4.246952
 40
4.246952
 40
4.246952
 10
171.600411
 20
-64.550413
 30
0.0
 10
171.796847
 20
-64.547169
 30
0.0
 10
172.209007
 20
-64.540361
 30
0.0
 10
172.804854
 20
-64.563811
 30
0.0
 10
173.461529
 20
-64.755132
 30
0.0
 10
173.866599
 20
-65.430761
 30
0.0
 10
174.185496
 20
-66.167691
 30
0.0
 10
174.379284
 20
-66.703815
 30
0.0
 10
174.468421
 20
-66.950419
 30
0.0
 11
171.600411
 21
-64.550413
 31
0.0
 11
172.188946
 21
-64.545880
 31
0.0
 11
172.833482
 21
-64.594147
 31
0.0
 11
173.364418
 21
-64.788014
 31
0.0
 11
173.817039
 21
-65.375838
 31
0.0
 11
174.194996
 21
-66.215396
 31
0.0
 11
174.468421
 21
-66.950419
 31
0.0
  0
SPLINE
  5
17f
100
AcDbEntity
  8
0
 62
7
100
AcDbSpline
 70
0
 71
3
 72
10
 73
6
 74
4
 40
0.000000
 40
0.000000
 40
0.000000
 40
0.000000
 40
0.976119
 40
1.982026
 40
2.967542
 40
2.967542
 40
2.967542
 40
2.967542
 10
124.476293
 20
-70.404029
 30
0.0
 10
124.292660
 20
-70.676132
 30
0.0
 10
123.919788
 20
-71.228641
 30
0.0
 10
123.706985
 20
-72.210368
 30
0.0
 10
123.614739
 20
-72.865984
 30
0.0
 10
123.569089
 20
-73.190436
 30
0.0
 11
124.476293
 21
-70.404029
 31
0.0
 11
123.981356
 21
-71.245365
 31
0.0
 11
123.718423
 21
-72.216300
 31
0.0
 11
123.569089
 21
-73.190436
 31
0.0
  0
SPLINE
  5
180
100
AcDbEntity
  8
0
 62
7
100
AcDbSpline
 70
0
 71
3
 72
16
 73
12
 74
10
 40
0.000000
 40
0.000000
 40
0.000000
 40
0.000000
 40
2.239059
 40
4.484526
 40
6.729316
 40
8.178556
 40
9.783498
 40
11.191002
 40
12.586073
 40
14.044983
 40
15.462994
 40
15.462994
 40
15.462994
 40
15.462994
 10
123.569089
 20
-73.190436
 30
0.0
 10
123.489434
 20
-73.933071
 30
0.0
 10
123.329896
 20
-75.420468
 30
0.0
 10
123.333067
 20
-77.666373
 30
0.0
 10
123.337369
 20
-79.644582
 30
0.0
 10
123.427981
 20
-81.412974
 30
0.0
 10
123.697217
 20
-82.873257
 30
0.0
 10
124.307554
 20
-84.270712
 30
0.0
 10
125.571775
 20
-85.051626
 30
0.0
 10
126.967147
 20
-85.375360
 30
0.0
 10
127.927134
 20
-85.412276
 30
0.0
 10
128.400304
 20
-85.430472
 30
0.0
 11
123.569089
 21
-73.190436
 31
0.0
 11
123.370422
 21
-75.420664
 31
0.0
 11
123.333352
 21
-77.665825
 31
0.0
 11
123.360283
 21
-79.910454
 31
0.0
 11
123.455056
 21
-81.356591
 31
0.0
 11
123.775939
 21
-82.929128
 31
0.0
 11
124.421093
 21
-84.180065
 31
0.0
 11
125.573275
 21
-84.966641
 31
0.0
 11
126.985723
 21
-85.331888
 31
0.0
 11
128.400304
 21
-85.430472
 31
0.0
  0
SPLINE
  5
181
100
AcDbEntity
  8
0
 62
7
100
AcDbSpline
 70
0
 71
3
 72
10
 73
6
 74
4
 40
0.000000
 40
0.000000
 40
0.000000
 40
0.000000
 40
1.787755
 40
3.693292
 40
5.434308
 40
5.434308
 40
5.434308
 40
5.434308
 10
128.400304
 20
-85.430472
 30
0.0
 10
128.993542
 20
-85.434485
 30
0.0
 10
130.219102
 20
-85.442774
 30
0.0
 10
132.072754
 20
-85.325169
 30
0.0
 10
133.125089
 20
-84.683311
 30
0.0
 10
133.627517
 20
-84.376861
 30
0.0
 11
128.400304
 21
-85.430472
 31
0.0
 11
130.188039
 21
-85.421840
 31
0.0
 11
132.076577
 21
-85.167888
 31
0.0
 11
133.627517
 21
-84.376861
 31
0.0
  0
SPLINE
  5
182
100
AcDbEntity
  8
0
 62
7
100
AcDbSpline
 70
0
 71
3
 72
10
 73
6
 74
4
 40
0.000000
 40
0.000000
 40
0.000000
 40
0.000000
 40
1.072416
 40
2.189743
 40
3.280186
 40
3.280186
 40
3.280186
 40
3.280186
 10
133.627517
 20
-84.376861
 30
0.0
 10
133.851976
 20
-84.093866
 30
0.0
 10
134.310295
 20
-83.516024
 30
0.0
 10
134.589630
 20
-82.436194
 30
0.0
 10
134.691033
 20
-81.709419
 30
0.0
 10
134.741117
 20
-81.350457
 30
0.0
 11
133.627517
 21
-84.376861
 31
0.0
 11
134.235693
 21
-83.493573
 31
0.0
 11
134.569737
 21
-82.427349
 31
0.0
 11
134.741117
 21
-81.350457
 31
0.0
  0
SPLINE
  5
183
100
AcDbEntity
  8
0
 62
7
100
AcDbSpline
 70
0
 71
3
 72
10
 73
6
 74
4
 40
0.000000
 40
0.000000
 40
0.000000
 40
0.000000
 40
2.458339
 40
5.682754
 40
8.170269
 40
8.170269
 40
8.170269
 40
8.170269
 10
134.741117
 20
-81.350457
 30
0.0
 10
134.808189
 20
-80.533456
 30
0.0
 10
134.963234
 20
-78.644857
 30
0.0
 10
134.926860
 20
-75.917075
 30
0.0
 10
134.797467
 20
-74.017633
 30
0.0
 10
134.741117
 20
-73.190436
 30
0.0
 11
134.741117
 21
-81.350457
 31
0.0
 11
134.908583
 21
-78.897829
 31
0.0
 11
134.890450
 21
-75.673465
 31
0.0
 11
134.741117
 21
-73.190436
 31
0.0
  0
SPLINE
  5
184
100
AcDbEntity
  8
0
 62
7
100
AcDbSpline
 70
0
 71
3
 72
10
 73
6
 74
4
 40
0.000000
 40
0.000000
 40
0.000000
 40
0.000000
 40
1.098402
 40
2.190234
 40
3.283430
 40
3.283430
 40
3.283430
 40
3.283430
 10
134.741117
 20
-73.190436
 30
0.0
 10
134.679347
 20
-72.830726
 30
0.0
 10
134.556177
 20
-72.113457
 30
0.0
 10
134.277070
 20
-71.034041
 30
0.0
 10
133.816927
 20
-70.458952
 30
0.0
 10
133.586711
 20
-70.171228
 30
0.0
 11
134.741117
 21
-73.190436
 31
0.0
 11
134.539960
 21
-72.110611
 31
0.0
 11
134.208670
 21
-71.070253
 31
0.0
 11
133.586711
 21
-70.171228
 31
0.0
  0
SPLINE
  5
185
100
AcDbEntity
  8
0
 62
7
100
AcDbSpline
 70
0
 71
3
 72
10
 73
6
 74
4
 40
0.000000
 40
0.000000
 40
0.000000
 40
0.000000
 40
1.955753
 40
4.296834
 40
6.340248
 40
6.340248
 40
6.340248
 40
6.340248
 10
133.586711
 20
-70.171228
 30
0.0
 10
133.008119
 20
-69.854651
 30
0.0
 10
131.736940
 20
-69.159124
 30
0.0
 10
129.571545
 20
-69.070743
 30
0.0
 10
128.117816
 20
-69.145285
 30
0.0
 10
127.440299
 20
-69.180025
 30
0.0
 11
133.586711
 21
-70.171228
 31
0.0
 11
131.810263
 21
-69.353182
 31
0.0
 11
129.482345
 21
-69.105270
 31
0.0
 11
127.440299
 21
-69.180025
 31
0.0
  0
LWPOLYLINE
  5
186
100
AcDbEntity
  8
0
 62
7
100
AcDbPolyline
 90
26
 70
0
 10
174.468421
 20
-66.950419
 30
0.0
 10
176.352425
 20
-71.750433
 30
0.0
 10
182.388437
 20
-87.110467
 30
0.0
 10
185.040445
 20
-94.790497
 30
0.0
 10
184.800451
 20
-89.030477
 30
0.0
 10
184.560447
 20
-85.190468
 30
0.0
 10
184.560447
 20
-64.550413
 30
0.0
 10
191.760462
 20
-64.550413
 30
0.0
 10
191.760462
 20
-92.630483
 30
0.0
 10
191.760462
 20
-98.870499
 30
0.0
 10
191.515659
 20
-100.646511
 30
0.0
 10
189.600457
 20
-101.030513
 30
0.0
 10
182.160439
 20
-101.030513
 30
0.0
 10
180.408438
 20
-100.792909
 30
0.0
 10
179.443635
 20
-98.870499
 30
0.0
 10
177.886024
 20
-94.790497
 30
0.0
 10
173.446018
 20
-83.270462
 30
0.0
 10
170.400412
 20
-74.150439
 30
0.0
 10
167.834803
 20
-81.830458
 30
0.0
 10
163.037186
 20
-94.550493
 30
0.0
 10
161.419587
 20
-98.870499
 30
0.0
 10
160.404381
 20
-100.792909
 30
0.0
 10
158.640375
 20
-101.030513
 30
0.0
 10
149.040352
 20
-101.030513
 30
0.0
 10
149.040352
 20
-64.550413
 30
0.0
 10
156.000373
 20
-64.550413
 30
0.0
  0
SPLINE
  5
187
100
AcDbEntity
  8
0
 62
7
100
AcDbSpline
 70
0
 71
3
 72
10
 73
6
 74
4
 40
0.000000
 40
0.000000
 40
0.000000
 40
0.000000
 40
1.083732
 40
2.185509
 40
3.262030
 40
3.262030
 40
3.262030
 40
3.262030
 10
127.440299
 20
-69.180025
 30
0.0
 10
127.085758
 20
-69.243670
 30
0.0
 10
126.370774
 20
-69.372018
 30
0.0
 10
125.308311
 20
-69.689853
 30
0.0
 10
124.751480
 20
-70.167818
 30
0.0
 10
124.476293
 20
-70.404029
 30
0.0
 11
127.440299
 21
-69.180025
 31
0.0
 11
126.377452
 21
-69.391759
 31
0.0
 11
125.339138
 21
-69.760294
 31
0.0
 11
124.476293
 21
-70.404029
 31
0.0
  0
SPLINE
  5
188
100
AcDbEntity
  8
0
 62
7
100
AcDbSpline
 70
0
 71
3
 72
10
 73
6
 74
4
 40
0.000000
 40
0.000000
 40
0.000000
 40
0.000000
 40
1.572869
 40
3.343317
 40
4.860169
 40
4.860169
 40
4.860169
 40
4.860169
 10
31.920049
 20
-79.910454
 30
0.0
 10
31.930243
 20
-80.432985
 30
0.0
 10
31.951912
 20
-81.543688
 30
0.0
 10
32.087813
 20
-83.188436
 30
0.0
 10
32.605283
 20
-84.165856
 30
0.0
 10
32.844058
 20
-84.616865
 30
0.0
 11
31.920049
 21
-79.910454
 31
0.0
 11
31.966526
 21
-81.482635
 31
0.0
 11
32.218339
 21
-83.235084
 31
0.0
 11
32.844058
 21
-84.616865
 31
0.0
  0
SPLINE
  5
189
100
AcDbEntity
  8
0
 62
7
100
AcDbSpline
 70
0
 71
3
 72
10
 73
6
 74
4
 40
0.000000
 40
0.000000
 40
0.000000
 40
0.000000
 40
0.733515
 40
1.469975
 40
2.207763
 40
2.207763
 40
2.207763
 40
2.207763
 10
32.844058
 20
-84.616865
 30
0.0
 10
33.024184
 20
-84.785036
 30
0.0
 10
33.385160
 20
-85.122052
 30
0.0
 10
34.080485
 20
-85.401025
 30
0.0
 10
34.560054
 20
-85.505425
 30
0.0
 10
34.800055
 20
-85.557673
 30
0.0
 11
32.844058
 21
-84.616865
 31
0.0
 11
33.409831
 21
-85.083711
 31
0.0
 11
34.083875
 21
-85.380423
 31
0.0
 11
34.800055
 21
-85.557673
 31
0.0
  0
SPLINE
  5
18a
100
AcDbEntity
  8
0
 62
7
100
AcDbSpline
 70
0
 71
3
 72
10
 73
6
 74
4
 40
0.000000
 40
0.000000
 40
0.000000
 40
0.000000
 40
2.312948
 40
5.114981
 40
7.301893
 40
7.301893
 40
7.301893
 40
7.301893
 10
34.800055
 20
-85.557673
 30
0.0
 10
35.564285
 20
-85.633479
 30
0.0
 10
37.254346
 20
-85.801122
 30
0.0
 10
39.755292
 20
-85.761474
 30
0.0
 10
41.250880
 20
-84.994064
 30
0.0
 10
41.906473
 20
-84.657669
 30
0.0
 11
34.800055
 21
-85.557673
 31
0.0
 11
37.105393
 21
-85.745134
 31
0.0
 11
39.898734
 21
-85.524600
 31
0.0
 11
41.906473
 21
-84.657669
 31
0.0
  0
LWPOLYLINE
  5
18b
100
AcDbEntity
  8
0
 62
7
100
AcDbPolyline
 90
1
 70
1
 10
124.476293
 20
-70.404029
 30
0.0
  0
SPLINE
  5
18c
100
AcDbEntity
  8
0
 62
7
100
AcDbSpline
 70
0
 71
3
 72
10
 73
6
 74
4
 40
0.000000
 40
0.000000
 40
0.000000
 40
0.000000
 40
1.606671
 40
3.320912
 40
4.958356
 40
4.958356
 40
4.958356
 40
4.958356
 10
41.906473
 20
-84.657669
 30
0.0
 10
42.198559
 20
-84.199897
 30
0.0
 10
42.802288
 20
-83.253703
 30
0.0
 10
42.952486
 20
-81.566395
 30
0.0
 10
42.957584
 20
-80.453937
 30
0.0
 10
42.960074
 20
-79.910454
 30
0.0
 11
41.906473
 21
-84.657669
 31
0.0
 11
42.664966
 21
-83.241307
 31
0.0
 11
42.929587
 21
-81.547613
 31
0.0
 11
42.960074
 21
-79.910454
 31
0.0
  0
LWPOLYLINE
  5
18d
100
AcDbEntity
  8
0
 62
7
100
AcDbPolyline
 90
2
 70
0
 10
42.960074
 20
-79.910454
 30
0.0
 10
31.920049
 20
-79.910454
 30
0.0
  0
ENDSEC
  0
SECTION
  2
OBJECTS
  0
DICTIONARY
  5
C
330
0
100
AcDbDictionary
  3
ACAD_GROUP
350
D
  3
ACAD_MLINESTYLE
350
17
  0
DICTIONARY
  5
D
330
C
100
AcDbDictionary
  0
DICTIONARY
  5
1A
330
C
100
AcDbDictionary
  0
DICTIONARY
  5
17
330
C
100
AcDbDictionary
  3
STANDARD
350
18
  0
DICTIONARY
  5
19
330
C
100
AcDbDictionary
  0
ENDSEC
  0
EOF
