<?xml version="1.0"?>
<svg xmlns="http://www.w3.org/2000/svg" xmlns:lc="http://www.librecad.org" xmlns:xlink="http://www.w3.org/1999/xlink" width="367.200951mm" height="185.43630605mm" viewBox="0 0 367.200951 185.43630605">
    <g lc:layername="0" lc:is_locked="false" lc:is_construction="false" fill="none" stroke="black" stroke-width="1">
        <path d="M337.213434,118.37985325 C337.019969,119.62070625 336.829374,120.84315825 336.26702167,121.90299092 C335.70466933,122.96282359 334.77055967,123.86003692 333.69425183,124.47486575 C332.617944,125.08969459 331.399438,125.42213892 330.17453533,125.42213892 C328.94963267,125.42213892 327.71833333,125.08969459 326.65443917,124.47486575 C325.590545,123.86003692 324.694056,122.96282359 324.07946667,121.89992409 C323.46487733,120.83702459 323.13218767,119.60843892 323.13218767,118.37985342 C323.13218767,117.15126792 323.46487733,115.92268259 324.07946667,114.85978325 C324.694056,113.79688392 325.590545,112.89967059 326.65443917,112.28484192 C327.71833333,111.67001325 328.94963267,111.33756925 330.17453533,111.33756925 C331.399438,111.33756925 332.617944,111.67001325 333.69425183,112.28484192 C334.77055967,112.89967059 335.70466933,113.79688392 336.26702167,114.85671634 C336.829374,115.91654875 337.019969,117.13900025 337.213434,118.37985325 "/>
        <path d="M337.213434,118.37985325 L337.213434,118.37985325 Z "/>
        <path d="M337.304403,65.60348525 C337.110938,66.84433825 336.920343,68.06678975 336.35799067,69.12662234 C335.79563833,70.18645492 334.86152867,71.08366859 333.78522083,71.69849742 C332.708913,72.31332625 331.490407,72.64577025 330.26550433,72.64577025 C329.04060167,72.64577025 327.80930233,72.31332625 326.74540817,71.69849742 C325.681514,71.08366859 324.785025,70.18645492 324.17043567,69.12355542 C323.55584633,68.06065592 323.22315667,66.83207059 323.22315667,65.60348525 C323.22315667,64.37489992 323.55584633,63.14631459 324.17043583,62.08341542 C324.78502533,61.02051625 325.68151467,60.12330325 326.74540883,59.50847475 C327.809303,58.89364625 329.040602,58.56120225 330.2655045,58.56120225 C331.490407,58.56120225 332.708913,58.89364625 333.78522083,59.50847475 C334.86152867,60.12330325 335.79563833,61.02051625 336.35799067,62.0803485 C336.920343,63.14018075 337.110938,64.36263225 337.304403,65.60348525 "/>
        <path d="M294.24076,7.73676725 C296.94738,5.61891125 299.6482845,3.50552675 302.74584158,2.08300734 C305.84339867,0.66048792 309.33760833,-0.07116641 312.74456042,0.00382892 C316.1515125,0.07882425 319.471207,0.96046925 322.800835,1.84475125 "/>
        <path d="M322.800835,1.84475125 C324.120221,2.43896125 325.4016,3.01605275 326.617575,3.72699834 C327.83355,4.43794392 328.984121,5.28274359 330.04862975,6.20833817 C331.1131385,7.13393275 332.091585,8.14032225 333.099256,9.17677025 "/>
        <path d="M333.099256,9.17677025 C334.896158,11.67870325 336.7020895,14.19320775 337.85971158,16.99924867 C339.01733367,19.80528959 339.52664633,22.90286692 339.66401733,25.62263825 C339.80138833,28.34240959 339.56681767,30.68437492 339.17869633,32.60597575 C338.790575,34.52757659 338.248903,36.02881292 337.7966885,37.16818642 C337.344474,38.30755992 336.981717,39.08507059 336.57483675,39.84361442 C336.1679565,40.60215825 335.716953,41.34173525 335.280863,42.05685625 "/>
        <path d="M337.304403,65.60348525 L337.304403,65.60348525 Z "/>
        <path d="M335.280863,42.05685625 C335.070733,42.34745025 334.8449505,42.65969025 334.62688608,42.96143475 C334.40882167,43.26317925 334.19847533,43.55442825 334.0430005,43.91285342 C333.88752567,44.27127859 333.78692233,44.69687992 333.94156333,45.08602225 C334.09620433,45.47516459 334.50608967,45.82784792 334.88595983,46.19999225 C335.26583,46.57213659 335.615685,46.96374192 336.00658675,47.36611159 C336.3974885,47.76848125 336.829437,48.18161525 337.200874,48.53687225 "/>
        <path d="M344.631285,56.21689325 C346.453152,58.22631125 348.390793,60.36342075 350.255065,62.53046567 C352.119337,64.69751059 353.91024,66.89449092 355.67549775,69.14898934 C357.4407555,71.40348775 359.180368,73.71550425 360.821731,75.89694325 "/>
        <path d="M337.200874,48.53687225 L344.631285,56.21689325 "/>
        <path d="M360.821731,75.89694325 C361.536121,76.86840225 362.318185,77.93188925 363.086249,78.96940342 C363.854313,80.00691759 364.608377,81.01845892 365.3040755,82.08355584 C365.999774,83.14865275 366.637107,84.26730525 367.200951,85.25696825 "/>
        <path d="M367.200951,85.25696825 L90.960226,85.25696825 L90.960226,73.25693725 L129.600331,73.25693725 L149.04038,73.25693725 L152.640387,73.49693725 L198.240513,73.49693725 "/>
        <path d="M198.240513,73.49693725 C198.667066,73.48862425 199.1468345,73.47927425 199.60371942,73.45014909 C200.06060433,73.42102392 200.49460567,73.37212359 200.92516833,73.30506675 C201.355731,73.23800992 201.782855,73.15279659 202.07583217,72.95208625 C202.36880933,72.75137592 202.52763967,72.43516859 202.64659567,72.13519075 C202.76555167,71.83521292 202.84463333,71.55146459 202.91914817,71.25806267 C202.993663,70.96466075 203.063611,70.66160525 203.129317,70.37692925 "/>
        <path d="M204.799728,64.85691525 C205.804007,61.97038725 206.794597,59.12320425 207.9038235,56.31007492 C209.01305,53.49694559 210.240913,50.71786992 211.63384825,48.03447409 C213.0267835,45.35107825 214.584791,42.76336225 216.166156,40.13685125 "/>
        <path d="M216.166156,40.13685125 C219.15812,36.02808025 222.11585,31.96632425 225.6099835,28.34271042 C229.104117,24.71909659 233.134654,21.53362492 237.53425175,19.13072959 C241.9338495,16.72783425 246.702508,15.10751525 251.520651,13.47038225 "/>
        <path d="M251.520651,13.47038225 C253.368323,13.06771725 255.169192,12.67525175 256.99612267,12.40649567 C258.82305333,12.13773959 260.67604567,11.99269292 262.52064383,11.91506459 C264.365242,11.83743625 266.201446,11.82722625 268.080694,11.81677725 "/>
        <path d="M268.080694,11.81677725 C270.289076,11.97837125 272.7028405,12.15499325 275.06708575,12.46323075 C277.431331,12.77146825 279.746057,13.21132125 282.04711225,13.8168795 C284.3481675,14.42243775 286.635552,15.19370125 288.720742,15.89678825 "/>
        <path d="M203.129317,70.37692925 L204.799728,64.85691525 "/>
        <path d="M294.24076,7.73676725 L294.24076,7.73676725 Z "/>
        <path d="M288.720742,15.89678825 C289.126088,14.90241525 289.548626,13.86586825 290.09396817,12.90242742 C290.63931033,11.93898659 291.30745667,11.04865192 292.02371533,10.19491184 C292.739974,9.34117175 293.504345,8.52402625 294.24076,7.73676725 "/>
        <path d="M114.000293,37.01684325 C114.880799,36.94514825 115.512284,36.89372975 116.1695795,36.94709684 C116.826875,37.00046392 117.509981,37.15861659 117.8334325,37.49769842 C118.156884,37.83678025 118.120681,38.35679125 118.080297,38.93684725 "/>
        <path d="M118.800299,21.41680225 L118.800299,27.41681825 L101.760258,27.41681825 L101.760258,37.01684325 L114.000293,37.01684325 "/>
        <path d="M115.920293,43.01685825 L101.760258,43.01685825 L101.760258,57.89689625 L94.560244,57.89689625 L94.560244,21.41680225 L118.800299,21.41680225 "/>
        <path d="M132.720341,21.41680225 L132.720341,51.65688025 L149.760381,51.65688025 L149.760381,57.89689625 L125.520316,57.89689625 L125.520316,21.41680225 L132.720341,21.41680225 Z "/>
        <path d="M118.080297,38.93684725 C118.094645,39.35372725 118.110911,39.82631825 118.11530983,40.26690575 C118.11970867,40.70749325 118.11224033,41.11607725 118.08065333,41.52895742 C118.04906633,41.94183759 117.99336067,42.35901392 117.8308355,42.60496309 C117.66831033,42.85091225 117.39896567,42.92563425 117.165427,42.96719592 C116.93188833,43.00875759 116.73415567,43.01715892 116.53042058,43.01987859 C116.3266855,43.02259825 116.116948,43.01963625 115.920293,43.01685825 "/>
        <path d="M179.280461,33.15283225 C180.815211,32.63844225 182.41058,32.10373375 184.089796,31.9208795 C185.769012,31.73802525 187.532075,31.90702525 189.02104,32.585297 C190.510005,33.26356875 191.724872,34.45111225 192.876499,35.57683925 "/>
        <path d="M192.876499,35.57683925 C193.374804,37.02350725 193.9154105,38.59298575 194.19844225,40.19897734 C194.481474,41.80496892 194.506931,43.44747359 194.45835725,45.10113117 C194.4097835,46.75478875 194.287179,48.41959925 194.172493,49.97687625 "/>
        <path d="M194.172493,49.97687625 C194.076606,50.61166325 193.9782165,51.26301375 193.83781042,51.90486484 C193.69740433,52.54671592 193.51498167,53.17906759 193.25491058,53.77811817 C192.9948395,54.37716875 192.65712,54.94291825 192.329296,55.49209025 "/>
        <path d="M192.329296,55.49209025 C191.141848,56.35817625 189.855468,57.29642075 188.39939283,57.80847834 C186.94331767,58.32053592 185.31754733,58.40640659 183.75267142,58.20342692 C182.1877955,58.00044725 180.683814,57.50861725 179.280461,57.04969525 "/>
        <path d="M161.760412,21.41680225 L161.51561,26.31281525 L159.600408,26.69681625 L155.520404,26.69681625 L155.520404,21.41680225 L161.760412,21.41680225 Z "/>
        <path d="M179.280461,57.04969525 C178.907588,56.80775125 178.550833,56.57626575 178.23253883,56.29590217 C177.91424467,56.01553859 177.63441133,55.68629692 177.37704917,55.34732109 C177.119687,55.00834525 176.884796,54.65963525 176.640449,54.29688725 "/>
        <path d="M171.840443,68.93692525 C171.672183,68.93485425 171.501452,68.93275325 171.32835583,68.92361875 C171.15525967,68.91448425 170.97979833,68.89831625 170.82498892,68.83489775 C170.6701795,68.77147925 170.536022,68.66081025 170.405238,68.55292425 "/>
        <path d="M176.640449,54.29688725 L176.640449,68.93692525 L171.840443,68.93692525 "/>
        <path d="M170.405238,68.55292425 C170.328029,68.38104625 170.2434735,68.19281625 170.20069425,67.99606992 C170.157915,67.79932359 170.156912,67.59406092 170.157181,67.38728434 C170.15745,67.18050775 170.158991,66.97221725 170.160436,66.77692025 "/>
        <path d="M170.160436,34.37683625 C170.158988,34.18153925 170.1574435,33.97324925 170.15716892,33.76647175 C170.15689433,33.55969425 170.15788967,33.35442925 170.20067058,33.15768275 C170.2434515,32.96093625 170.328018,32.77270825 170.405238,32.60083125 "/>
        <path d="M170.160436,66.77692025 L170.160436,40.37685125 L170.160436,34.37683625 "/>
        <path d="M170.405238,32.60083125 C170.579185,32.47872525 170.7664985,32.34723675 170.97560575,32.2801855 C171.184713,32.21313425 171.415614,32.21052025 171.64509375,32.21072325 C171.8745735,32.21092625 172.102632,32.21394625 172.32044,32.21683025 "/>
        <path d="M174.960453,32.21683025 C175.563039,32.24366225 176.1022795,32.26767275 176.32453975,32.59150234 C176.5468,32.91533192 176.45208,33.53898059 176.4479295,34.10329642 C176.443779,34.66761225 176.530198,35.17259525 176.640449,35.81683925 "/>
        <path d="M172.32044,32.21683025 L174.960453,32.21683025 "/>
        <path d="M179.280461,33.15283225 L179.280461,33.15283225 Z "/>
        <path d="M176.640449,35.81683925 C176.860001,35.44215525 177.0712415,35.08165525 177.32782308,34.74934242 C177.58440467,34.41702959 177.88632733,34.11290392 178.21682167,33.85301959 C178.547316,33.59313525 178.906382,33.37749225 179.280461,33.15283225 "/>
        <path d="M176.880453,42.53685725 C176.860048,43.60889225 176.837978,44.76837775 176.815448,45.91973067 C176.792918,47.07108359 176.769928,48.21430392 177.03995975,49.28272909 C177.3099915,50.35115425 177.873045,51.34478425 178.370858,52.22328125 "/>
        <path d="M178.370858,52.22328125 C178.672955,52.42636825 178.9779965,52.63143375 179.30941192,52.78051534 C179.64082733,52.92959692 179.99861667,53.02269459 180.35858033,53.09454717 C180.718544,53.16639975 181.080682,53.21700725 181.440466,53.26728525 "/>
        <path d="M181.440466,53.26728525 C181.701472,53.29175725 181.97013,53.31694775 182.23835983,53.3298955 C182.50658967,53.34284325 182.77439133,53.34354825 183.04261167,53.33095 C183.310832,53.31835175 183.579471,53.29245025 183.840474,53.26728525 "/>
        <path d="M183.840474,53.26728525 C184.173402,53.21622225 184.5095385,53.16466725 184.84243342,53.09113092 C185.17532833,53.01759459 185.50498167,52.92207692 185.80967458,52.77653409 C186.1143675,52.63099125 186.3941,52.43542325 186.670078,52.24248225 "/>
        <path d="M186.670078,52.24248225 C187.133763,51.42283925 187.6561325,50.49946275 187.91941658,49.50817217 C188.18270067,48.51688159 188.18689933,47.45767692 188.18376217,46.39074534 C188.180625,45.32381375 188.170152,44.24915525 188.160482,43.25685925 "/>
        <path d="M188.160482,43.25685925 C188.132333,42.72754125 188.10225,42.16187125 188.04734667,41.60306859 C187.99244333,41.04426592 187.91271967,40.49233059 187.74359458,39.96644592 C187.5744695,39.44056125 187.315943,38.94072725 187.078081,38.48084625 "/>
        <path d="M187.078081,38.48084625 C186.479258,38.01439825 185.8528835,37.52648975 185.13674892,37.26160967 C184.42061433,36.99672959 183.61471967,36.95487792 182.82034308,36.96350934 C182.0259665,36.97214075 181.243108,37.03125525 180.48046,37.08884325 "/>
        <path d="M160.080405,32.21683025 L161.51561,32.60083125 L161.760412,34.37683625 L161.760412,57.89689625 L155.520404,57.89689625 L155.520404,32.21683025 L160.080405,32.21683025 Z "/>
        <path d="M176.880453,42.53685725 L176.880453,42.53685725 Z "/>
        <path d="M180.48046,37.08884325 C179.639772,37.33524425 178.862729,37.56299125 178.28207633,38.06517075 C177.70142367,38.56735025 177.31716133,39.34396225 177.11654642,40.123132 C176.9159315,40.90230175 176.898964,41.68402925 176.880453,42.53685725 "/>
        <path d="M367.200951,101.09700825 C366.683584,102.01415925 366.1024755,103.04430825 365.46711192,104.02632192 C364.83174833,105.00833559 364.14212967,105.94221392 363.44077033,106.89929284 C362.739411,107.85637175 362.026311,108.83665125 361.371334,109.73703125 "/>
        <path d="M11.280029,101.09700825 L15.360034,101.33700925 L133.200338,101.33700925 L176.640449,101.33700925 L198.480506,101.33700925 L202.080524,101.09700825 L367.200951,101.09700825 "/>
        <path d="M361.371334,109.73703125 C359.685327,112.00258025 357.9334,114.35670925 356.13867983,116.65451975 C354.34395967,118.95233025 352.50644633,121.19382225 350.60701517,123.405323 C348.707584,125.61682375 346.746235,127.79833325 344.859294,129.89708325 "/>
        <path d="M337.680871,137.33710325 C337.309265,137.69374525 336.8749965,138.11052675 336.48071992,138.51757584 C336.08644333,138.92462492 335.73215867,139.32194159 335.3488165,139.69152442 C334.96547433,140.06110725 334.55307467,140.40295625 334.37766167,140.78818625 C334.20224867,141.17341625 334.26382233,141.60202725 334.399291,141.96256092 C334.53475967,142.32309459 334.74412333,142.61555092 334.95783542,142.91622784 C335.1715475,143.21690475 335.389608,143.52580225 335.59526,143.81712125 "/>
        <path d="M335.59526,143.81712125 C336.04318,144.58687625 336.5005605,145.37288775 336.90804608,146.1820975 C337.31553167,146.99130725 337.67312233,147.82371525 337.97968242,148.676399 C338.2862425,149.52908275 338.541772,150.40204225 338.792072,151.25713625 "/>
        <path d="M338.792072,151.25713625 C339.248165,154.25763225 339.7035525,157.25348575 339.59346608,160.27849434 C339.48337967,163.30350292 338.80781933,166.35766659 337.55358692,169.09847267 C336.2993545,171.83927875 334.46645,174.26672725 332.631254,176.69720925 "/>
        <path d="M332.631254,176.69720925 C331.878899,177.46332025 331.1537365,178.20174275 330.37922325,178.89865117 C329.60471,179.59555959 328.780846,180.25095392 327.91531475,180.82954559 C327.0497835,181.40813725 326.142585,181.90992625 325.200843,182.43082225 "/>
        <path d="M325.200843,182.43082225 C321.716816,183.70336525 318.254769,184.96788075 314.61206283,185.32717067 C310.96935667,185.68646059 307.14599133,185.14052492 303.76370342,183.75362959 C300.3814155,182.36673425 297.440205,180.13887925 294.480753,177.89720725 "/>
        <path d="M344.859294,129.89708325 L337.680871,137.33710325 "/>
        <path d="M294.480753,177.89720725 C293.79045,177.17910225 293.0709105,176.43058325 292.38795025,175.65476359 C291.70499,174.87894392 291.058609,174.07582359 290.53031875,173.19760992 C290.0020285,172.31939625 289.591829,171.36608925 289.200739,170.45719225 "/>
        <path d="M277.680717,173.47639625 C274.815215,173.89138825 271.980725,174.30188975 269.11918033,174.48286567 C266.25763567,174.66384159 263.36903633,174.61529192 260.51653767,174.33023734 C257.664039,174.04518275 254.847641,173.52362325 252.000648,172.99639825 "/>
        <path d="M252.000648,172.99639825 C245.400856,170.61266125 238.8470395,168.24552975 233.14758375,164.43883684 C227.448128,160.63214392 222.603033,155.38588959 218.641013,149.67827892 C214.678993,143.97066825 211.600048,137.80170125 208.493331,131.57708825 "/>
        <path d="M289.200739,170.45719225 L286.320734,171.31639225 L277.680717,173.47639625 "/>
        <path d="M208.493331,131.57708825 C207.761417,129.72131125 206.9423495,127.64455725 206.18039342,125.59731259 C205.41843733,123.55006792 204.71359267,121.53233259 204.10962183,119.45045942 C203.505651,117.36858625 203.002554,115.22257525 202.560522,113.33704025 "/>
        <path d="M202.560522,113.33704025 L0.230397,113.33704025 L0.230397,109.97703125 L0,107.09702425 L0,101.09700825 L11.280029,101.09700825 "/>
        <path d="M26.186466,128.45708025 C26.921683,127.25026925 27.657761,126.04204525 28.7350665,125.26956525 C29.812372,124.49708525 31.230905,124.16034925 32.61712025,123.95390775 C34.0033355,123.74746625 35.357233,123.67131925 36.720094,123.59466725 "/>
        <path d="M38.640094,123.59466725 C39.525254,123.64817025 40.418111,123.70213775 41.30138817,123.80705884 C42.18466533,123.91197992 43.05836267,124.06785459 43.96677167,124.34378209 C44.87518067,124.61970959 45.81830133,125.01568992 46.590824,125.74090425 C47.36334667,126.46611859 47.96527133,127.52056692 48.38632967,128.66770575 C48.807388,129.81484459 49.04758,131.05467392 49.19354975,132.32716434 C49.3395195,133.59965475 49.391267,134.90480625 49.440126,136.13709925 "/>
        <path d="M49.440126,136.13709925 C49.421228,137.35319325 49.401585,138.61723975 49.32872017,139.87936217 C49.25585533,141.14148459 49.12976867,142.40168292 48.75880383,143.58515109 C48.387839,144.76861925 47.771996,145.87535725 47.186515,146.92753125 "/>
        <path d="M47.186515,146.92753125 C46.819335,147.30096425 46.457256,147.66921075 46.04038367,147.96666267 C45.62351133,148.26411459 45.15184567,148.49077192 44.67050958,148.67743334 C44.1891735,148.86409475 43.698167,149.01076025 43.200106,149.15953325 "/>
        <path d="M43.200106,149.15953325 C42.052337,149.38008525 40.846369,149.61181975 39.63506933,149.7319545 C38.42376967,149.85208925 37.20713833,149.86062425 35.99098017,149.77441675 C34.774822,149.68820925 33.559137,149.50725925 32.400074,149.33473725 "/>
        <path d="M32.400074,149.33473725 C31.860708,149.20261925 31.320108,149.07019925 30.79443933,148.89003342 C30.26877067,148.70986759 29.75803333,148.48195592 29.2323325,148.14873942 C28.70663167,147.81552292 28.16596733,147.37700159 27.7051675,146.77997192 C27.24436767,146.18294225 26.86343233,145.42740425 26.60847133,144.57885042 C26.35351033,143.73029659 26.22452367,142.78872692 26.12558658,141.84629484 C26.0266495,140.90386275 25.957762,139.96056825 25.888863,139.01710725 "/>
        <path d="M25.888863,139.01710725 C25.837272,138.67586425 25.780324,138.29919025 25.72810883,137.92788159 C25.67589367,137.55657292 25.62841133,137.19062959 25.65836792,136.82916417 C25.6883245,136.46769875 25.79572,136.11071125 25.888863,135.80109825 "/>
        <path d="M36.720094,123.59466725 L38.640094,123.59466725 "/>
        <path d="M25.888863,135.80109825 C26.071459,135.67895625 26.2657955,135.54896075 26.47989125,135.48205067 C26.693987,135.41514059 26.927842,135.41131592 27.159761,135.41103184 C27.39168,135.41074775 27.621663,135.41400425 27.840073,135.41709725 "/>
        <path d="M40.800098,135.41709725 C41.027409,135.42093725 41.2622415,135.42490425 41.49383092,135.42089192 C41.72542033,135.41687959 41.95376667,135.40488792 42.22683067,135.32395075 C42.49989467,135.24301359 42.81767633,135.09313092 42.97722467,134.73539775 C43.136773,134.37766459 43.138088,133.81208092 43.0932,133.24985359 C43.048312,132.68762625 42.957221,132.12875525 42.77585775,131.5604635 C42.5944945,130.99217175 42.322859,130.41445925 42.084108,129.90668425 "/>
        <path d="M42.084108,129.90668425 C41.607455,129.44684525 41.132963,128.98909025 40.56280583,128.70662342 C39.99264867,128.42415659 39.32682633,128.31697792 38.67161042,128.26459759 C38.0163945,128.21221725 37.371785,128.21463525 36.720094,128.21707925 "/>
        <path d="M27.840073,135.41709725 L40.800098,135.41709725 "/>
        <path d="M36.720094,128.21707925 C36.219058,128.23504025 35.710412,128.25327375 35.208735,128.31953117 C34.707058,128.38578859 34.21235,128.50006992 33.7778495,128.70002142 C33.343349,128.89997292 32.969056,129.18559459 32.71872667,129.50368575 C32.46839733,129.82177692 32.34203167,130.17233759 32.26966517,130.48692825 C32.19729867,130.80151892 32.17893133,131.08013959 32.09608417,131.31535325 C32.013237,131.55056692 31.86591,131.74237359 31.699499,131.85497759 C31.533088,131.96758159 31.347593,132.00098292 31.17871867,132.02166309 C31.00984433,132.04234325 30.85759067,132.05030225 30.70230208,132.05408225 C30.5470135,132.05786225 30.38869,132.05746325 30.24007,132.05708825 "/>
        <path d="M30.24007,132.05708825 L25.680057,132.05708825 "/>
        <path d="M25.680057,132.05708825 C25.70099,131.67065125 25.723544,131.25427875 25.758044,130.84443584 C25.792544,130.43459292 25.83899,130.03127959 25.9137695,129.62908867 C25.988549,129.22689775 26.091662,128.82582925 26.186466,128.45708025 "/>
        <path d="M61.200153,142.37711625 C61.786295,142.40236425 62.272838,142.42332225 62.55638083,142.67957642 C62.83992367,142.93583059 62.92046633,143.42738092 63.09753342,143.82463684 C63.2746005,144.22189275 63.548192,144.52485425 63.871364,144.88272025 "/>
        <path d="M63.871364,144.88272025 C64.270428,145.08039225 64.691411,145.28892225 65.13737917,145.39639392 C65.58334733,145.50386559 66.05430067,145.51027892 66.52494758,145.51018709 C66.9955945,145.51009525 67.465935,145.50349825 67.92017,145.49712725 "/>
        <path d="M67.92017,145.49712725 C68.601968,145.46684725 69.271629,145.43710575 69.9552675,145.29534134 C70.638906,145.15357692 71.336522,144.89978959 71.79487475,144.43596792 C72.2532275,143.97214625 72.472317,143.29829025 72.693786,142.61711625 "/>
        <path d="M72.693786,142.61711625 C72.509771,141.69931825 72.321774,140.76165575 71.72106367,140.24073117 C71.12035333,139.71980659 70.10692967,139.61561992 69.16691608,139.55955959 C68.2269025,139.50349925 67.360299,139.49556525 66.480167,139.48750825 "/>
        <path d="M66.480167,139.48750825 C65.45882,139.41386125 64.3453595,139.33357275 63.24766292,139.22816734 C62.14996633,139.12276192 61.06803367,138.99223959 60.05271208,138.64919642 C59.0373905,138.30615325 58.08868,137.75058925 57.247342,137.25790225 "/>
        <path d="M57.247342,137.25790225 C56.913183,136.78416925 56.569736,136.29726875 56.3274855,135.762416 C56.085235,135.22756325 55.944181,134.64475825 55.853415,134.05713475 C55.762649,133.46951125 55.722171,132.87706925 55.682545,132.29708925 "/>
        <path d="M55.682545,132.29708925 C55.70546,131.54315925 55.728897,130.77206025 55.82564817,130.00470375 C55.92239933,129.23734725 56.09246467,128.47373325 56.40991333,127.7817745 C56.727362,127.08981575 57.192194,126.46951225 57.64334,125.86747225 "/>
        <path d="M26.186466,128.45708025 L26.186466,128.45708025 Z "/>
        <path d="M57.64334,125.86747225 C58.402276,125.33899425 59.1745025,124.80126075 60.02876942,124.46380634 C60.88303633,124.12635192 61.81934367,123.98917659 62.75022783,123.88113117 C63.681112,123.77308575 64.606573,123.69417025 65.520161,123.61626725 "/>
        <path d="M67.440172,123.41946725 C67.762266,123.41746025 68.052594,123.41565225 68.3440745,123.43228842 C68.635555,123.44892459 68.928188,123.48400492 69.30939883,123.52930292 C69.69060967,123.57460092 70.16039833,123.63011659 70.7336675,123.67906642 C71.30693667,123.72801625 71.98368633,123.77040025 72.760664,123.84947359 C73.53764167,123.92854692 74.41484733,124.04430959 75.21434142,124.35346067 C76.0138355,124.66261175 76.735618,125.16515125 77.441001,125.65627225 "/>
        <path d="M65.520161,123.61626725 L67.440172,123.41946725 "/>
        <path d="M77.441001,125.65627225 C77.908625,126.27140125 78.372425,126.88150075 78.66258867,127.57089034 C78.95275233,128.26027992 79.06927967,129.02895959 79.12993583,129.78891517 C79.190592,130.54887075 79.195377,131.30010225 79.200199,132.05708825 "/>
        <path d="M72.720186,131.81708825 C72.502103,130.56273625 72.268548,129.21939475 71.41611283,128.47463284 C70.56367767,127.72987092 69.09236233,127.58368859 67.75929242,127.66520617 C66.4262225,127.74672375 65.231398,128.05594125 64.080158,128.35387925 "/>
        <path d="M64.080158,128.35387925 C63.689789,128.58779125 63.3053965,128.81812125 62.97543758,129.12687259 C62.64547867,129.43562392 62.36995333,129.82279659 62.23393992,130.24347242 C62.0979265,130.66414825 62.101425,131.11832725 62.104958,131.57708825 "/>
        <path d="M79.200199,132.05708825 L72.720186,131.81708825 "/>
        <path d="M62.104958,131.57708825 C62.464021,132.38714925 62.8228475,133.19667575 63.46159208,133.645358 C64.10033667,134.09404025 65.01899933,134.18187825 65.88679592,134.21706875 C66.7545925,134.25225925 67.571523,134.23480225 68.400178,134.21709525 "/>
        <path d="M70.560182,134.41629525 C71.446838,134.49680825 72.334567,134.57741875 73.21543033,134.71762784 C74.09629367,134.85783692 74.97029133,135.05764459 75.72123833,135.39546625 C76.47218533,135.73328792 77.10008167,136.20912359 77.55027033,136.72490759 C78.000459,137.24069159 78.27294,137.79642392 78.4663995,138.30691959 C78.659859,138.81741525 78.774297,139.28267425 78.8434695,139.75436975 C78.912642,140.22606525 78.936549,140.70419725 78.960195,141.17711225 "/>
        <path d="M78.960195,141.17711225 C78.969474,141.92441625 78.978765,142.67271575 78.9466445,143.43077434 C78.914524,144.18883292 78.840992,144.95665059 78.58268675,145.65011667 C78.3243815,146.34358275 77.881303,146.96269725 77.441001,147.57793225 "/>
        <path d="M77.441001,147.57793225 C76.620776,148.09402025 75.732596,148.65286475 74.770734,149.00772734 C73.808872,149.36258992 72.773328,149.51347059 71.729118,149.61487617 C70.684908,149.71628175 69.632032,149.76821225 68.640171,149.81713325 "/>
        <path d="M68.400178,134.21709525 L70.560182,134.41629525 "/>
        <path d="M68.640171,149.81713325 C67.464853,149.81063325 66.199851,149.80363725 64.97326433,149.73094275 C63.74667767,149.65824825 62.55850633,149.51985525 61.45182483,149.25431242 C60.34514333,148.98876959 59.31995167,148.59607692 58.61574233,148.04172442 C57.911533,147.48737192 57.528306,146.77135959 57.26544833,146.11111309 C57.00259067,145.45086659 56.86010233,144.84638592 56.77587867,144.23172834 C56.691655,143.61707075 56.665696,142.99223625 56.64014,142.37711625 "/>
        <path d="M56.64014,142.37711625 L61.200153,142.37711625 "/>
        <path d="M108.393876,127.01707625 C108.668408,127.64879425 108.9571035,128.31310525 109.15673525,129.00088209 C109.356367,129.68865892 109.466935,130.39990159 109.53959125,131.11823317 C109.6122475,131.83656475 109.646992,132.56198525 109.680284,133.25709225 "/>
        <path d="M103.440265,134.45709525 C103.419054,133.92385625 103.3963975,133.35427125 103.34216208,132.79985009 C103.28792667,132.24542892 103.20211233,131.70617159 103.04377417,131.13338109 C102.885436,130.56059059 102.654574,129.95426692 102.191781,129.50080942 C101.728988,129.04735192 101.034264,128.74676059 100.29227067,128.58317742 C99.55027733,128.41959425 98.76101467,128.39301925 97.99210608,128.5258605 C97.2231975,128.65870175 96.474643,128.95095925 95.760243,129.22988225 "/>
        <path d="M95.760243,129.22988225 C95.462272,129.43020325 95.169366,129.62712075 94.906075,129.86139534 C94.642784,130.09566992 94.409108,130.36730159 94.21004475,130.65864392 C94.0109815,130.94998625 93.846531,131.26103925 93.67944,131.57708825 "/>
        <path d="M109.680284,133.25709225 L109.680284,149.33713625 L103.440265,149.33713625 L103.440265,134.45709525 "/>
        <path d="M93.67944,131.57708825 C93.431959,132.28690825 93.1806295,133.00776775 93.04349775,133.75037784 C92.906366,134.49298792 92.883432,135.25734859 92.8752665,136.02010842 C92.867101,136.78286825 92.873704,137.54402725 92.880237,138.29710525 "/>
        <path d="M92.880237,138.29710525 L92.880237,149.33713625 L86.640217,149.33713625 L86.640217,123.89706725 L92.880237,123.89706725 L92.880237,127.73707825 "/>
        <path d="M92.880237,127.73707825 C94.193338,126.28136125 95.582505,124.74131825 97.4109145,123.94918175 C99.239324,123.15704525 101.506976,123.11281525 103.42370725,123.7599205 C105.3404385,124.40702575 106.906249,125.74546625 108.393876,127.01707625 "/>
        <path d="M138.698754,125.84107225 C139.077641,126.29658225 139.455061,126.75032775 139.744235,127.25818717 C140.033409,127.76604659 140.234337,128.32801992 140.39524075,128.89617734 C140.5561445,129.46433475 140.677024,130.03867625 140.79876,130.61708525 "/>
        <path d="M140.79876,130.61708525 C140.930717,131.86338425 141.0758805,133.23440775 141.14983708,134.59033534 C141.22379367,135.94626292 141.22654333,137.28709459 141.15392517,138.64310567 C141.081307,139.99911675 140.933321,141.37030725 140.79876,142.61711625 "/>
        <path d="M140.79876,142.61711625 C140.693996,143.17636125 140.587074,143.74712425 140.44555467,144.31097759 C140.30403533,144.87483092 140.12791867,145.43177459 139.86475383,145.94306467 C139.601589,146.45435475 139.251376,146.91999125 138.909958,147.37393325 "/>
        <path d="M138.909958,147.37393325 C137.95749,147.96613625 136.918739,148.61198575 135.79431983,149.01026984 C134.66990067,149.40855392 133.45981333,149.55927259 132.24033967,149.65287092 C131.020866,149.74646925 129.792006,149.78294725 128.640325,149.81713325 "/>
        <path d="M128.640325,149.81713325 C127.587087,149.76231425 126.4717995,149.70426575 125.36579242,149.58943017 C124.25978533,149.47459459 123.16305867,149.30297192 122.14651483,148.91692034 C121.129971,148.53086875 120.19361,147.93038825 119.3259,147.37393325 "/>
        <path d="M119.3259,147.37393325 C118.973559,146.92099925 118.61497,146.46003275 118.3453915,145.95022534 C118.075813,145.44041792 117.895245,144.88176959 117.748871,144.31695542 C117.602497,143.75214125 117.490317,143.18116125 117.379499,142.61711625 "/>
        <path d="M117.379499,142.61711625 C117.254159,141.34978525 117.115423,139.94700225 117.06696833,138.56353492 C117.01851367,137.18006759 117.06034033,135.81591592 117.122193,134.57063525 C117.18404567,133.32535459 117.26592433,132.19894492 117.405152,131.24866409 C117.54437967,130.29838325 117.74095633,129.52423125 117.93617333,128.87312442 C118.13139033,128.22201759 118.32524767,127.69395592 118.59741258,127.21085959 C118.8695775,126.72776325 119.22005,126.28963225 119.563505,125.86027225 "/>
        <path d="M119.563505,125.86027225 C120.416924,125.25763725 121.2775655,124.64990275 122.23689542,124.29908617 C123.19622533,123.94826959 124.25424367,123.85437092 125.29871433,123.77053134 C126.343185,123.68669175 127.374108,123.61291125 128.400332,123.53946625 "/>
        <path d="M108.393876,127.01707625 L108.393876,127.01707625 Z "/>
        <path d="M138.698754,125.84107225 L138.698754,125.84107225 Z "/>
        <path d="M128.400332,123.53946625 C129.55854,123.55581825 130.7836365,123.57311375 132.00259325,123.64736234 C133.22155,123.72161092 134.434367,123.85281259 135.56219425,124.23572717 C136.6900215,124.61864175 137.732859,125.25326925 138.698754,125.84107225 "/>
        <path d="M156.000401,123.89706725 L156.000401,147.17713325 L155.760397,154.37714425 "/>
        <path d="M155.760397,154.37714425 C156.481452,152.03017825 157.323245,149.29022425 158.24821733,146.62317825 C159.17318967,143.95613225 160.18134133,141.36199425 161.22482492,138.695027 C162.2683085,136.02805975 163.347124,133.28826325 164.304419,130.85708625 "/>
        <path d="M164.304419,130.85708625 L166.176427,126.05707325 "/>
        <path d="M166.176427,126.05707325 C166.260512,125.83576125 166.350703,125.59838025 166.44440317,125.36928292 C166.53810333,125.14018559 166.63531267,124.91937192 166.74466767,124.71533575 C166.85402267,124.51129959 166.97552333,124.32404092 167.1196505,124.19762442 C167.26377767,124.07120792 167.43053133,124.00563359 167.58722333,123.96612359 C167.74391533,123.92661359 167.89054567,123.91316792 168.03807083,123.90600059 C168.185596,123.89883325 168.334016,123.89794425 168.480429,123.89706725 "/>
        <path d="M168.480429,123.89706725 L171.600439,123.89706725 "/>
        <path d="M171.600439,123.89706725 C171.796875,123.89382325 172.002955,123.89041925 172.20530283,123.89262559 C172.40765067,123.89483192 172.60626633,123.90264859 172.81502,123.93844375 C173.02377367,123.97423892 173.24266533,124.03801259 173.41962283,124.18250425 C173.59658033,124.32699592 173.73160367,124.55220559 173.85226483,124.78763209 C173.972926,125.02305859 174.079225,125.26870192 174.1808215,125.52555459 C174.282418,125.78240725 174.379312,126.05046925 174.468449,126.29707325 "/>
        <path d="M124.476321,129.75068325 C124.292688,130.02278625 124.106252,130.29904075 123.97756683,130.60078917 C123.84888167,130.90253759 123.77794733,131.22977992 123.71941867,131.55730509 C123.66089,131.88483025 123.614767,132.21263825 123.569117,132.53709025 "/>
        <path d="M123.569117,132.53709025 C123.489462,133.27972525 123.409693,134.02342375 123.370337,134.7695905 C123.330981,135.51575725 123.332038,136.26439225 123.3332835,136.96841125 C123.334529,137.67243025 123.335963,138.33183325 123.351782,138.95626675 C123.367601,139.58070025 123.397805,140.17016425 123.45777967,140.70827675 C123.51775433,141.24638925 123.60749967,141.73315025 123.75409517,142.20943992 C123.90069067,142.68572959 124.10413633,143.15154792 124.41656267,143.51460942 C124.728989,143.87767092 125.150396,144.13797559 125.5936615,144.32208359 C126.036927,144.50619159 126.502051,144.61410292 126.97460975,144.67728759 C127.4471685,144.74047225 127.927162,144.75893025 128.400332,144.77712625 "/>
        <path d="M128.400332,144.77712625 C128.99357,144.78113925 129.60635,144.78528375 130.221682,144.76775517 C130.837014,144.75022659 131.454898,144.71102492 132.02692375,144.53095959 C132.5989495,144.35089425 133.125117,144.02996525 133.627545,143.72351525 "/>
        <path d="M133.627545,143.72351525 C133.852004,143.44052025 134.0811635,143.15159925 134.24229908,142.82716709 C134.40343467,142.50273492 134.49654633,142.14279159 134.56845292,141.78112617 C134.6403595,141.41946075 134.691061,141.05607325 134.741145,140.69711125 "/>
        <path d="M134.741145,140.69711125 C134.808217,139.88011025 134.8857395,138.93581075 134.91843842,138.00903067 C134.95113733,137.08225059 134.93901267,136.17298992 134.90060208,135.24349909 C134.8621915,134.31400825 134.797495,133.36428725 134.741145,132.53709025 "/>
        <path d="M134.741145,132.53709025 C134.679375,132.17738025 134.61779,131.81874575 134.54047967,131.45952584 C134.46316933,131.10030592 134.37013367,130.74050059 134.20858008,130.41682567 C134.0470265,130.09315075 133.816955,129.80560625 133.586739,129.51788225 "/>
        <path d="M133.586739,129.51788225 C133.008147,129.20130525 132.3725575,128.85354175 131.69386358,128.66492984 C131.01516967,128.47631792 130.29337133,128.44685759 129.56903992,128.45076292 C128.8447085,128.45466825 128.117844,128.49193925 127.440327,128.52667925 "/>
        <path d="M174.468449,126.29707325 L176.352453,131.09708725 L182.388465,146.45712125 L185.040473,154.13715125 L184.800479,148.37713125 L184.560475,144.53712225 L184.560475,123.89706725 L191.76049,123.89706725 L191.76049,151.97713725 L191.76049,158.21715325 L191.515687,159.99316525 L189.600485,160.37716725 L182.160467,160.37716725 L180.408466,160.13956325 L179.443663,158.21715325 L177.886052,154.13715125 L173.446046,142.61711625 L170.40044,133.49709325 L167.834831,141.17711225 L163.037214,153.89714725 L161.419615,158.21715325 L160.404409,160.13956325 L158.640403,160.37716725 L149.04038,160.37716725 L149.04038,123.89706725 L156.000401,123.89706725 "/>
        <path d="M127.440327,128.52667925 C127.085786,128.59032425 126.728294,128.65449825 126.37247083,128.73955775 C126.01664767,128.82461725 125.66249333,128.93056225 125.34620842,129.103026 C125.0299235,129.27548975 124.751508,129.51447225 124.476321,129.75068325 "/>
        <path d="M31.920077,139.25710825 C31.930271,139.77963925 31.9411055,140.33499075 31.96917292,140.88679117 C31.99724033,141.43859159 32.04254067,141.98684092 32.19455833,142.50532059 C32.346576,143.02380025 32.605311,143.51251025 32.844086,143.96351925 "/>
        <path d="M32.844086,143.96351925 C33.024212,144.13169025 33.2047,144.30019825 33.4108315,144.43094775 C33.616963,144.56169725 33.848738,144.65468825 34.08451775,144.72728375 C34.3202975,144.79987925 34.560082,144.85207925 34.800083,144.90432725 "/>
        <path d="M34.800083,144.90432725 C35.564313,144.98013325 36.4093435,145.06395475 37.24868308,145.0992575 C38.08802267,145.13456025 38.92167133,145.12134425 39.71239267,144.92288375 C40.503114,144.72442325 41.250908,144.34071825 41.906501,144.00432325 "/>
        <path d="M124.476321,129.75068325 L124.476321,129.75068325 Z "/>
        <path d="M41.906501,144.00432325 C42.198587,143.54655125 42.5004515,143.07345425 42.67641675,142.55568775 C42.852382,142.03792125 42.902448,141.47548525 42.9287555,140.91615275 C42.955063,140.35682025 42.957612,139.80059125 42.960102,139.25710825 "/>
        <path d="M42.960102,139.25710825 L31.920077,139.25710825 "/>
    </g>
</svg>
